<?xml version="1.0" encoding="UTF-8" standalone="no"?>
<!-- Created with Inkscape (http://www.inkscape.org/) -->

<svg
   xmlns:dc="http://purl.org/dc/elements/1.1/"
   xmlns:cc="http://creativecommons.org/ns#"
   xmlns:rdf="http://www.w3.org/1999/02/22-rdf-syntax-ns#"
   xmlns:svg="http://www.w3.org/2000/svg"
   xmlns="http://www.w3.org/2000/svg"
   xmlns:xlink="http://www.w3.org/1999/xlink"
   xmlns:sodipodi="http://sodipodi.sourceforge.net/DTD/sodipodi-0.dtd"
   xmlns:inkscape="http://www.inkscape.org/namespaces/inkscape"
   width="1000"
   height="1000"
   id="svg2"
   version="1.1"
   inkscape:version="0.48.2 r9819"
   sodipodi:docname="icon.svg"
   inkscape:export-filename="/Users/timdream/Desktop/mou-1024.png"
   inkscape:export-xdpi="92.160004"
   inkscape:export-ydpi="92.160004">
  <defs
     id="defs4">
    <linearGradient
       id="linearGradient5413">
      <stop
         style="stop-color:#000000;stop-opacity:0.50196081;"
         offset="0"
         id="stop5415" />
      <stop
         style="stop-color:#000000;stop-opacity:0;"
         offset="1"
         id="stop5417" />
    </linearGradient>
    <linearGradient
       id="linearGradient5393">
      <stop
         style="stop-color:#d8ddde;stop-opacity:1;"
         offset="0"
         id="stop5395" />
      <stop
         style="stop-color:#fefefe;stop-opacity:1;"
         offset="1"
         id="stop5397" />
    </linearGradient>
    <linearGradient
       inkscape:collect="always"
       xlink:href="#linearGradient5393"
       id="linearGradient5403"
       x1="496.43796"
       y1="1039.2572"
       x2="496.43796"
       y2="69.48053"
       gradientUnits="userSpaceOnUse"
       gradientTransform="translate(0,-5.1835938e-6)" />
    <linearGradient
       inkscape:collect="always"
       xlink:href="#linearGradient5413"
       id="linearGradient5419"
       x1="496.43796"
       y1="1039.2572"
       x2="496.43796"
       y2="69.48053"
       gradientUnits="userSpaceOnUse"
       gradientTransform="translate(0,-5.1835938e-6)" />
  </defs>
  <sodipodi:namedview
     id="base"
     pagecolor="#ffffff"
     bordercolor="#666666"
     borderopacity="1.0"
     inkscape:pageopacity="0.0"
     inkscape:pageshadow="2"
     inkscape:zoom="0.49497475"
     inkscape:cx="917.43984"
     inkscape:cy="541.429"
     inkscape:document-units="px"
     inkscape:current-layer="layer1"
     showgrid="false"
     inkscape:window-width="1440"
     inkscape:window-height="852"
     inkscape:window-x="0"
     inkscape:window-y="0"
     inkscape:window-maximized="1" />
  <metadata
     id="metadata7">
    <rdf:RDF>
      <cc:Work
         rdf:about="">
        <dc:format>image/svg+xml</dc:format>
        <dc:type
           rdf:resource="http://purl.org/dc/dcmitype/StillImage" />
        <dc:title />
      </cc:Work>
    </rdf:RDF>
  </metadata>
  <g
     inkscape:label="Layer 1"
     inkscape:groupmode="layer"
     id="layer1"
     transform="translate(0,-52.362183)">
    <rect
       style="fill:url(#linearGradient5403);fill-opacity:1;stroke:url(#linearGradient5419);stroke-width:16;stroke-linejoin:round;stroke-miterlimit:4;stroke-opacity:1;stroke-dasharray:none"
       id="backdrop"
       width="950.66602"
       height="950.66602"
       x="24.666992"
       y="77.029175"
       ry="147.48227" />
    <path
       d="m 506.47386,487.97416 c -3.10386,-19.01111 -9.89356,-34.53044 -20.17509,-46.55788 -3.87981,-13.38538 -15.7133,-25.80084 -35.69436,-37.2463 l -10.08754,-6.20772 c -1.55194,-9.31157 -9.1176,-13.96737 -22.50298,-13.96737 l -19.39912,-2.32789 -3.87983,-2.32789 c -4.65577,1.55193 -8.72959,2.13389 -12.41542,1.9399 -0.96996,0 -2.13391,-0.19398 -3.10386,-0.38797 l -7.75965,-5.43175 c 13.57937,-16.68324 23.66693,-31.62058 30.26262,-45.00595 l 0,-24.83087 58.97331,-5.43176 c 6.01372,-1.35793 11.0575,-3.49184 15.5193,-6.20772 3.10386,-2.32789 5.43175,-9.11759 6.98368,-20.17508 0.77597,-4.84978 2.32789,-8.53561 4.65579,-10.86351 9.31157,-23.4729 13.57937,-40.54416 12.60942,-50.82568 0,-0.58197 0,-1.35794 -0.19399,-1.93991 -0.77596,-5.04376 -2.32789,-9.50558 -4.65579,-13.1914 -23.4729,-12.41542 -32.39653,0.58198 -36.47033,13.1914 l -10.86351,38.79823 c -3.10386,6.20772 -6.98368,10.86351 -11.63947,13.96736 l -27.15876,4.6558 c -3.10386,0 -5.62574,-0.19399 -7.75965,-0.77597 l -1.55193,-59.74928 c 0,-11.44547 -4.6558,-18.42916 -13.77337,-20.95104 -0.96996,-0.38799 -2.13391,-0.58198 -3.29785,-0.77597 -5.23776,0 -9.11759,0.58197 -11.63947,1.55193 -7.17766,8.92358 -11.63948,25.41287 -13.1914,49.66174 l -3.10386,27.15876 c 0,1.55193 -0.19399,2.52189 -0.77596,3.10386 -4.26781,-2.52188 -11.44549,-3.87983 -21.72701,-3.87983 -7.37167,0 -12.80343,-2.1339 -16.29526,-6.20771 l -3.87983,-39.5742 c 0.96996,-6.5957 2.1339,-11.25149 3.87983,-13.96736 l -11.63948,-16.29526 c -8.34161,-2.1339 -17.26521,1.55193 -24.0549,6.20772 l -5.81974,3.68582 -0.38797,0.194 c -7.17767,15.1313 -9.89355,30.06865 -7.95364,44.61797 0.38798,2.90987 0.96996,6.01373 1.74591,8.92359 3.68584,9.50555 7.56567,16.10127 11.63948,20.17508 1.55193,12.99739 11.05751,20.17509 28.71069,21.72701 l 30.26262,3.10386 c 9.31157,2.90986 13.77337,10.47554 13.1914,22.89095 0,0.38799 0,0.77597 0,1.16396 l -1.55192,10.86351 c 3.68581,4.46178 5.23775,11.83347 4.84977,22.50296 l -0.19399,2.3279 1.55193,12.41543 c 2.90986,4.4618 4.84978,7.17768 5.43174,7.75966 -5.23775,6.78968 -14.16136,10.08753 -27.15875,10.08753 -6.20771,-4.07381 -13.77338,0.58198 -19.39912,4.65579 l -6.98368,3.10386 c -2.1339,0 -4.65579,-0.96996 -7.75965,-3.10386 -7.37165,0 -14.54934,6.01374 -21.72701,17.84719 -7.75963,11.63946 -17.07123,17.07121 -27.93472,16.29526 -16.87722,12.22143 -26.3828,35.8884 -28.7107,71.38875 l -1.55192,35.69437 c 0.96995,8.3416 -2.13392,41.90211 -3.87982,61.30121 -1.55194,16.87721 -0.96996,31.23259 1.55192,43.06604 1.35794,6.4017 3.49185,11.83346 6.20772,16.68324 3.87981,48.49774 19.20515,79.73038 45.78191,93.89172 3.87983,1.93991 15.51931,4.84978 34.91841,8.53562 6.59569,1.35793 12.80342,3.87982 18.62315,7.75964 17.4592,2.52188 31.03859,1.74592 40.73814,-2.32788 4.4618,-1.74593 7.95365,-4.46181 10.47554,-7.75966 42.09604,-0.77596 77.20851,-19.98112 105.53119,-57.42138 -4.07382,-9.31157 1.74592,-26.18882 6.20772,-38.02228 3.10385,-5.43174 4.65578,-9.89354 4.65578,-13.19139 0,-26.57676 6.40172,-56.45146 19.39911,-90.0119 l -4.65578,-65.957 m 29.48665,-198.64695 c 3.68583,14.9373 15.9073,24.0549 36.47034,27.15876 15.90726,1.9399 27.35277,3.68583 34.14245,5.43175 1.55192,4.65579 1.93992,10.47554 0.96996,17.6532 -0.19399,2.13389 -0.58198,4.26781 -0.96996,6.4017 l 0,6.98368 6.98368,24.83088 c 1.74593,4.07381 5.23777,5.81973 10.08755,4.84977 1.16394,-0.19399 2.52189,-0.38797 3.87982,-0.96995 10.47552,-2.1339 17.26521,-12.02748 20.56307,-29.87464 0.19399,-0.58197 0.19399,-1.35794 0.38798,-1.93992 1.35793,-10.28151 2.52189,-18.04117 3.87982,-23.27893 l 36.47034,-2.3279 c 2.1339,-0.58196 5.23776,-1.74592 9.31157,-3.87982 9.31158,0.96995 17.26522,1.35794 23.66692,0.96995 4.07381,-0.38797 7.56566,-0.96995 10.47553,-1.74591 8.3416,-2.52189 15.71329,-7.17769 21.72701,-13.96736 4.0738,-43.84197 6.01373,-69.64284 5.43174,-77.59647 l -1.7459,-12.99741 c -0.194,-0.58198 -0.38799,-1.16395 -0.58198,-1.74593 l -10.86351,-10.8635 -7.75964,-1.55192 -3.87983,0 c -2.90986,7.75963 -7.95365,29.48668 -15.51929,65.18102 l -1.55193,6.9837 c -8.34161,8.3416 -22.69699,12.02744 -43.45402,11.05749 -1.35793,0 -2.52189,0 -3.87982,-0.19399 -3.68584,-0.58198 -7.75966,-0.77597 -12.41543,-0.77597 -0.96996,-5.62574 -0.77597,-16.29528 0.96995,-31.81455 0.58197,-4.46179 1.35794,-9.89355 2.1339,-16.29526 1.55192,-9.89354 1.74591,-18.62317 0.38798,-26.1888 -0.77596,-4.07382 -1.93991,-8.14765 -3.49183,-11.83347 0,-5.23776 -4.84979,-8.53561 -14.74333,-10.08754 -15.3253,7.95363 -23.86093,25.80085 -25.60684,53.54157 0,0.58196 0,0.96995 0,1.55192 l -3.87983,41.12613 -1.55193,4.65578 -30.26261,0 c -9.89354,-4.07381 -14.35535,-14.74334 -13.3854,-31.62056 0,-0.96995 0,-2.1339 0.19399,-3.29785 0.96995,-10.6695 1.35794,-19.20512 0.96995,-25.41284 -0.19398,-3.29785 -0.38797,-5.81973 -0.96995,-7.95364 0,-7.95363 -2.32789,-13.96737 -6.98368,-17.84719 l -7.75965,-3.87982 -3.10386,-0.77596 c -11.44546,9.89354 -16.68324,26.77081 -15.71328,51.01967 l 0.19399,3.29786 1.55193,33.36647 -0.77597,4.46181 0,0.19399 m 9.31158,234.34132 -2.32789,37.24631 c 0,3.10386 0.194,5.43175 0.77596,6.98369 l 0.77597,36.08234 0,0.38799 3.10386,23.27894 c 0,18.42914 -3.87983,48.88582 -11.63948,91.56383 3.68583,14.9373 9.50558,24.0549 17.07124,27.15876 6.78967,-0.96995 11.83346,-6.5957 14.74332,-17.07122 3.29784,-7.56565 6.01373,-12.22145 7.75964,-13.96736 l 11.63948,-233.56536 3.87982,-3.87983 c 3.10385,0 8.53562,-2.90987 16.29526,-8.53561 4.46179,-2.52188 8.53561,-3.49184 12.02745,-2.52188 0.96996,0.19399 1.74592,0.38797 2.71587,0.96995 7.17768,6.4017 10.47552,14.74333 9.50557,25.02486 l -0.19399,2.1339 -3.87982,13.19139 5.43175,68.2849 c 3.10386,7.37166 4.4618,25.02489 4.07382,52.95959 0,3.29784 0,6.98368 -0.194,10.66952 -0.58196,18.62313 0.77597,33.75447 3.87982,45.39393 1.74593,7.17766 4.46181,13.38539 7.75966,18.23516 8.34161,-0.58196 14.54934,-6.98369 19.01113,-18.81714 0.38798,-1.16394 0.77596,-2.32789 1.16395,-3.68583 l 4.65578,-12.99741 0,-0.19399 c 4.07381,-6.2077 2.3279,-18.04118 0.77597,-26.3828 -0.58198,-4.65578 -0.38798,-8.14763 0.58197,-10.47552 0.58197,-1.55193 1.35794,-2.71588 2.52189,-3.49184 -4.07382,-28.12869 -6.01373,-58.58537 -5.62575,-91.36984 0.194,-2.32789 0.194,-4.65579 0.194,-7.17767 0,-6.78968 0.58196,-18.42918 1.55192,-34.91841 l -7.75965,-20.17509 c 0,-4.07381 0.77597,-6.98367 2.3279,-8.5356 l 15.51929,0.77596 c 4.26781,1.74592 7.37168,3.49185 9.31158,5.43176 15.51928,36.2763 22.50298,79.9244 21.14504,130.94403 0,2.52188 0,5.23776 -0.19399,7.95363 l 0,12.41544 c 0.96995,7.17767 -2.13391,23.47294 -4.6558,35.69438 l -1.55192,13.96736 c -25.80079,30.26259 -67.31499,62.2712 -124.93032,96.21961 l -75.26857,45.78192 c -30.26258,20.17507 -55.0935,41.12615 -74.4926,62.85314 -11.44547,22.69695 -16.68324,44.03601 -15.71329,64.0171 0,0.96986 0,1.74589 0.19399,2.71585 l 0,3.10391 c 11.44547,2.13385 20.75707,-1.74599 27.93473,-6.20773 3.10386,-2.13395 5.23777,-3.6858 6.20772,-4.65576 9.11758,-5.4318 21.14505,-17.26525 35.69438,-35.69442 7.95362,-9.89354 14.16135,-16.29527 18.62315,-19.39912 l 35.69437,-29.48666 c 4.84978,-4.84978 7.95364,-9.31158 9.31157,-13.1914 l 76.04454,-45.00596 c 15.71327,-7.37165 30.65062,-12.22144 45.00596,-14.74332 l 47.33384,-36.47034 c 14.16134,3.10386 19.39912,-6.20773 22.50297,-13.96737 5.04377,-14.35533 9.50557,-23.47293 13.19141,-27.15875 l 2.32789,-2.3279 c 1.55193,-10.6695 3.10386,-50.63176 4.65579,-119.49856 0,-10.28153 0.58196,-22.309 1.55192,-35.69437 l -12.41542,-65.18103 c -7.75965,-24.24888 -20.17511,-40.73816 -37.24631,-49.66175 -28.90466,-14.54931 -64.21111,-6.01371 -90.0119,2.32791 -3.10386,0.96995 -6.98369,2.13389 -11.63948,3.87982 -10.08753,2.32788 -19.39911,-2.32791 -27.93472,-13.96737 -8.53561,-12.41542 -16.29527,-20.17509 -23.27895,-23.27894 -8.53559,1.55193 -13.19139,7.56566 -13.96736,17.84719 -0.77596,9.89353 -1.74592,16.29525 -3.10386,19.39912 0.96996,7.17766 -4.65579,14.74333 -10.08753,20.17507 -6.20772,4.84978 -8.53562,10.86352 -6.98369,17.6532 0.19399,1.55192 0.77597,3.10386 1.55193,4.84978 12.9974,6.78969 18.81714,20.95107 17.45921,42.09608 l -0.38799,3.68583 m -103.2033,13.96737 c -10.08753,-10.08753 -19.98109,-30.26265 -29.48666,-60.52525 -6.20771,-16.48923 -9.89355,-25.80082 -10.8635,-27.93472 l -1.55193,-20.17509 c 11.05749,0 19.59312,2.32791 25.60684,6.98368 6.78968,4.4618 11.63947,11.05752 14.74333,19.39912 5.43174,12.41543 10.08754,36.47038 13.96736,72.16472 l 1.55193,10.08754 c -2.3279,1.55193 -5.23777,2.3279 -8.53561,2.3279 l -5.43176,-2.3279 m -9.31157,130.36206 c -1.55193,0.58198 -3.10386,0.38799 -4.84978,-0.58196 -0.38798,-0.194 -0.77597,-0.58199 -1.35794,-0.96997 l -54.31752,-69.06085 -0.77597,-0.77596 c -13.77336,2.13389 -34.33647,12.99742 -61.30121,32.59051 -18.62313,14.9373 -33.94846,24.0549 -45.78191,27.15876 -6.78968,-7.37165 -9.31158,-19.39913 -7.56566,-36.08236 0.19399,-3.10385 0.77597,-6.40171 1.35794,-9.69956 1.55192,-6.2077 2.3279,-10.86351 2.3279,-13.96735 32.78447,-25.02485 54.12353,-44.03602 64.40506,-57.42139 13.96735,-17.65318 20.75705,-36.27637 20.17508,-56.06345 0,-0.38798 0,-0.77597 0,-1.35793 4.84977,-3.29786 7.75965,-11.05751 8.53562,-23.27895 0,-8.72959 2.1339,-15.3253 6.20771,-19.39911 l 9.31158,28.71069 2.32789,3.87983 c -2.52189,12.99739 -1.35794,25.41284 3.49184,37.63428 2.32789,6.01372 5.62575,11.83347 9.69956,17.4592 5.43175,6.40171 10.66952,11.25149 15.51929,14.74333 -1.55193,6.20771 1.55193,13.1914 9.31158,20.95105 4.65578,4.65578 6.78969,9.11759 6.40171,13.1914 -0.19399,0.19399 -0.19399,0.58197 -0.19399,0.77596 1.74591,7.75964 8.9236,19.98111 21.72701,36.47034 11.44546,13.77336 15.71328,26.18882 12.80342,37.2463 -0.58198,2.5219 -1.35795,4.84979 -2.71588,6.98368 -0.96996,2.13391 -1.55194,3.10386 -1.55194,3.10386 l -13.19139,7.75965 M 268.2527,484.09434 c -8.3416,-17.65318 5.43177,-26.38281 17.07124,-31.03858 5.81972,-2.52189 12.22144,-3.87983 19.3991,-3.87983 0,35.50034 -13.38541,71.77676 -40.35015,108.63505 -4.07382,-10.28153 -1.74592,-28.71071 1.55192,-44.22999 2.1339,-11.05748 2.90987,-19.98109 2.52189,-26.96477 0,-0.96995 0,-1.74592 -0.194,-2.52188 m 21.72701,223.47782 c -3.10385,-1.55193 -7.75964,-4.46179 -13.96736,-8.53561 26.96475,-32.2025 54.89954,-53.34758 83.80419,-63.62911 l 6.20771,14.74333 c 12.9974,18.62314 20.36908,31.03859 22.50298,37.24631 1.55193,5.43174 2.32789,10.86351 2.32789,16.29525 -9.31156,-0.96995 -17.6532,5.62576 -23.27894,12.41544 -7.17766,7.17767 -14.16135,10.47552 -20.95104,9.50556 -0.58198,0 -0.96996,0 -1.55193,-0.19399 l -55.0935,-17.84718"
       id="mou-text"
       inkscape:connector-curvature="0" />
  </g>
</svg>
