<?xml version="1.0" standalone="no"?>
<!DOCTYPE svg PUBLIC "-//W3C//DTD SVG 1.1//EN" "http://www.w3.org/Graphics/SVG/1.1/DTD/svg11.dtd" >
<svg>
<metadata>
Created by FontForge 20120731 at Tue Oct 22 03:15:19 2013
 By 唐鳳
copyright missing
</metadata>
<defs>
<font id="FiraSansOT-Regular" horiz-adv-x="560" >
  <font-face 
    font-family="Fira Sans OT"
    font-weight="400"
    font-stretch="normal"
    units-per-em="1000"
    panose-1="0 0 5 0 0 0 0 0 0 0"
    ascent="785"
    descent="-215"
    x-height="527"
    cap-height="689"
    bbox="-678 -500 1360 1050"
    underline-thickness="50"
    underline-position="-50"
    stemh="72"
    stemv="77"
    unicode-range="U+000D-F0075"
  />
<missing-glyph horiz-adv-x="666" 
d="M123 -500v1550h420v-1550h-420zM178 -448h311v1446h-311v-1446zM340 218v-45c0 -15 -13 -24 -25 -24c-13 0 -25 9 -25 24v84c72 4 91 24 91 77c0 39 -11 69 -61 69c-21 0 -35 -3 -52 -11c-5 -2 -9 -3 -13 -3c-15 0 -24 10 -24 23c0 27 54 39 93 39c86 0 111 -55 111 -115
c0 -70 -28 -108 -95 -118zM280 85c0 20 15 35 35 35s35 -15 35 -35c0 -21 -15 -37 -35 -37s-35 16 -35 37z" />
    <glyph glyph-name="fi" unicode="fi" horiz-adv-x="585" 
d="M491 0h-91v456h-203v-456h-92v456h-84v71h84v69c0 89 54 154 182 154c60 0 104 -14 146 -36l-32 -64c-33 16 -70 25 -110 25c-75 0 -94 -28 -94 -78v-70h294v-527z" />
    <glyph glyph-name="fl" unicode="fl" horiz-adv-x="596" 
d="M558 71l23 -65c-22 -11 -48 -18 -75 -18c-59 0 -107 34 -107 116v554c-34 12 -71 17 -106 17c-76 0 -96 -28 -96 -78v-70h121l-11 -71h-110v-456h-92v456h-84v71h84v69c0 89 55 154 184 154c41 0 76 -7 113 -19l88 17v-642c0 -30 10 -42 34 -42c12 0 23 3 34 7z" />
    <glyph glyph-name=".notdef" horiz-adv-x="666" 
d="M123 -500v1550h420v-1550h-420zM178 -448h311v1446h-311v-1446zM340 218v-45c0 -15 -13 -24 -25 -24c-13 0 -25 9 -25 24v84c72 4 91 24 91 77c0 39 -11 69 -61 69c-21 0 -35 -3 -52 -11c-5 -2 -9 -3 -13 -3c-15 0 -24 10 -24 23c0 27 54 39 93 39c86 0 111 -55 111 -115
c0 -70 -28 -108 -95 -118zM280 85c0 20 15 35 35 35s35 -15 35 -35c0 -21 -15 -37 -35 -37s-35 16 -35 37z" />
    <glyph glyph-name="space" unicode=" " horiz-adv-x="265" 
 />
    <glyph glyph-name="exclam" unicode="!" horiz-adv-x="265" 
d="M63 58c0 38 30 69 69 69c40 0 70 -31 70 -69c0 -39 -30 -70 -70 -70c-39 0 -69 31 -69 70zM172 230h-81l-11 459h102z" />
    <glyph glyph-name="quotedbl" unicode="&#x22;" horiz-adv-x="455" 
d="M187 427h-68l-31 262h99v-262zM367 427h-68l-31 262h99v-262z" />
    <glyph glyph-name="numbersign" unicode="#" horiz-adv-x="500" 
d="M497 435h-86l-26 -199h79v-69h-89l-21 -167h-78l22 167h-140l-22 -167h-78l22 167h-77v69h86l27 199h-80v70h89l21 164h78l-22 -164h141l21 164h78l-22 -164h77v-70zM193 435l-26 -199h140l27 199h-141z" />
    <glyph glyph-name="dollar" unicode="$" horiz-adv-x="503" 
d="M481 186c0 -107 -68 -180 -194 -192v-148h-79v147c-78 7 -146 36 -194 83l53 58c46 -44 98 -70 173 -70c80 0 145 38 145 119c0 65 -31 93 -144 128c-131 41 -201 99 -201 194c0 91 67 155 169 168v152h78v-150c72 -6 126 -32 173 -76l-53 -56c-46 43 -95 60 -152 60
c-67 0 -120 -29 -120 -95c0 -56 28 -82 149 -120c107 -33 197 -76 197 -202z" />
    <glyph glyph-name="percent" unicode="%" horiz-adv-x="850" 
d="M689 669l-463 -697l-64 39l462 697zM156 510c0 -52 17 -107 81 -107c65 0 81 53 81 107c0 52 -16 107 -81 107c-64 0 -81 -53 -81 -107zM400 510c0 -104 -69 -169 -163 -169c-93 0 -162 65 -162 169s69 169 162 169c94 0 163 -65 163 -169zM532 157
c0 -52 17 -107 81 -107c65 0 81 53 81 107c0 52 -16 106 -81 106c-64 0 -81 -52 -81 -106zM775 157c0 -104 -68 -169 -162 -169s-163 65 -163 169s69 169 163 169s162 -65 162 -169z" />
    <glyph glyph-name="ampersand" unicode="&#x26;" horiz-adv-x="777" 
d="M592 369l86 -25c-26 -85 -58 -151 -92 -202l159 -142h-121l-90 79c-67 -67 -142 -91 -214 -91c-146 0 -228 72 -228 187c0 86 45 145 130 199c-64 58 -105 102 -105 168c0 91 63 159 184 159c112 0 187 -63 187 -151c0 -86 -66 -139 -140 -183l177 -172
c29 48 51 107 67 174zM320 61c60 0 115 25 158 69l-201 195c-67 -43 -91 -84 -91 -144c0 -74 48 -120 134 -120zM207 541c0 -46 35 -81 86 -126c63 38 104 76 104 127c0 56 -37 91 -95 91c-63 0 -95 -37 -95 -92z" />
    <glyph glyph-name="quoteright" unicode="&#x2019;" horiz-adv-x="255" 
d="M68 700c0 35 30 63 65 63c36 0 65 -28 65 -63c0 -16 -4 -30 -17 -58l-67 -142h-57l34 153c-14 10 -23 27 -23 47z" />
    <glyph glyph-name="parenleft" unicode="(" horiz-adv-x="325" 
d="M136 350c0 -214 58 -322 151 -452l-58 -40c-101 136 -189 255 -189 492s88 356 189 492l58 -40c-93 -130 -151 -237 -151 -452z" />
    <glyph glyph-name="parenright" unicode=")" horiz-adv-x="325" 
d="M189 350c0 215 -58 322 -151 452l58 40c101 -136 189 -255 189 -492s-88 -356 -189 -492l-58 40c93 130 151 238 151 452z" />
    <glyph glyph-name="asterisk" unicode="*" horiz-adv-x="440" 
d="M265 738l-16 -153l140 60l27 -85l-147 -32l105 -109l-73 -55l-80 130l-75 -132l-75 51l101 115l-148 32l27 85l139 -60l-15 153h90z" />
    <glyph glyph-name="plus" unicode="+" horiz-adv-x="500" 
d="M62 349h145v150h84v-150h146v-76h-146v-149h-84v149h-145v76z" />
    <glyph glyph-name="comma" unicode="," horiz-adv-x="265" 
d="M63 58c0 38 30 69 69 69c40 0 70 -31 70 -69c0 -22 -5 -42 -18 -71l-67 -153h-66l40 166c-17 13 -28 34 -28 58z" />
    <glyph glyph-name="hyphen" unicode="-" horiz-adv-x="405" 
d="M344 274h-283v78h283v-78z" />
    <glyph glyph-name="period" unicode="." horiz-adv-x="265" 
d="M63 58c0 38 30 69 69 69c40 0 70 -31 70 -69c0 -39 -30 -70 -70 -70c-39 0 -69 31 -69 70z" />
    <glyph glyph-name="slash" unicode="/" horiz-adv-x="520" 
d="M415 792l-231 -896l-79 19l232 895z" />
    <glyph glyph-name="zero" unicode="0" 
d="M152 334c0 -197 44 -273 128 -273c83 0 128 76 128 273c0 196 -45 272 -128 272c-84 0 -128 -76 -128 -272zM504 334c0 -222 -74 -346 -224 -346s-224 124 -224 346s74 345 224 345s224 -124 224 -345z" />
    <glyph glyph-name="one" unicode="1" horiz-adv-x="400" 
d="M302 0h-92v568l-149 -93l-43 64l203 130h81v-669z" />
    <glyph glyph-name="two" unicode="2" horiz-adv-x="507" 
d="M431 490c0 -119 -80 -218 -285 -413h301l-11 -77h-395v73c236 236 294 310 294 414c0 75 -45 116 -110 116c-56 0 -93 -22 -136 -73l-62 48c54 67 119 101 203 101c123 0 201 -79 201 -189z" />
    <glyph glyph-name="three" unicode="3" horiz-adv-x="502" 
d="M445 193c0 -117 -89 -205 -228 -205c-80 0 -150 29 -203 92l61 50c39 -47 85 -67 139 -67c84 0 135 52 135 131c0 92 -52 120 -133 120h-43l11 71h27c66 0 121 40 121 118c0 63 -44 102 -111 102c-53 0 -93 -18 -138 -60l-48 55c57 53 120 79 191 79
c128 0 198 -80 198 -170c0 -83 -56 -138 -125 -152l1 -4c76 -7 145 -61 145 -160z" />
    <glyph glyph-name="four" unicode="4" horiz-adv-x="524" 
d="M491 165h-87v-165h-89v165h-278v66l193 448l77 -32l-173 -409h181l9 180h80v-180h87v-73z" />
    <glyph glyph-name="five" unicode="5" horiz-adv-x="515" 
d="M464 214c0 -131 -92 -226 -231 -226c-79 0 -146 26 -200 90l63 51c39 -46 83 -66 136 -66c84 0 137 61 137 153c0 103 -53 139 -122 139c-31 0 -58 -8 -90 -23h-72v337h360l-11 -72h-261v-193c35 17 70 22 102 22c113 0 189 -79 189 -212z" />
    <glyph glyph-name="six" unicode="6" horiz-adv-x="535" 
d="M441 639l-39 -62c-29 21 -64 29 -97 29c-94 0 -152 -101 -156 -254c43 62 98 88 155 88c98 0 184 -68 184 -213c0 -146 -95 -239 -210 -239c-160 0 -222 134 -222 330c0 215 95 361 250 361c52 0 97 -13 135 -40zM287 367c-55 0 -105 -38 -138 -93
c4 -145 43 -213 129 -213c76 0 117 65 117 163c0 106 -46 143 -108 143z" />
    <glyph glyph-name="seven" unicode="7" horiz-adv-x="443" 
d="M414 600l-250 -610l-85 26l242 578h-296v75h389v-69z" />
    <glyph glyph-name="eight" unicode="8" horiz-adv-x="556" 
d="M481 509c0 -61 -38 -111 -114 -150c89 -38 141 -97 141 -180c0 -111 -96 -191 -232 -191c-138 0 -229 79 -229 189c0 83 50 138 132 174c-72 36 -104 88 -104 156c0 123 113 172 203 172c100 0 203 -50 203 -170zM412 178c0 89 -65 111 -172 149
c-52 -25 -97 -67 -97 -150c0 -73 50 -116 133 -116c84 0 136 52 136 117zM165 506c0 -71 50 -97 140 -125c60 34 86 69 86 125c0 62 -43 104 -113 104c-69 0 -113 -37 -113 -104z" />
    <glyph glyph-name="nine" unicode="9" horiz-adv-x="534" 
d="M121 -22l-21 69c164 46 272 134 283 269l-2 1c-30 -41 -83 -74 -151 -74c-103 0 -183 82 -183 215c0 140 98 221 214 221c135 0 216 -104 216 -260c0 -267 -110 -370 -356 -441zM251 315c57 0 101 32 133 82c0 154 -49 209 -124 209c-72 0 -120 -54 -120 -150
s48 -141 111 -141z" />
    <glyph glyph-name="colon" unicode=":" horiz-adv-x="265" 
d="M63 58c0 38 30 69 69 69c40 0 70 -31 70 -69c0 -39 -30 -70 -70 -70c-39 0 -69 31 -69 70zM63 431c0 38 30 69 69 69c40 0 70 -31 70 -69c0 -39 -30 -70 -70 -70c-39 0 -69 31 -69 70z" />
    <glyph glyph-name="semicolon" unicode=";" horiz-adv-x="265" 
d="M63 58c0 38 30 69 69 69c40 0 70 -31 70 -69c0 -22 -5 -42 -18 -71l-67 -153h-66l40 166c-17 13 -28 34 -28 58zM63 431c0 38 30 69 69 69c40 0 70 -31 70 -69c0 -39 -30 -70 -70 -70c-39 0 -69 31 -69 70z" />
    <glyph glyph-name="less" unicode="&#x3c;" horiz-adv-x="500" 
d="M419 115l-357 171v94l357 171l36 -73l-320 -145l320 -142z" />
    <glyph glyph-name="equal" unicode="=" horiz-adv-x="500" 
d="M438 176h-376v78h376v-78zM438 368h-376v78h376v-78z" />
    <glyph glyph-name="greater" unicode="&#x3e;" horiz-adv-x="500" 
d="M81 551l357 -171v-94l-357 -171l-36 74l320 144l-320 142z" />
    <glyph glyph-name="question" unicode="?" horiz-adv-x="507" 
d="M261 263v-33h-91v38c0 163 176 161 176 271c0 55 -39 86 -104 86c-47 0 -95 -22 -136 -72l-64 48c58 68 126 100 209 100c126 0 191 -76 191 -156c0 -160 -181 -139 -181 -282zM149 58c0 38 30 69 69 69c40 0 70 -31 70 -69c0 -39 -30 -70 -70 -70c-39 0 -69 31 -69 70z
" />
    <glyph glyph-name="at" unicode="@" horiz-adv-x="1020" 
d="M718 -103l25 -71c-66 -23 -127 -39 -218 -39c-269 0 -455 176 -455 453c0 261 174 461 464 461c273 0 416 -185 416 -394c0 -163 -62 -298 -197 -298c-83 0 -118 57 -127 100h-4c-19 -47 -62 -95 -141 -95c-110 0 -173 85 -173 217c0 173 92 261 218 261
c54 0 101 -10 157 -40v-284c0 -67 30 -88 68 -88c68 0 106 69 106 225c0 193 -116 320 -323 320c-243 0 -371 -164 -371 -385s130 -377 363 -377c75 0 138 15 192 34zM529 426c-87 0 -131 -66 -131 -195c0 -97 32 -150 94 -150c69 0 97 57 108 86v242c-20 10 -41 17 -71 17z
" />
    <glyph glyph-name="A" unicode="A" horiz-adv-x="579" 
d="M473 0l-53 173h-265l-53 -173h-96l224 689h120l223 -689h-100zM286 603l-108 -353h219l-107 353h-4z" />
    <glyph glyph-name="B" unicode="B" horiz-adv-x="626" 
d="M468 195c0 101 -65 129 -144 129h-124v-248h120c67 0 148 20 148 119zM441 509c0 76 -50 105 -132 105h-109v-217h117c80 0 124 34 124 112zM568 197c0 -151 -132 -197 -261 -197h-202v689h187c123 0 246 -39 246 -174c0 -88 -62 -134 -120 -147v-4
c69 -13 150 -53 150 -167z" />
    <glyph glyph-name="C" unicode="C" horiz-adv-x="571" 
d="M353 68c72 0 116 29 150 59l49 -62c-43 -41 -107 -77 -203 -77c-166 0 -287 125 -287 357s132 356 286 356c88 0 140 -24 194 -68l-52 -61c-42 35 -87 51 -136 51c-102 0 -191 -71 -191 -278c0 -199 83 -277 190 -277z" />
    <glyph glyph-name="D" unicode="D" horiz-adv-x="656" 
d="M493 348c0 234 -116 265 -213 265h-80v-538h81c101 0 212 50 212 273zM594 348c0 -285 -175 -348 -324 -348h-165v689h154c166 0 335 -55 335 -341z" />
    <glyph glyph-name="E" unicode="E" horiz-adv-x="540" 
d="M467 613h-267v-225h232v-76h-232v-236h286v-76h-381v689h373z" />
    <glyph glyph-name="F" unicode="F" horiz-adv-x="496" 
d="M460 613h-260v-235h225v-75h-225v-303h-95v689h366z" />
    <glyph glyph-name="G" unicode="G" horiz-adv-x="638" 
d="M344 -12c-171 0 -282 119 -282 357c0 237 148 356 300 356c95 0 151 -27 206 -77l-56 -58c-42 39 -89 57 -149 57c-101 0 -200 -70 -200 -278c0 -198 67 -279 188 -279c46 0 92 9 131 32v204h-130l-11 77h235v-330c-63 -37 -135 -61 -232 -61z" />
    <glyph glyph-name="H" unicode="H" horiz-adv-x="680" 
d="M575 0h-95v323h-280v-323h-95v689h95v-288h280v288h95v-689z" />
    <glyph glyph-name="I" unicode="I" horiz-adv-x="306" 
d="M201 0h-96v689h96v-689z" />
    <glyph glyph-name="J" unicode="J" horiz-adv-x="308" 
d="M29 -139l-24 74c89 35 108 73 108 165v589h95v-593c0 -142 -69 -198 -179 -235z" />
    <glyph glyph-name="K" unicode="K" horiz-adv-x="594" 
d="M200 689v-689h-95v689h95zM477 0l-272 368l262 321h108l-261 -315l280 -374h-117z" />
    <glyph glyph-name="L" unicode="L" horiz-adv-x="503" 
d="M472 0h-367v689h95v-606h283z" />
    <glyph glyph-name="M" unicode="M" horiz-adv-x="796" 
d="M734 0h-92l-30 353c-8 97 -11 207 -11 229h-4l-154 -509h-91l-160 509h-4c0 -23 -2 -140 -9 -229l-27 -353h-90l57 689h128l151 -503h4l146 503h129z" />
    <glyph glyph-name="N" unicode="N" horiz-adv-x="689" 
d="M584 0h-129l-270 583h-4c2 -16 13 -139 13 -247v-336h-89v689h126l273 -586h4c-2 16 -13 126 -13 250v336h89v-689z" />
    <glyph glyph-name="O" unicode="O" horiz-adv-x="696" 
d="M634 344c0 -230 -117 -356 -286 -356s-286 121 -286 355c0 230 117 358 286 358s286 -123 286 -357zM533 344c0 202 -73 279 -185 279s-185 -78 -185 -280s76 -277 185 -277c112 0 185 76 185 278z" />
    <glyph glyph-name="P" unicode="P" horiz-adv-x="586" 
d="M453 475c0 103 -66 140 -158 140h-95v-287h95c91 0 158 29 158 147zM554 476c0 -161 -111 -223 -267 -223h-87v-253h-95v689h180c167 0 269 -68 269 -213z" />
    <glyph glyph-name="Q" unicode="Q" horiz-adv-x="696" 
d="M533 344c0 202 -73 279 -185 279s-185 -78 -185 -280s76 -277 185 -277c112 0 185 76 185 278zM634 344c0 -151 -47 -251 -141 -301l1 -4c86 0 145 -28 194 -62l-62 -80c-78 70 -150 93 -275 93c-172 0 -289 119 -289 353c0 230 117 358 286 358s286 -123 286 -357z" />
    <glyph glyph-name="R" unicode="R" horiz-adv-x="607" 
d="M548 494c0 -103 -72 -166 -165 -190l202 -304h-113l-184 292h-88v-292h-95v689h181c172 0 262 -66 262 -195zM447 494c0 86 -49 121 -152 121h-95v-250h96c96 0 151 36 151 129z" />
    <glyph glyph-name="S" unicode="S" horiz-adv-x="545" 
d="M507 192c0 -120 -91 -204 -244 -204c-101 0 -179 33 -236 89l55 61c47 -45 103 -72 178 -72c81 0 148 40 148 123c0 65 -33 97 -149 133c-134 41 -204 92 -204 199c0 106 88 180 217 180c96 0 157 -28 213 -80l-54 -60c-48 44 -97 62 -155 62c-69 0 -124 -32 -124 -98
c0 -58 27 -86 151 -124c110 -34 204 -77 204 -209z" />
    <glyph glyph-name="T" unicode="T" horiz-adv-x="517" 
d="M499 608h-190v-608h-95v608h-198v81h493z" />
    <glyph glyph-name="U" unicode="U" horiz-adv-x="672" 
d="M577 689v-465c0 -140 -87 -236 -242 -236c-157 0 -240 96 -240 236v465h95v-461c0 -107 47 -160 145 -160c99 0 146 53 146 160v461h96z" />
    <glyph glyph-name="V" unicode="V" horiz-adv-x="585" 
d="M293 109h4l177 580h96l-226 -689h-102l-227 689h102z" />
    <glyph glyph-name="W" unicode="W" horiz-adv-x="830" 
d="M805 689l-140 -689h-124l-126 558h-4l-127 -558h-119l-140 689h93l109 -597h4l133 597h101l136 -594h4l113 594h87z" />
    <glyph glyph-name="X" unicode="X" horiz-adv-x="555" 
d="M217 367l-194 322h108l142 -256h4l148 256h102l-197 -317l220 -372h-108l-167 302h-4l-164 -302h-102z" />
    <glyph glyph-name="Y" unicode="Y" horiz-adv-x="550" 
d="M545 689l-222 -424v-265h-96v264l-222 425h105l166 -337h4l166 337h99z" />
    <glyph glyph-name="Z" unicode="Z" horiz-adv-x="521" 
d="M478 612l-341 -531h341l-11 -81h-436v76l344 533h-308v80h411v-77z" />
    <glyph glyph-name="bracketleft" unicode="[" horiz-adv-x="325" 
d="M274 -116h-207v932h207v-77h-120v-779h120v-76z" />
    <glyph glyph-name="backslash" unicode="\" horiz-adv-x="520" 
d="M336 -104l-231 896l78 18l232 -895z" />
    <glyph glyph-name="bracketright" unicode="]" horiz-adv-x="325" 
d="M258 -116h-207v76h120v779h-120v77h207v-932z" />
    <glyph glyph-name="asciicircum" unicode="^" horiz-adv-x="520" 
d="M30 527l189 313h82l189 -313h-98l-133 233l-132 -233h-97z" />
    <glyph glyph-name="underscore" unicode="_" horiz-adv-x="520" 
d="M503 -142h-486v79h486v-79z" />
    <glyph glyph-name="quoteleft" unicode="&#x2018;" horiz-adv-x="255" 
d="M184 563c0 -35 -29 -63 -65 -63s-64 28 -64 63c0 15 3 30 16 58l67 142h57l-34 -153c14 -10 23 -27 23 -47z" />
    <glyph glyph-name="a" unicode="a" horiz-adv-x="546" 
d="M453 367v-248c0 -42 12 -57 39 -67l-22 -64c-47 6 -81 27 -97 74c-37 -50 -93 -74 -157 -74c-106 0 -171 65 -171 163c0 109 88 170 248 170h68v41c0 74 -37 102 -114 102c-35 0 -84 -8 -138 -27l-24 68c65 24 124 34 176 34c134 0 192 -65 192 -172zM241 57
c50 0 90 27 120 73v130h-63c-113 0 -152 -41 -152 -105c0 -65 29 -98 95 -98z" />
    <glyph glyph-name="b" unicode="b" horiz-adv-x="592" 
d="M190 750v-290c38 50 89 79 149 79c140 0 196 -109 196 -275c0 -160 -72 -276 -208 -276c-60 0 -107 21 -142 66l-6 -54h-81v739zM305 61c84 0 131 65 131 203c0 137 -41 202 -119 202c-56 0 -99 -40 -127 -82v-257c27 -41 68 -66 115 -66z" />
    <glyph glyph-name="c" unicode="c" horiz-adv-x="476" 
d="M293 66c38 0 72 11 115 43l44 -63c-49 -40 -104 -58 -160 -58c-157 0 -235 108 -235 273c0 159 80 278 236 278c56 0 110 -16 159 -57l-45 -60c-43 32 -76 41 -114 41c-85 0 -137 -65 -137 -202c0 -138 52 -195 137 -195z" />
    <glyph glyph-name="d" unicode="d" horiz-adv-x="596" 
d="M289 466c-84 0 -133 -66 -133 -203c0 -139 44 -202 123 -202c56 0 99 38 127 81v259c-28 41 -70 65 -117 65zM265 539c59 0 106 -21 141 -61v272l92 -11v-739h-81l-8 68c-38 -54 -92 -80 -151 -80c-136 0 -201 109 -201 275c0 159 78 276 208 276z" />
    <glyph glyph-name="e" unicode="e" horiz-adv-x="546" 
d="M491 232h-336c8 -117 62 -169 142 -169c48 0 87 12 132 49l42 -61c-49 -39 -108 -63 -176 -63c-157 0 -238 111 -238 275c0 159 83 276 223 276c138 0 213 -99 213 -260c0 -18 -1 -35 -2 -47zM280 466c-72 0 -118 -53 -125 -166h247c-2 109 -40 166 -122 166z" />
    <glyph glyph-name="f" unicode="f" horiz-adv-x="336" 
d="M270 750c50 0 84 -9 126 -27l-29 -67c-34 15 -65 20 -92 20c-58 0 -78 -25 -78 -76v-73h128l-10 -71h-118v-456h-92v456h-84v71h84v72c0 88 58 151 165 151z" />
    <glyph glyph-name="g" unicode="g" horiz-adv-x="526" 
d="M193 184c-12 -11 -22 -29 -22 -48c0 -24 15 -43 57 -43h73c127 0 200 -52 200 -148c0 -110 -109 -158 -244 -158c-156 0 -226 53 -226 156v4h83c0 -70 57 -88 143 -88c117 0 151 36 151 81c0 44 -21 76 -112 76h-70c-85 0 -140 40 -140 103c0 32 19 65 52 89
c-53 31 -83 82 -83 146c0 104 77 185 206 185c115 0 180 21 238 47l27 -83c-44 -14 -94 -16 -148 -16v-4c52 -24 84 -70 84 -130c0 -102 -74 -178 -199 -178c-24 0 -47 3 -70 9zM149 354c0 -69 40 -118 112 -118s110 47 110 119c0 75 -36 118 -110 118
c-73 0 -112 -51 -112 -119z" />
    <glyph glyph-name="h" unicode="h" horiz-adv-x="589" 
d="M190 0h-92v738l92 10v-288c42 50 100 79 162 79c102 0 143 -58 143 -156v-383h-92v377c0 63 -22 90 -82 90c-57 0 -103 -44 -131 -85v-382z" />
    <glyph glyph-name="i" unicode="i" horiz-adv-x="279" 
d="M204 710c0 -36 -27 -63 -65 -63s-64 27 -64 63c0 35 26 62 64 62s65 -27 65 -62zM185 0h-92v527h92v-527z" />
    <glyph glyph-name="j" unicode="j" horiz-adv-x="279" 
d="M25 -212l-34 67c69 32 102 58 102 171v501h92v-495c0 -152 -55 -197 -160 -244zM204 710c0 -36 -27 -63 -65 -63s-64 27 -64 63c0 35 26 62 64 62s65 -27 65 -62z" />
    <glyph glyph-name="k" unicode="k" horiz-adv-x="515" 
d="M190 0h-92v739l92 11v-750zM405 0l-209 288l197 239h103l-197 -233l216 -294h-110z" />
    <glyph glyph-name="l" unicode="l" horiz-adv-x="290" 
d="M247 70l24 -64c-23 -11 -48 -18 -75 -18c-63 0 -108 36 -108 126v625l92 11v-644c0 -30 10 -42 33 -42c13 0 24 2 34 6z" />
    <glyph glyph-name="m" unicode="m" horiz-adv-x="864" 
d="M190 0h-92v527h79l7 -72c42 54 98 84 156 84c72 0 113 -30 130 -84c42 51 101 84 160 84c101 0 140 -58 140 -156v-383h-92v371c0 68 -19 96 -73 96c-50 0 -97 -42 -125 -85v-382h-92v378c0 63 -21 89 -73 89c-50 0 -97 -42 -125 -85v-382z" />
    <glyph glyph-name="n" unicode="n" horiz-adv-x="589" 
d="M190 382v-382h-92v527h79l7 -72c43 54 106 84 168 84c102 0 143 -58 143 -156v-383h-92v377c0 63 -22 90 -82 90c-57 0 -103 -44 -131 -85z" />
    <glyph glyph-name="o" unicode="o" horiz-adv-x="584" 
d="M428 264c0 137 -48 201 -135 201c-88 0 -137 -64 -137 -202c0 -137 48 -201 136 -201s136 64 136 202zM57 263c0 163 86 276 236 276s234 -108 234 -275c0 -163 -86 -276 -235 -276c-150 0 -235 108 -235 275z" />
    <glyph glyph-name="p" unicode="p" horiz-adv-x="592" 
d="M190 -202l-92 -11v740h79l7 -72c39 54 95 84 156 84c140 0 195 -109 195 -275c0 -160 -71 -276 -207 -276c-57 0 -104 19 -138 60v-250zM306 63c84 0 130 63 130 201c0 137 -40 202 -119 202c-56 0 -99 -40 -127 -82v-257c27 -41 68 -64 116 -64z" />
    <glyph glyph-name="q" unicode="q" horiz-adv-x="596" 
d="M289 466c-84 0 -133 -66 -133 -203c0 -136 45 -200 123 -200c56 0 99 36 127 79v259c-27 41 -69 65 -117 65zM498 527v-740l-92 11v266c-38 -52 -90 -76 -148 -76c-141 0 -201 109 -201 275c0 159 78 276 209 276c62 0 111 -24 146 -68l7 56h79z" />
    <glyph glyph-name="r" unicode="r" horiz-adv-x="384" 
d="M190 0h-92v527h80l11 -101c30 74 76 113 138 113c17 0 36 -2 52 -6l-17 -90c-16 4 -27 6 -46 6c-66 0 -108 -67 -126 -140v-309z" />
    <glyph glyph-name="s" unicode="s" horiz-adv-x="474" 
d="M223 62c67 0 111 31 111 80c0 52 -25 72 -129 98c-95 24 -156 65 -156 151c0 89 86 148 197 148c72 0 127 -22 170 -53l-41 -62c-38 26 -77 42 -133 42c-57 0 -98 -27 -98 -69c0 -45 33 -62 122 -86c93 -26 167 -60 167 -162c0 -113 -103 -161 -208 -161
c-89 0 -153 29 -199 69l51 58c41 -34 90 -53 146 -53z" />
    <glyph glyph-name="t" unicode="t" horiz-adv-x="367" 
d="M330 87l35 -63c-32 -24 -74 -36 -118 -36c-98 0 -142 62 -142 153v316h-84v70h84v119l92 11v-130h133l-11 -70h-122v-315c0 -53 17 -78 63 -78c23 0 44 7 70 23z" />
    <glyph glyph-name="u" unicode="u" horiz-adv-x="582" 
d="M93 527h92v-372c0 -68 21 -95 78 -95c54 0 101 37 129 81v386h92v-527h-79l-7 70c-41 -53 -99 -82 -160 -82c-101 0 -145 58 -145 156v383z" />
    <glyph glyph-name="v" unicode="v" horiz-adv-x="494" 
d="M483 527l-183 -527h-107l-182 527h98l138 -442h4l137 442h95z" />
    <glyph glyph-name="w" unicode="w" horiz-adv-x="729" 
d="M708 527l-120 -527h-125l-96 434h-4l-97 -434h-122l-123 527h92l93 -454h4l107 454h103l102 -452h4l94 452h88z" />
    <glyph glyph-name="x" unicode="x" horiz-adv-x="479" 
d="M239 219h-4l-129 -219h-104l183 278l-162 249h108l108 -189h4l109 189h104l-161 -245l182 -282h-111z" />
    <glyph glyph-name="y" unicode="y" horiz-adv-x="491" 
d="M480 527l-176 -530c-37 -111 -100 -196 -242 -210l-13 72c108 18 142 61 167 141h-31l-174 527h98l136 -453h4l136 453h95z" />
    <glyph glyph-name="z" unicode="z" horiz-adv-x="440" 
d="M405 457l-275 -380h278l-11 -77h-371v69l274 380h-251v78h356v-70z" />
    <glyph glyph-name="braceleft" unicode="{" horiz-adv-x="325" 
d="M26 313v74c59 0 70 23 70 74v226c0 115 67 149 187 149v-71c-72 0 -100 -18 -100 -68v-239c0 -71 -30 -95 -75 -106v-4c45 -11 75 -35 75 -106v-239c0 -51 28 -68 100 -68v-71c-120 0 -187 34 -187 149v225c0 51 -11 75 -70 75z" />
    <glyph glyph-name="bar" unicode="|" horiz-adv-x="403" 
d="M160 -102v909h83v-909h-83z" />
    <glyph glyph-name="braceright" unicode="}" horiz-adv-x="325" 
d="M299 387v-74c-59 0 -70 -24 -70 -75v-225c0 -115 -67 -149 -187 -149v71c72 0 100 17 100 68v239c0 71 30 95 75 106v4c-45 11 -75 35 -75 106v239c0 50 -28 68 -100 68v71c120 0 187 -34 187 -149v-226c0 -51 11 -74 70 -74z" />
    <glyph glyph-name="asciitilde" unicode="~" horiz-adv-x="500" 
d="M325 250c-80 0 -114 57 -156 57c-33 0 -51 -23 -67 -51l-61 31c21 41 62 92 134 92c80 0 114 -56 156 -56c33 0 51 22 67 50l61 -32c-21 -41 -61 -91 -134 -91z" />
    <glyph glyph-name="exclamdown" unicode="&#xa1;" horiz-adv-x="265" 
d="M202 430c0 -38 -31 -69 -70 -69s-69 31 -69 69c0 39 30 70 69 70s70 -31 70 -70zM93 258h78l14 -456h-105z" />
    <glyph glyph-name="cent" unicode="&#xa2;" horiz-adv-x="477" 
d="M288 66c38 0 72 11 115 44l44 -64c-39 -32 -79 -47 -122 -53v-147h-80v148c-127 17 -192 117 -192 267c0 144 66 253 193 272v151h79v-150c43 -5 83 -21 122 -52l-45 -60c-43 32 -76 41 -115 41c-84 0 -135 -65 -135 -202c0 -138 52 -195 136 -195z" />
    <glyph glyph-name="sterling" unicode="&#xa3;" horiz-adv-x="500" 
d="M111 377v116c0 107 67 186 189 186c73 0 131 -26 176 -88l-61 -46c-33 42 -64 59 -111 59c-64 0 -102 -38 -102 -110v-117h203v-60h-203v-108c0 -54 -10 -103 -55 -128v-4h314l-11 -77h-421v73c78 25 82 70 82 132v112h-81v60h81z" />
    <glyph glyph-name="fraction" unicode="&#x2044;" horiz-adv-x="120" 
d="M293 721l-404 -800l-62 30l405 800z" />
    <glyph glyph-name="yen" unicode="&#xa5;" horiz-adv-x="500" 
d="M62 346h116l-183 323h102l154 -291h4l153 291h97l-184 -323h117v-61h-141v-89h141v-60h-141v-136h-94v136h-141v60h141v89h-141v61z" />
    <glyph glyph-name="florin" unicode="&#x192;" horiz-adv-x="336" 
d="M36 -212l-33 66c69 33 102 59 102 172v430h-84v71h84v71c0 88 58 152 165 152c50 0 84 -9 126 -28l-30 -66c-33 15 -64 20 -91 20c-58 0 -79 -25 -79 -77v-72h129l-11 -71h-118v-414c0 -159 -50 -206 -160 -254z" />
    <glyph glyph-name="section" unicode="&#xa7;" horiz-adv-x="500" 
d="M53 311c0 52 34 97 76 124c-33 26 -52 55 -52 98c0 91 84 144 187 144c74 0 127 -22 173 -54l-43 -58c-39 27 -76 41 -131 41c-56 0 -95 -25 -95 -66c0 -45 21 -65 122 -99c106 -36 156 -72 156 -151c0 -48 -33 -88 -75 -116c33 -25 53 -56 53 -99
c0 -90 -81 -146 -195 -146c-74 0 -130 22 -174 55l42 60c40 -28 80 -43 135 -43c56 0 100 23 100 65c0 47 -21 64 -122 97c-107 35 -157 68 -157 148zM142 323c0 -62 35 -66 177 -117c24 23 39 50 39 74c0 57 -34 68 -178 120c-24 -24 -38 -53 -38 -77z" />
    <glyph glyph-name="currency" unicode="&#xa4;" 
d="M70 610l88 -89c34 21 76 33 123 33c46 0 88 -11 121 -33l88 88l56 -56l-86 -87c22 -33 36 -76 36 -124c0 -50 -15 -92 -37 -126l87 -86l-56 -56l-89 87c-33 -21 -74 -32 -120 -32c-47 0 -89 11 -123 32l-88 -88l-56 56l88 88c-22 34 -35 76 -35 125c0 48 13 90 34 123
l-87 89zM281 202c82 0 124 52 124 140c0 87 -42 140 -124 140s-125 -53 -125 -140c0 -88 43 -140 125 -140z" />
    <glyph glyph-name="quotesingle" unicode="'" horiz-adv-x="275" 
d="M187 427h-68l-31 262h99v-262z" />
    <glyph glyph-name="quotedblleft" unicode="&#x201c;" horiz-adv-x="437" 
d="M184 563c0 -35 -29 -63 -65 -63s-64 28 -64 63c0 15 3 30 16 58l67 142h57l-34 -153c14 -10 23 -27 23 -47zM366 563c0 -35 -30 -63 -65 -63c-36 0 -64 28 -64 63c0 15 3 30 16 58l67 142h57l-34 -153c14 -10 23 -27 23 -47z" />
    <glyph glyph-name="guillemotleft" unicode="&#xab;" horiz-adv-x="551" 
d="M152 293l133 -207l-55 -35l-175 209v65l175 210l55 -35zM363 293l133 -207l-55 -35l-176 209v65l176 210l55 -35z" />
    <glyph glyph-name="guilsinglleft" unicode="&#x2039;" horiz-adv-x="340" 
d="M152 293l133 -207l-55 -35l-175 209v65l175 210l55 -35z" />
    <glyph glyph-name="guilsinglright" unicode="&#x203a;" horiz-adv-x="344" 
d="M55 86l133 207l-133 207l55 35l175 -210v-65l-175 -209z" />
    <glyph glyph-name="endash" unicode="&#x2013;" horiz-adv-x="520" 
d="M488 274h-456v78h456v-78z" />
    <glyph glyph-name="dagger" unicode="&#x2020;" horiz-adv-x="500" 
d="M463 445h-169v-445h-88v445h-169v77h169v155h88v-155h169v-77z" />
    <glyph glyph-name="daggerdbl" unicode="&#x2021;" horiz-adv-x="500" 
d="M294 236h169v-77h-169v-159h-88v159h-169v77h169v202h-169v77h169v162h88v-162h169v-77h-169v-202z" />
    <glyph glyph-name="periodcentered" unicode="&#xb7;" horiz-adv-x="265" 
d="M63 338c0 38 30 69 69 69c40 0 70 -31 70 -69c0 -39 -30 -70 -70 -70c-39 0 -69 31 -69 70z" />
    <glyph glyph-name="paragraph" unicode="&#xb6;" horiz-adv-x="734" 
d="M609 -202l-83 -11v828h-109v-817l-83 -11v499c-162 2 -244 89 -244 200c0 114 87 203 254 203h265v-891z" />
    <glyph glyph-name="bullet" unicode="&#x2022;" horiz-adv-x="400" 
d="M200 218c-71 0 -124 53 -124 124s53 123 124 123s124 -53 124 -124s-53 -123 -124 -123z" />
    <glyph glyph-name="quotesinglbase" unicode="&#x201a;" horiz-adv-x="255" 
d="M68 44c0 35 30 63 65 63c36 0 65 -28 65 -63c0 -16 -4 -30 -17 -58l-67 -142h-57l34 153c-14 10 -23 27 -23 47z" />
    <glyph glyph-name="quotedblbase" unicode="&#x201e;" horiz-adv-x="435" 
d="M68 44c0 35 30 63 65 63c36 0 65 -28 65 -63c0 -16 -4 -30 -17 -58l-67 -142h-57l34 153c-14 10 -23 27 -23 47zM249 44c0 35 30 63 65 63c36 0 64 -28 64 -63c0 -16 -3 -31 -16 -58l-67 -142h-57l34 153c-14 10 -23 27 -23 47z" />
    <glyph glyph-name="quotedblright" unicode="&#x201d;" horiz-adv-x="437" 
d="M68 700c0 35 30 63 65 63c36 0 65 -28 65 -63c0 -16 -4 -30 -17 -58l-67 -142h-57l34 153c-14 10 -23 27 -23 47zM250 700c0 35 30 63 65 63c36 0 65 -28 65 -63c0 -16 -4 -30 -17 -58l-67 -142h-57l34 153c-14 10 -23 27 -23 47z" />
    <glyph glyph-name="guillemotright" unicode="&#xbb;" horiz-adv-x="551" 
d="M55 86l133 207l-133 207l55 35l175 -210v-65l-175 -209zM265 86l133 207l-133 207l55 35l176 -210v-65l-176 -209z" />
    <glyph glyph-name="ellipsis" unicode="&#x2026;" horiz-adv-x="794" 
d="M327 58c0 38 31 69 70 69s69 -31 69 -69c0 -39 -30 -70 -69 -70s-70 31 -70 70zM63 58c0 38 30 69 69 69c40 0 70 -31 70 -69c0 -39 -30 -70 -70 -70c-39 0 -69 31 -69 70zM592 58c0 38 30 69 69 69c40 0 70 -31 70 -69c0 -39 -30 -70 -70 -70c-39 0 -69 31 -69 70z" />
    <glyph glyph-name="perthousand" unicode="&#x2030;" horiz-adv-x="1181" 
d="M689 669l-463 -697l-64 39l462 697zM156 510c0 -52 17 -107 81 -107c65 0 81 53 81 107c0 52 -16 107 -81 107c-64 0 -81 -53 -81 -107zM400 510c0 -104 -69 -169 -163 -169c-93 0 -162 65 -162 169s69 169 162 169c94 0 163 -65 163 -169zM532 157
c0 -52 17 -107 81 -107c65 0 81 53 81 107c0 52 -16 106 -81 106c-64 0 -81 -52 -81 -106zM775 157c0 -104 -68 -169 -162 -169s-163 65 -163 169s69 169 163 169s162 -65 162 -169zM897 157c0 -52 17 -107 82 -107c64 0 80 53 80 107c0 52 -16 106 -80 106
c-65 0 -82 -52 -82 -106zM1141 157c0 -104 -68 -169 -162 -169s-163 65 -163 169s69 169 163 169s162 -65 162 -169z" />
    <glyph glyph-name="questiondown" unicode="&#xbf;" horiz-adv-x="507" 
d="M246 225v33h91v-38c0 -163 -176 -161 -176 -271c0 -55 39 -86 103 -86c48 0 96 22 137 72l64 -49c-58 -67 -126 -99 -209 -99c-126 0 -191 76 -191 156c0 160 181 139 181 282zM358 430c0 -38 -31 -69 -70 -69s-69 31 -69 69c0 39 30 70 69 70s70 -31 70 -70z" />
    <glyph glyph-name="grave" unicode="`" horiz-adv-x="297" 
d="M267 687l-28 -49l-209 84l47 78z" />
    <glyph glyph-name="acute" unicode="&#xb4;" horiz-adv-x="297" 
d="M58 638l-28 49l190 112l47 -77z" />
    <glyph glyph-name="circumflex" unicode="&#x2c6;" horiz-adv-x="392" 
d="M197 726l-127 -84l-40 45l136 113h61l135 -113l-39 -45z" />
    <glyph glyph-name="tilde" unicode="&#x2dc;" horiz-adv-x="390" 
d="M247 658c-58 0 -78 48 -109 48c-23 0 -35 -16 -51 -44l-57 26c20 47 55 88 113 88c59 0 78 -48 110 -48c22 0 35 16 51 44l56 -26c-20 -47 -55 -88 -113 -88z" />
    <glyph glyph-name="macron" unicode="&#xaf;" horiz-adv-x="333" 
d="M303 751v-69h-273v69h273z" />
    <glyph glyph-name="breve" unicode="&#x2d8;" horiz-adv-x="363" 
d="M180 643c-93 0 -142 71 -150 133l61 13c14 -50 42 -76 89 -76s78 26 92 76l61 -13c-8 -62 -59 -133 -153 -133z" />
    <glyph glyph-name="dotaccent" unicode="&#x2d9;" horiz-adv-x="189" 
d="M159 717c0 -35 -26 -62 -65 -62c-38 0 -64 27 -64 62c0 36 26 63 64 63c39 0 65 -27 65 -63z" />
    <glyph glyph-name="dieresis" unicode="&#xa8;" horiz-adv-x="385" 
d="M88 654c-33 0 -58 25 -58 57s25 57 58 57c32 0 57 -25 57 -57s-25 -57 -57 -57zM297 654c-32 0 -57 25 -57 57s25 57 57 57c33 0 58 -25 58 -57s-25 -57 -58 -57z" />
    <glyph glyph-name="ring" unicode="&#x2da;" horiz-adv-x="288" 
d="M91 730c0 -35 20 -56 53 -56c32 0 53 21 53 56s-20 56 -53 56s-53 -21 -53 -56zM258 730c0 -59 -47 -106 -114 -106s-114 47 -114 106s47 106 114 106s114 -47 114 -106z" />
    <glyph glyph-name="cedilla" unicode="&#xb8;" horiz-adv-x="291" 
d="M184 -141c0 35 -33 42 -87 42l9 115h61v-72c66 -6 94 -44 94 -85c0 -66 -58 -100 -125 -100c-41 0 -80 10 -106 25l28 51c19 -10 45 -16 67 -16c35 0 59 11 59 40z" />
    <glyph glyph-name="hungarumlaut" unicode="&#x2dd;" horiz-adv-x="388" 
d="M90 650l-60 25l77 171l80 -38zM252 648l-58 27l86 171l78 -41z" />
    <glyph glyph-name="ogonek" unicode="&#x2db;" horiz-adv-x="287" 
d="M107 -127c0 -31 18 -53 64 -53c27 0 50 8 62 15l24 -54c-31 -16 -63 -22 -96 -22c-84 0 -131 44 -131 111c0 63 61 127 151 156h69c-120 -49 -143 -111 -143 -153z" />
    <glyph glyph-name="caron" unicode="&#x2c7;" horiz-adv-x="392" 
d="M70 800l126 -84l127 84l39 -45l-135 -113h-61l-136 113z" />
    <glyph glyph-name="emdash" unicode="&#x2014;" horiz-adv-x="791" 
d="M758 274h-726v78h726v-78z" />
    <glyph glyph-name="AE" unicode="&#xc6;" horiz-adv-x="794" 
d="M458 0l-41 173h-267l-65 -173h-97l274 689h459l-11 -75h-309l56 -227h255v-75h-235l58 -237h227v-75h-304zM313 605l-135 -355h222l-82 355h-5z" />
    <glyph glyph-name="ordfeminine" unicode="&#xaa;" horiz-adv-x="600" 
d="M452 609v-194c0 -30 11 -43 33 -50l-20 -58c-43 5 -71 22 -86 59c-33 -38 -78 -59 -129 -59c-91 0 -147 53 -147 133c0 89 76 138 212 138h53v28c0 55 -30 76 -92 76c-28 0 -68 -7 -116 -24l-24 62c59 22 107 30 152 30c115 0 164 -53 164 -141zM271 370
c39 0 72 21 97 55v94h-50c-91 0 -124 -27 -124 -75c0 -49 25 -74 77 -74zM493 0h-385v79h385v-79z" />
    <glyph glyph-name="Lslash" unicode="&#x141;" horiz-adv-x="513" 
d="M482 0h-367v263l-56 -34l-38 60l94 58v342h95v-283l160 99l39 -59l-199 -124v-239h283z" />
    <glyph glyph-name="Oslash" unicode="&#xd8;" horiz-adv-x="696" 
d="M533 344c0 134 -29 211 -81 248l-151 -521c14 -4 31 -5 47 -5c112 0 185 76 185 278zM163 343c0 -134 30 -210 81 -247l151 522c-11 2 -30 5 -47 5c-112 0 -185 -78 -185 -280zM634 344c0 -230 -117 -356 -286 -356c-22 0 -43 2 -63 7l-37 -126l-79 21l41 132
c-91 51 -148 159 -148 321c0 230 117 358 286 358c22 0 43 -3 63 -7l37 125l79 -21l-41 -132c91 -51 148 -161 148 -322z" />
    <glyph glyph-name="OE" unicode="&#x152;" horiz-adv-x="921" 
d="M522 344c0 202 -62 278 -172 278c-104 0 -181 -77 -181 -279s80 -277 181 -277c118 0 172 76 172 278zM848 614h-303c44 -52 66 -127 71 -227h197v-75h-197c-3 -104 -26 -183 -73 -237h324v-75h-436c-25 -8 -52 -12 -81 -12c-159 0 -282 121 -282 355
c0 230 124 358 282 358c30 0 58 -4 84 -12h425z" />
    <glyph glyph-name="ordmasculine" unicode="&#xba;" horiz-adv-x="600" 
d="M410 529c0 105 -39 153 -110 153s-111 -48 -111 -153c0 -106 40 -154 111 -154s110 48 110 154zM99 529c0 130 76 221 201 221c126 0 200 -87 200 -221c0 -131 -75 -222 -200 -222c-126 0 -201 88 -201 222zM493 0h-385v79h385v-79z" />
    <glyph glyph-name="ae" unicode="&#xe6;" horiz-adv-x="840" 
d="M419 453c31 49 81 86 155 86c138 0 213 -99 213 -260c0 -18 -1 -35 -2 -47h-336c8 -117 62 -169 142 -169c48 0 87 12 132 49l42 -61c-49 -39 -108 -63 -176 -63c-86 0 -146 38 -181 90c-45 -62 -104 -90 -186 -90c-113 0 -177 65 -177 163c0 110 88 170 248 170h69v41
c0 73 -38 102 -115 102c-35 0 -84 -8 -138 -27l-24 68c65 24 124 34 176 34c89 0 137 -34 158 -86zM241 57c55 0 101 32 135 93c-10 32 -14 70 -14 110h-64c-113 0 -153 -41 -153 -104c0 -65 30 -99 96 -99zM574 466c-72 0 -118 -53 -125 -166h247c-2 109 -40 166 -122 166z
" />
    <glyph glyph-name="dotlessi" unicode="&#x131;" horiz-adv-x="279" 
d="M185 0h-92v527h92v-527z" />
    <glyph glyph-name="lslash" unicode="&#x142;" horiz-adv-x="306" 
d="M298 423l-108 -67v-250c0 -30 10 -42 33 -42c13 0 24 2 34 6l24 -64c-23 -11 -48 -18 -75 -18c-63 0 -108 36 -108 126v186l-49 -30l-38 58l87 53v358l92 11v-312l70 43z" />
    <glyph glyph-name="oslash" unicode="&#xf8;" horiz-adv-x="584" 
d="M57 263c0 163 86 276 236 276c16 0 32 -2 47 -5l38 121l75 -22l-41 -125c73 -43 115 -130 115 -244c0 -163 -86 -276 -235 -276c-17 0 -32 1 -47 5l-38 -124l-75 22l41 126c-74 43 -116 130 -116 246zM156 263c0 -89 18 -145 53 -174l116 373c-10 1 -21 2 -32 2
c-88 0 -137 -63 -137 -201zM428 264c0 87 -18 143 -52 172l-115 -371c10 -2 20 -3 31 -3c88 0 136 64 136 202z" />
    <glyph glyph-name="oe" unicode="&#x153;" horiz-adv-x="906" 
d="M851 232h-336c8 -117 62 -169 142 -169c48 0 87 12 132 49l42 -61c-49 -39 -108 -63 -176 -63c-94 0 -152 42 -184 107c-36 -68 -94 -107 -181 -107c-148 0 -233 108 -233 275c0 163 86 276 233 276c88 0 147 -40 182 -109c28 60 83 109 168 109c138 0 213 -99 213 -260
c0 -18 -1 -35 -2 -47zM426 264c0 138 -49 200 -136 200c-88 0 -134 -63 -134 -201c0 -137 46 -200 134 -200s136 63 136 201zM640 466c-72 0 -118 -53 -125 -166h247c-2 109 -40 166 -122 166z" />
    <glyph glyph-name="germandbls" unicode="&#xdf;" horiz-adv-x="595" 
d="M98 0v533c0 142 76 217 204 217c106 0 177 -60 177 -145c0 -97 -111 -114 -111 -176c0 -86 198 -93 198 -262c0 -116 -86 -179 -188 -179c-53 0 -94 12 -129 34l36 63c24 -14 56 -23 84 -23c64 0 103 33 103 101c0 126 -193 123 -193 254c0 95 112 106 112 180
c0 36 -22 81 -90 81c-72 0 -111 -39 -111 -139v-539h-92z" />
    <glyph glyph-name="onesuperior" unicode="&#xb9;" horiz-adv-x="400" 
d="M272 318h-75v336l-94 -51l-37 52l145 84h61v-421z" />
    <glyph glyph-name="logicalnot" unicode="&#xac;" horiz-adv-x="500" 
d="M438 351v-220h-83v143h-293v77h376z" />
    <glyph glyph-name="mu" unicode="&#x3bc;" horiz-adv-x="588" 
d="M98 527h92v-296c0 -103 3 -164 80 -164c57 0 100 36 128 77v383h92v-357c0 -69 14 -128 26 -170l-86 -12c-10 18 -20 58 -23 84c-30 -51 -84 -84 -133 -84c-46 0 -73 15 -92 42l-4 -1c6 -28 11 -59 11 -85v-146l-91 -11v740z" />
    <glyph glyph-name="trademark" unicode="&#x2122;" horiz-adv-x="900" 
d="M360 625h-121v-327h-77v327h-127v64h337zM481 613h-4c1 -16 2 -33 2 -51s0 -36 -1 -53l-8 -211h-72l16 391h105l89 -265h4l81 265h108l15 -391h-75l-9 211c-1 17 -1 35 -1 53s1 35 2 51h-4l-86 -274h-67z" />
    <glyph glyph-name="Eth" unicode="&#xd0;" horiz-adv-x="656" 
d="M594 348c0 -285 -175 -348 -324 -348h-165v318h-82v70h82v301h154c166 0 335 -55 335 -341zM493 348c0 234 -116 265 -213 265h-80v-225h172v-70h-172v-243h81c101 0 212 50 212 273z" />
    <glyph glyph-name="onehalf" unicode="&#xbd;" horiz-adv-x="920" 
d="M272 278h-75v336l-94 -51l-37 52l145 84h61v-421zM693 721l-404 -800l-62 30l405 800zM858 306c0 -71 -57 -140 -178 -243h188l-9 -63h-278v55c151 138 196 192 196 249c0 38 -27 60 -63 60c-32 0 -57 -12 -86 -47l-53 40c40 46 86 70 143 70c86 0 140 -51 140 -121z" />
    <glyph glyph-name="plusminus" unicode="&#xb1;" horiz-adv-x="500" 
d="M438 274h-145v-124h-86v124h-145v76h145v150h86v-150h145v-76zM438 0h-376v76h376v-76z" />
    <glyph glyph-name="Thorn" unicode="&#xde;" horiz-adv-x="590" 
d="M461 353c0 104 -63 146 -157 146h-104v-297h105c92 0 156 34 156 151zM561 355c0 -161 -109 -228 -265 -228h-96v-127h-95v689h95v-116h94c168 0 267 -69 267 -218z" />
    <glyph glyph-name="onequarter" unicode="&#xbc;" horiz-adv-x="920" 
d="M272 278h-75v336l-94 -51l-37 52l145 84h61v-421zM693 721l-404 -800l-62 30l405 800zM869 96h-54v-96h-76v96h-179v50l134 285l65 -26l-113 -248h93l7 105h69v-105h54v-61z" />
    <glyph glyph-name="divide" unicode="&#xf7;" horiz-adv-x="500" 
d="M438 274h-376v77h376v-77zM180 115c0 38 31 69 70 69s70 -31 70 -69c0 -39 -31 -70 -70 -70s-70 31 -70 70zM180 511c0 38 31 69 70 69s70 -31 70 -69c0 -39 -31 -69 -70 -69s-70 30 -70 69z" />
    <glyph glyph-name="brokenbar" unicode="&#xa6;" horiz-adv-x="403" 
d="M160 451v356h83v-356h-83zM160 -102v356h83v-356h-83z" />
    <glyph glyph-name="degree" unicode="&#xb0;" horiz-adv-x="500" 
d="M219 447c46 0 87 31 87 95s-41 96 -87 96c-45 0 -87 -30 -87 -95s42 -96 87 -96zM219 385c-83 0 -164 57 -164 158s81 158 164 158c84 0 164 -58 164 -159s-80 -157 -164 -157z" />
    <glyph glyph-name="thorn" unicode="&#xfe;" horiz-adv-x="592" 
d="M98 -213v952l92 11v-290c38 50 89 79 149 79c140 0 196 -109 196 -275c0 -160 -72 -276 -208 -276c-57 0 -103 19 -137 60v-250zM317 466c-56 0 -99 -40 -127 -82v-257c27 -41 68 -64 115 -64c84 0 131 63 131 201c0 137 -41 202 -119 202z" />
    <glyph glyph-name="threequarters" unicode="&#xbe;" horiz-adv-x="920" 
d="M344 404c0 -75 -65 -132 -162 -132c-53 0 -105 18 -145 63l49 43c26 -30 60 -44 94 -44c53 0 84 28 84 70c0 50 -33 66 -79 66h-37l8 60h25c38 0 71 17 71 58c0 37 -29 56 -68 56c-36 0 -65 -13 -94 -40l-41 46c44 38 89 55 138 55c90 0 143 -49 143 -109
c0 -38 -27 -76 -77 -88v-3c49 -7 91 -50 91 -101zM693 721l-404 -800l-62 30l405 800zM869 96h-54v-96h-76v96h-179v50l134 285l65 -26l-113 -248h93l7 105h69v-105h54v-61z" />
    <glyph glyph-name="twosuperior" unicode="&#xb2;" horiz-adv-x="400" 
d="M333 624c0 -71 -57 -140 -178 -243h188l-9 -63h-278v55c151 138 196 192 196 249c0 38 -27 60 -63 60c-32 0 -57 -12 -86 -47l-53 40c40 46 86 70 143 70c86 0 140 -51 140 -121z" />
    <glyph glyph-name="registered" unicode="&#xae;" horiz-adv-x="646" 
d="M323 236c-142 0 -256 113 -256 255s114 257 256 257s255 -115 255 -257s-113 -255 -255 -255zM323 285c115 0 200 91 200 206s-85 208 -200 208s-201 -93 -201 -208s86 -206 201 -206zM432 551c0 -42 -28 -68 -66 -79l85 -118h-68l-74 108h-28v-108h-58v282h85
c83 0 124 -29 124 -85zM372 551c0 26 -19 40 -62 40h-29v-84h31c38 0 60 12 60 44z" />
    <glyph glyph-name="minus" unicode="&#x2212;" horiz-adv-x="500" 
d="M438 274h-376v77h376v-77z" />
    <glyph glyph-name="eth" unicode="&#xf0;" horiz-adv-x="566" 
d="M212 531l-64 32l78 82c-32 15 -68 26 -109 35l20 70c54 -12 103 -27 144 -48l70 74l54 -47l-61 -63c117 -82 164 -211 164 -401c0 -168 -94 -277 -230 -277c-123 0 -221 89 -221 247c0 148 94 246 201 246c65 0 111 -25 141 -61l3 1c-16 76 -56 143 -114 188zM415 266
c0 24 -1 45 -3 66c-33 50 -78 77 -140 77c-64 0 -121 -52 -121 -170c0 -117 51 -178 126 -178c81 0 138 70 138 205z" />
    <glyph glyph-name="multiply" unicode="&#xd7;" horiz-adv-x="500" 
d="M76 179l118 118l-118 118l56 57l118 -119l118 119l56 -57l-118 -118l118 -118l-56 -56l-118 118l-118 -118z" />
    <glyph glyph-name="threesuperior" unicode="&#xb3;" horiz-adv-x="400" 
d="M344 444c0 -75 -65 -132 -162 -132c-53 0 -105 18 -145 63l49 43c26 -30 60 -44 94 -44c53 0 84 28 84 70c0 50 -33 66 -79 66h-37l8 60h25c38 0 71 17 71 58c0 37 -29 56 -68 56c-36 0 -65 -13 -94 -40l-41 46c44 38 89 55 138 55c90 0 143 -49 143 -109
c0 -38 -27 -76 -77 -88v-3c49 -7 91 -50 91 -101z" />
    <glyph glyph-name="copyright" unicode="&#xa9;" horiz-adv-x="800" 
d="M404 308c35 0 61 13 84 34l34 -50c-28 -25 -66 -47 -121 -47c-96 0 -164 67 -164 190c0 124 75 190 163 190c51 0 82 -13 117 -40l-37 -49c-25 20 -50 29 -76 29c-51 0 -91 -37 -91 -130c0 -87 37 -127 91 -127zM401 174c144 0 252 116 252 260c0 145 -108 262 -252 262
c-145 0 -253 -117 -253 -262c0 -144 108 -260 253 -260zM401 121c-174 0 -314 140 -314 313c0 174 140 314 314 314c173 0 312 -140 312 -314c0 -173 -139 -313 -312 -313z" />
    <glyph glyph-name="Aacute" unicode="&#xc1;" horiz-adv-x="579" 
d="M473 0l-53 173h-265l-53 -173h-96l224 689h120l223 -689h-100zM286 603l-108 -353h219l-107 353h-4zM200 752l-28 49l189 109l47 -77z" />
    <glyph glyph-name="Acircumflex" unicode="&#xc2;" horiz-adv-x="579" 
d="M473 0l-53 173h-265l-53 -173h-96l224 689h120l223 -689h-100zM286 603l-108 -353h219l-107 353h-4zM289 835l-126 -81l-40 45l136 111h61l135 -111l-39 -45z" />
    <glyph glyph-name="Adieresis" unicode="&#xc4;" horiz-adv-x="579" 
d="M473 0l-53 173h-265l-53 -173h-96l224 689h120l223 -689h-100zM286 603l-108 -353h219l-107 353h-4zM184 764c-32 0 -57 24 -57 57c0 32 25 56 57 56c33 0 58 -24 58 -56c0 -33 -25 -57 -58 -57zM394 764c-33 0 -58 24 -58 57c0 32 25 56 58 56c32 0 58 -24 58 -56
c0 -33 -26 -57 -58 -57z" />
    <glyph glyph-name="Agrave" unicode="&#xc0;" horiz-adv-x="579" 
d="M473 0l-53 173h-265l-53 -173h-96l224 689h120l223 -689h-100zM286 603l-108 -353h219l-107 353h-4zM404 799l-27 -49l-209 82l48 77z" />
    <glyph glyph-name="Aring" unicode="&#xc5;" horiz-adv-x="579" 
d="M473 0l-53 173h-265l-53 -173h-96l224 689h120l223 -689h-100zM286 603l-108 -353h219l-107 353h-4zM235 840c0 -35 21 -57 54 -57c32 0 53 22 53 57s-21 56 -53 56c-33 0 -54 -21 -54 -56zM403 840c0 -59 -47 -106 -114 -106s-114 47 -114 106c0 58 47 105 114 105
s114 -47 114 -105z" />
    <glyph glyph-name="Atilde" unicode="&#xc3;" horiz-adv-x="579" 
d="M473 0l-53 173h-265l-53 -173h-96l224 689h120l223 -689h-100zM286 603l-108 -353h219l-107 353h-4zM342 768c-58 0 -79 48 -110 48c-23 0 -35 -16 -51 -44l-57 25c20 47 55 89 113 89c60 0 79 -48 110 -48c22 0 35 15 51 43l57 -25c-21 -47 -56 -88 -113 -88z" />
    <glyph glyph-name="Ccedilla" unicode="&#xc7;" horiz-adv-x="571" 
d="M374 -141c0 35 -33 42 -87 42l7 92c-137 25 -232 146 -232 352c0 232 132 356 286 356c88 0 140 -24 194 -68l-52 -61c-42 35 -87 51 -136 51c-102 0 -191 -71 -191 -278c0 -199 83 -277 190 -277c72 0 116 29 150 59l49 -62c-42 -40 -104 -75 -195 -77v-44
c66 -6 94 -44 94 -85c0 -66 -58 -100 -125 -100c-41 0 -80 10 -106 25l28 51c19 -10 45 -16 66 -16c36 0 60 11 60 40z" />
    <glyph glyph-name="Eacute" unicode="&#xc9;" horiz-adv-x="540" 
d="M467 613h-267v-225h232v-76h-232v-236h286v-76h-381v689h373zM212 750l-28 49l189 109l47 -77z" />
    <glyph glyph-name="Ecircumflex" unicode="&#xca;" horiz-adv-x="540" 
d="M467 613h-267v-225h232v-76h-232v-236h286v-76h-381v689h373zM288 835l-126 -81l-40 45l136 111h61l135 -111l-39 -45z" />
    <glyph glyph-name="Edieresis" unicode="&#xcb;" horiz-adv-x="540" 
d="M467 613h-267v-225h232v-76h-232v-236h286v-76h-381v689h373zM183 764c-32 0 -57 24 -57 57c0 32 25 56 57 56c33 0 58 -24 58 -56c0 -33 -25 -57 -58 -57zM393 764c-33 0 -58 24 -58 57c0 32 25 56 58 56c32 0 58 -24 58 -56c0 -33 -26 -57 -58 -57z" />
    <glyph glyph-name="Egrave" unicode="&#xc8;" horiz-adv-x="540" 
d="M467 613h-267v-225h232v-76h-232v-236h286v-76h-381v689h373zM409 799l-27 -49l-209 82l48 77z" />
    <glyph glyph-name="Iacute" unicode="&#xcd;" horiz-adv-x="306" 
d="M201 0h-96v689h96v-689zM63 750l-28 49l189 109l47 -77z" />
    <glyph glyph-name="Icircumflex" unicode="&#xce;" horiz-adv-x="306" 
d="M201 0h-96v689h96v-689zM153 835l-126 -81l-40 45l136 111h61l135 -111l-39 -45z" />
    <glyph glyph-name="Idieresis" unicode="&#xcf;" horiz-adv-x="306" 
d="M201 0h-96v689h96v-689zM48 764c-32 0 -57 24 -57 57c0 32 25 56 57 56c33 0 58 -24 58 -56c0 -33 -25 -57 -58 -57zM258 764c-33 0 -58 24 -58 57c0 32 25 56 58 56c32 0 58 -24 58 -56c0 -33 -26 -57 -58 -57z" />
    <glyph glyph-name="Igrave" unicode="&#xcc;" horiz-adv-x="306" 
d="M201 0h-96v689h96v-689zM271 799l-27 -49l-209 82l48 77z" />
    <glyph glyph-name="Ntilde" unicode="&#xd1;" horiz-adv-x="689" 
d="M584 0h-129l-270 583h-4c2 -16 13 -139 13 -247v-336h-89v689h126l273 -586h4c-2 16 -13 126 -13 250v336h89v-689zM394 768c-58 0 -79 48 -110 48c-23 0 -35 -16 -51 -44l-57 25c20 47 55 89 113 89c60 0 79 -48 110 -48c22 0 35 15 51 43l57 -25
c-21 -47 -56 -88 -113 -88z" />
    <glyph glyph-name="Oacute" unicode="&#xd3;" horiz-adv-x="696" 
d="M634 344c0 -230 -117 -356 -286 -356s-286 121 -286 355c0 230 117 358 286 358s286 -123 286 -357zM533 344c0 202 -73 279 -185 279s-185 -78 -185 -280s76 -277 185 -277c112 0 185 76 185 278zM260 750l-28 49l189 109l47 -77z" />
    <glyph glyph-name="Ocircumflex" unicode="&#xd4;" horiz-adv-x="696" 
d="M634 344c0 -230 -117 -356 -286 -356s-286 121 -286 355c0 230 117 358 286 358s286 -123 286 -357zM533 344c0 202 -73 279 -185 279s-185 -78 -185 -280s76 -277 185 -277c112 0 185 76 185 278zM348 835l-126 -81l-40 45l136 111h61l135 -111l-39 -45z" />
    <glyph glyph-name="Odieresis" unicode="&#xd6;" horiz-adv-x="696" 
d="M634 344c0 -230 -117 -356 -286 -356s-286 121 -286 355c0 230 117 358 286 358s286 -123 286 -357zM533 344c0 202 -73 279 -185 279s-185 -78 -185 -280s76 -277 185 -277c112 0 185 76 185 278zM243 764c-32 0 -57 24 -57 57c0 32 25 56 57 56c33 0 58 -24 58 -56
c0 -33 -25 -57 -58 -57zM453 764c-33 0 -58 24 -58 57c0 32 25 56 58 56c32 0 58 -24 58 -56c0 -33 -26 -57 -58 -57z" />
    <glyph glyph-name="Ograve" unicode="&#xd2;" horiz-adv-x="696" 
d="M634 344c0 -230 -117 -356 -286 -356s-286 121 -286 355c0 230 117 358 286 358s286 -123 286 -357zM533 344c0 202 -73 279 -185 279s-185 -78 -185 -280s76 -277 185 -277c112 0 185 76 185 278zM463 799l-27 -49l-209 82l48 77z" />
    <glyph glyph-name="Otilde" unicode="&#xd5;" horiz-adv-x="696" 
d="M634 344c0 -230 -117 -356 -286 -356s-286 121 -286 355c0 230 117 358 286 358s286 -123 286 -357zM533 344c0 202 -73 279 -185 279s-185 -78 -185 -280s76 -277 185 -277c112 0 185 76 185 278zM401 768c-58 0 -79 48 -110 48c-23 0 -35 -16 -51 -44l-57 25
c20 47 55 89 113 89c60 0 79 -48 110 -48c22 0 35 15 51 43l57 -25c-21 -47 -56 -88 -113 -88z" />
    <glyph glyph-name="Scaron" unicode="&#x160;" horiz-adv-x="545" 
d="M507 192c0 -120 -91 -204 -244 -204c-101 0 -179 33 -236 89l55 61c47 -45 103 -72 178 -72c81 0 148 40 148 123c0 65 -33 97 -149 133c-134 41 -204 92 -204 199c0 106 88 180 217 180c96 0 157 -28 213 -80l-54 -60c-48 44 -97 62 -155 62c-69 0 -124 -32 -124 -98
c0 -58 27 -86 151 -124c110 -34 204 -77 204 -209zM152 910l127 -82l126 82l39 -45l-135 -111h-61l-136 111z" />
    <glyph glyph-name="Uacute" unicode="&#xda;" horiz-adv-x="672" 
d="M577 689v-465c0 -140 -87 -236 -242 -236c-157 0 -240 96 -240 236v465h95v-461c0 -107 47 -160 145 -160c99 0 146 53 146 160v461h96zM255 750l-28 49l189 109l47 -77z" />
    <glyph glyph-name="Ucircumflex" unicode="&#xdb;" horiz-adv-x="672" 
d="M577 689v-465c0 -140 -87 -236 -242 -236c-157 0 -240 96 -240 236v465h95v-461c0 -107 47 -160 145 -160c99 0 146 53 146 160v461h96zM336 835l-126 -81l-40 45l136 111h61l135 -111l-39 -45z" />
    <glyph glyph-name="Udieresis" unicode="&#xdc;" horiz-adv-x="672" 
d="M577 689v-465c0 -140 -87 -236 -242 -236c-157 0 -240 96 -240 236v465h95v-461c0 -107 47 -160 145 -160c99 0 146 53 146 160v461h96zM230 764c-32 0 -57 24 -57 57c0 32 25 56 57 56c33 0 58 -24 58 -56c0 -33 -25 -57 -58 -57zM440 764c-33 0 -58 24 -58 57
c0 32 25 56 58 56c32 0 58 -24 58 -56c0 -33 -26 -57 -58 -57z" />
    <glyph glyph-name="Ugrave" unicode="&#xd9;" horiz-adv-x="672" 
d="M577 689v-465c0 -140 -87 -236 -242 -236c-157 0 -240 96 -240 236v465h95v-461c0 -107 47 -160 145 -160c99 0 146 53 146 160v461h96zM443 799l-27 -49l-209 82l48 77z" />
    <glyph glyph-name="Yacute" unicode="&#xdd;" horiz-adv-x="550" 
d="M545 689l-222 -424v-265h-96v264l-222 425h105l166 -337h4l166 337h99zM195 750l-28 49l189 109l47 -77z" />
    <glyph glyph-name="Ydieresis" unicode="&#x178;" horiz-adv-x="550" 
d="M545 689l-222 -424v-265h-96v264l-222 425h105l166 -337h4l166 337h99zM170 764c-32 0 -57 24 -57 57c0 32 25 56 57 56c33 0 58 -24 58 -56c0 -33 -25 -57 -58 -57zM380 764c-33 0 -58 24 -58 57c0 32 25 56 58 56c32 0 58 -24 58 -56c0 -33 -26 -57 -58 -57z" />
    <glyph glyph-name="Zcaron" unicode="&#x17d;" horiz-adv-x="521" 
d="M478 612l-341 -531h341l-11 -81h-436v76l344 533h-308v80h411v-77zM144 910l127 -82l126 82l39 -45l-135 -111h-61l-136 111z" />
    <glyph glyph-name="aacute" unicode="&#xe1;" horiz-adv-x="546" 
d="M453 367v-248c0 -42 12 -57 39 -67l-22 -64c-47 6 -81 27 -97 74c-37 -50 -93 -74 -157 -74c-106 0 -171 65 -171 163c0 109 88 170 248 170h68v41c0 74 -37 102 -114 102c-35 0 -84 -8 -138 -27l-24 68c65 24 124 34 176 34c134 0 192 -65 192 -172zM241 57
c50 0 90 27 120 73v130h-63c-113 0 -152 -41 -152 -105c0 -65 29 -98 95 -98zM177 622l-30 50l188 119l47 -77z" />
    <glyph glyph-name="acircumflex" unicode="&#xe2;" horiz-adv-x="546" 
d="M453 367v-248c0 -42 12 -57 39 -67l-22 -64c-47 6 -81 27 -97 74c-37 -50 -93 -74 -157 -74c-106 0 -171 65 -171 163c0 109 88 170 248 170h68v41c0 74 -37 102 -114 102c-35 0 -84 -8 -138 -27l-24 68c65 24 124 34 176 34c134 0 192 -65 192 -172zM241 57
c50 0 90 27 120 73v130h-63c-113 0 -152 -41 -152 -105c0 -65 29 -98 95 -98zM265 718l-125 -91l-42 44l136 121h61l135 -121l-40 -44z" />
    <glyph glyph-name="adieresis" unicode="&#xe4;" horiz-adv-x="546" 
d="M453 367v-248c0 -42 12 -57 39 -67l-22 -64c-47 6 -81 27 -97 74c-37 -50 -93 -74 -157 -74c-106 0 -171 65 -171 163c0 109 88 170 248 170h68v41c0 74 -37 102 -114 102c-35 0 -84 -8 -138 -27l-24 68c65 24 124 34 176 34c134 0 192 -65 192 -172zM241 57
c50 0 90 27 120 73v130h-63c-113 0 -152 -41 -152 -105c0 -65 29 -98 95 -98zM164 647c-33 0 -58 24 -58 56c0 33 25 57 58 57c32 0 57 -24 57 -57c0 -32 -25 -56 -57 -56zM373 647c-32 0 -57 24 -57 56c0 33 25 57 57 57c33 0 58 -24 58 -57c0 -32 -25 -56 -58 -56z" />
    <glyph glyph-name="agrave" unicode="&#xe0;" horiz-adv-x="546" 
d="M453 367v-248c0 -42 12 -57 39 -67l-22 -64c-47 6 -81 27 -97 74c-37 -50 -93 -74 -157 -74c-106 0 -171 65 -171 163c0 109 88 170 248 170h68v41c0 74 -37 102 -114 102c-35 0 -84 -8 -138 -27l-24 68c65 24 124 34 176 34c134 0 192 -65 192 -172zM241 57
c50 0 90 27 120 73v130h-63c-113 0 -152 -41 -152 -105c0 -65 29 -98 95 -98zM382 672l-29 -50l-206 93l47 77z" />
    <glyph glyph-name="aring" unicode="&#xe5;" horiz-adv-x="546" 
d="M453 367v-248c0 -42 12 -57 39 -67l-22 -64c-47 6 -81 27 -97 74c-37 -50 -93 -74 -157 -74c-106 0 -171 65 -171 163c0 109 88 170 248 170h68v41c0 74 -37 102 -114 102c-35 0 -84 -8 -138 -27l-24 68c65 24 124 34 176 34c134 0 192 -65 192 -172zM241 57
c50 0 90 27 120 73v130h-63c-113 0 -152 -41 -152 -105c0 -65 29 -98 95 -98zM212 722c0 -35 21 -56 53 -56c33 0 53 21 53 56s-20 56 -53 56c-32 0 -53 -21 -53 -56zM379 722c0 -58 -47 -105 -114 -105s-114 47 -114 105c0 59 47 106 114 106s114 -47 114 -106z" />
    <glyph glyph-name="atilde" unicode="&#xe3;" horiz-adv-x="546" 
d="M453 367v-248c0 -42 12 -57 39 -67l-22 -64c-47 6 -81 27 -97 74c-37 -50 -93 -74 -157 -74c-106 0 -171 65 -171 163c0 109 88 170 248 170h68v41c0 74 -37 102 -114 102c-35 0 -84 -8 -138 -27l-24 68c65 24 124 34 176 34c134 0 192 -65 192 -172zM241 57
c50 0 90 27 120 73v130h-63c-113 0 -152 -41 -152 -105c0 -65 29 -98 95 -98zM318 650c-58 0 -79 48 -110 48c-22 0 -35 -16 -51 -44l-57 26c20 47 56 88 113 88c60 0 79 -48 110 -48c22 0 35 16 51 44l57 -25c-20 -47 -56 -89 -113 -89z" />
    <glyph glyph-name="ccedilla" unicode="&#xe7;" horiz-adv-x="476" 
d="M324 -141c0 35 -33 42 -87 42l7 91c-125 20 -187 122 -187 269c0 159 80 278 236 278c56 0 110 -16 159 -57l-45 -60c-43 32 -76 41 -114 41c-85 0 -137 -65 -137 -202c0 -138 52 -195 137 -195c38 0 72 11 115 43l44 -63c-45 -37 -94 -54 -145 -57v-45
c66 -6 94 -44 94 -85c0 -66 -58 -100 -125 -100c-41 0 -80 10 -106 25l28 51c19 -10 45 -16 67 -16c35 0 59 11 59 40z" />
    <glyph glyph-name="eacute" unicode="&#xe9;" horiz-adv-x="546" 
d="M491 232h-336c8 -117 62 -169 142 -169c48 0 87 12 132 49l42 -61c-49 -39 -108 -63 -176 -63c-157 0 -238 111 -238 275c0 159 83 276 223 276c138 0 213 -99 213 -260c0 -18 -1 -35 -2 -47zM280 466c-72 0 -118 -53 -125 -166h247c-2 109 -40 166 -122 166zM193 622
l-30 50l188 119l47 -77z" />
    <glyph glyph-name="ecircumflex" unicode="&#xea;" horiz-adv-x="546" 
d="M491 232h-336c8 -117 62 -169 142 -169c48 0 87 12 132 49l42 -61c-49 -39 -108 -63 -176 -63c-157 0 -238 111 -238 275c0 159 83 276 223 276c138 0 213 -99 213 -260c0 -18 -1 -35 -2 -47zM280 466c-72 0 -118 -53 -125 -166h247c-2 109 -40 166 -122 166zM282 718
l-125 -91l-42 44l136 121h61l135 -121l-40 -44z" />
    <glyph glyph-name="edieresis" unicode="&#xeb;" horiz-adv-x="546" 
d="M491 232h-336c8 -117 62 -169 142 -169c48 0 87 12 132 49l42 -61c-49 -39 -108 -63 -176 -63c-157 0 -238 111 -238 275c0 159 83 276 223 276c138 0 213 -99 213 -260c0 -18 -1 -35 -2 -47zM280 466c-72 0 -118 -53 -125 -166h247c-2 109 -40 166 -122 166zM176 647
c-33 0 -58 24 -58 56c0 33 25 57 58 57c32 0 57 -24 57 -57c0 -32 -25 -56 -57 -56zM385 647c-32 0 -57 24 -57 56c0 33 25 57 57 57c33 0 58 -24 58 -57c0 -32 -25 -56 -58 -56z" />
    <glyph glyph-name="egrave" unicode="&#xe8;" horiz-adv-x="546" 
d="M491 232h-336c8 -117 62 -169 142 -169c48 0 87 12 132 49l42 -61c-49 -39 -108 -63 -176 -63c-157 0 -238 111 -238 275c0 159 83 276 223 276c138 0 213 -99 213 -260c0 -18 -1 -35 -2 -47zM280 466c-72 0 -118 -53 -125 -166h247c-2 109 -40 166 -122 166zM398 672
l-29 -50l-206 93l47 77z" />
    <glyph glyph-name="iacute" unicode="&#xed;" horiz-adv-x="279" 
d="M185 0h-92v527h92v-527zM53 622l-30 50l188 119l47 -77z" />
    <glyph glyph-name="icircumflex" unicode="&#xee;" horiz-adv-x="279" 
d="M140 718l-125 -91l-42 44l136 121h61l135 -121l-40 -44zM185 0h-92v527h92v-527z" />
    <glyph glyph-name="idieresis" unicode="&#xef;" horiz-adv-x="279" 
d="M35 647c-33 0 -58 24 -58 56c0 33 25 57 58 57c32 0 57 -24 57 -57c0 -32 -25 -56 -57 -56zM244 647c-32 0 -57 24 -57 56c0 33 25 57 57 57c33 0 58 -24 58 -57c0 -32 -25 -56 -58 -56zM185 0h-92v527h92v-527z" />
    <glyph glyph-name="igrave" unicode="&#xec;" horiz-adv-x="279" 
d="M185 0h-92v527h92v-527zM254 672l-29 -50l-206 93l47 77z" />
    <glyph glyph-name="ntilde" unicode="&#xf1;" horiz-adv-x="589" 
d="M190 382v-382h-92v527h79l7 -72c43 54 106 84 168 84c102 0 143 -58 143 -156v-383h-92v377c0 63 -22 90 -82 90c-57 0 -103 -44 -131 -85zM354 650c-58 0 -79 48 -110 48c-22 0 -35 -16 -51 -44l-57 26c20 47 56 88 113 88c60 0 79 -48 110 -48c22 0 35 16 51 44l57 -25
c-20 -47 -56 -89 -113 -89z" />
    <glyph glyph-name="oacute" unicode="&#xf3;" horiz-adv-x="584" 
d="M428 264c0 137 -48 201 -135 201c-88 0 -137 -64 -137 -202c0 -137 48 -201 136 -201s136 64 136 202zM57 263c0 163 86 276 236 276s234 -108 234 -275c0 -163 -86 -276 -235 -276c-150 0 -235 108 -235 275zM206 622l-30 50l188 119l47 -77z" />
    <glyph glyph-name="ocircumflex" unicode="&#xf4;" horiz-adv-x="584" 
d="M428 264c0 137 -48 201 -135 201c-88 0 -137 -64 -137 -202c0 -137 48 -201 136 -201s136 64 136 202zM57 263c0 163 86 276 236 276s234 -108 234 -275c0 -163 -86 -276 -235 -276c-150 0 -235 108 -235 275zM292 718l-125 -91l-42 44l136 121h61l135 -121l-40 -44z" />
    <glyph glyph-name="odieresis" unicode="&#xf6;" horiz-adv-x="584" 
d="M188 647c-33 0 -58 24 -58 56c0 33 25 57 58 57c32 0 57 -24 57 -57c0 -32 -25 -56 -57 -56zM397 647c-32 0 -57 24 -57 56c0 33 25 57 57 57c33 0 58 -24 58 -57c0 -32 -25 -56 -58 -56zM428 264c0 137 -48 201 -135 201c-88 0 -137 -64 -137 -202
c0 -137 48 -201 136 -201s136 64 136 202zM57 263c0 163 86 276 236 276s234 -108 234 -275c0 -163 -86 -276 -235 -276c-150 0 -235 108 -235 275z" />
    <glyph glyph-name="ograve" unicode="&#xf2;" horiz-adv-x="584" 
d="M428 264c0 137 -48 201 -135 201c-88 0 -137 -64 -137 -202c0 -137 48 -201 136 -201s136 64 136 202zM57 263c0 163 86 276 236 276s234 -108 234 -275c0 -163 -86 -276 -235 -276c-150 0 -235 108 -235 275zM407 672l-29 -50l-206 93l47 77z" />
    <glyph glyph-name="otilde" unicode="&#xf5;" horiz-adv-x="584" 
d="M345 650c-58 0 -79 48 -110 48c-22 0 -35 -16 -51 -44l-57 26c20 47 56 88 113 88c60 0 79 -48 110 -48c22 0 35 16 51 44l57 -25c-20 -47 -56 -89 -113 -89zM428 264c0 137 -48 201 -135 201c-88 0 -137 -64 -137 -202c0 -137 48 -201 136 -201s136 64 136 202zM57 263
c0 163 86 276 236 276s234 -108 234 -275c0 -163 -86 -276 -235 -276c-150 0 -235 108 -235 275z" />
    <glyph glyph-name="scaron" unicode="&#x161;" horiz-adv-x="474" 
d="M223 62c67 0 111 31 111 80c0 52 -25 72 -129 98c-95 24 -156 65 -156 151c0 89 86 148 197 148c72 0 127 -22 170 -53l-41 -62c-38 26 -77 42 -133 42c-57 0 -98 -27 -98 -69c0 -45 33 -62 122 -86c93 -26 167 -60 167 -162c0 -113 -103 -161 -208 -161
c-89 0 -153 29 -199 69l51 58c41 -34 90 -53 146 -53zM111 792l125 -91l125 91l40 -44l-135 -121h-61l-136 121z" />
    <glyph glyph-name="uacute" unicode="&#xfa;" horiz-adv-x="582" 
d="M93 527h92v-372c0 -68 21 -95 78 -95c54 0 101 37 129 81v386h92v-527h-79l-7 70c-41 -53 -99 -82 -160 -82c-101 0 -145 58 -145 156v383zM219 622l-30 50l188 119l47 -77z" />
    <glyph glyph-name="ucircumflex" unicode="&#xfb;" horiz-adv-x="582" 
d="M93 527h92v-372c0 -68 21 -95 78 -95c54 0 101 37 129 81v386h92v-527h-79l-7 70c-41 -53 -99 -82 -160 -82c-101 0 -145 58 -145 156v383zM290 718l-125 -91l-42 44l136 121h61l135 -121l-40 -44z" />
    <glyph glyph-name="udieresis" unicode="&#xfc;" horiz-adv-x="582" 
d="M93 527h92v-372c0 -68 21 -95 78 -95c54 0 101 37 129 81v386h92v-527h-79l-7 70c-41 -53 -99 -82 -160 -82c-101 0 -145 58 -145 156v383zM185 647c-33 0 -58 24 -58 56c0 33 25 57 58 57c32 0 57 -24 57 -57c0 -32 -25 -56 -57 -56zM394 647c-32 0 -57 24 -57 56
c0 33 25 57 57 57c33 0 58 -24 58 -57c0 -32 -25 -56 -58 -56z" />
    <glyph glyph-name="ugrave" unicode="&#xf9;" horiz-adv-x="582" 
d="M93 527h92v-372c0 -68 21 -95 78 -95c54 0 101 37 129 81v386h92v-527h-79l-7 70c-41 -53 -99 -82 -160 -82c-101 0 -145 58 -145 156v383zM399 672l-29 -50l-206 93l47 77z" />
    <glyph glyph-name="yacute" unicode="&#xfd;" horiz-adv-x="491" 
d="M480 527l-176 -530c-37 -111 -100 -196 -242 -210l-13 72c108 18 142 61 167 141h-31l-174 527h98l136 -453h4l136 453h95zM176 622l-30 50l188 119l47 -77z" />
    <glyph glyph-name="ydieresis" unicode="&#xff;" horiz-adv-x="491" 
d="M480 527l-176 -530c-37 -111 -100 -196 -242 -210l-13 72c108 18 142 61 167 141h-31l-174 527h98l136 -453h4l136 453h95zM143 647c-33 0 -58 24 -58 56c0 33 25 57 58 57c32 0 57 -24 57 -57c0 -32 -25 -56 -57 -56zM352 647c-32 0 -57 24 -57 56c0 33 25 57 57 57
c33 0 58 -24 58 -57c0 -32 -25 -56 -58 -56z" />
    <glyph glyph-name="zcaron" unicode="&#x17e;" horiz-adv-x="440" 
d="M405 457l-275 -380h278l-11 -77h-371v69l274 380h-251v78h356v-70zM98 792l125 -91l125 91l40 -44l-135 -121h-61l-136 121z" />
    <glyph glyph-name="parenleftsuperior" unicode="&#x207d;" horiz-adv-x="400" 
d="M193 509c0 -134 34 -203 89 -286l-48 -30c-63 90 -117 165 -117 316c0 152 54 227 117 317l48 -30c-55 -83 -89 -152 -89 -287z" />
    <glyph glyph-name="parenrightsuperior" unicode="&#x207e;" horiz-adv-x="400" 
d="M206 510c0 134 -34 203 -89 286l48 30c63 -90 117 -165 117 -316c0 -152 -54 -227 -117 -317l-48 30c55 83 89 152 89 287z" />
    <glyph glyph-name="nsuperior" unicode="&#x207f;" horiz-adv-x="512" 
d="M190 699v-287h-69v397h59l5 -55c32 41 80 63 127 63c77 0 107 -43 107 -117v-288h-69v284c0 47 -17 67 -61 67s-78 -33 -99 -64z" />
    <glyph glyph-name="parenleftinferior" unicode="&#x208d;" horiz-adv-x="400" 
d="M193 -7c0 -134 34 -203 89 -286l-48 -30c-63 90 -117 165 -117 316c0 152 54 227 117 317l48 -30c-55 -83 -89 -152 -89 -287z" />
    <glyph glyph-name="parenrightinferior" unicode="&#x208e;" horiz-adv-x="400" 
d="M206 -6c0 134 -34 203 -89 286l48 30c63 -90 117 -165 117 -316c0 -152 -54 -227 -117 -317l-48 30c55 83 89 152 89 287z" />
    <glyph glyph-name="figuredash" unicode="&#x2012;" 
d="M545 274h-530v78h530v-78z" />
    <glyph glyph-name="oneeighth" unicode="&#x215b;" horiz-adv-x="920" 
d="M272 278h-75v336l-94 -51l-37 52l145 84h61v-421zM693 721l-404 -800l-62 30l405 800zM862 319c0 -41 -31 -70 -77 -90c66 -24 94 -62 94 -110c0 -71 -61 -125 -160 -125c-101 0 -159 54 -159 123c0 46 34 86 87 102c-43 21 -69 54 -69 98c0 79 79 110 142 110
c70 0 142 -31 142 -108zM800 118c0 44 -41 58 -103 78c-33 -17 -57 -41 -57 -78c0 -39 26 -63 79 -63c51 0 81 28 81 63zM655 318c0 -35 29 -52 79 -67c34 20 52 41 52 66c0 30 -24 51 -66 51s-65 -18 -65 -50z" />
    <glyph glyph-name="threeeighths" unicode="&#x215c;" horiz-adv-x="920" 
d="M344 404c0 -75 -65 -132 -162 -132c-53 0 -105 18 -145 63l49 43c26 -30 60 -44 94 -44c53 0 84 28 84 70c0 50 -33 66 -79 66h-37l8 60h25c38 0 71 17 71 58c0 37 -29 56 -68 56c-36 0 -65 -13 -94 -40l-41 46c44 38 89 55 138 55c90 0 143 -49 143 -109
c0 -38 -27 -76 -77 -88v-3c49 -7 91 -50 91 -101zM693 721l-404 -800l-62 30l405 800zM862 319c0 -41 -31 -70 -77 -90c66 -24 94 -62 94 -110c0 -71 -61 -125 -160 -125c-101 0 -159 54 -159 123c0 46 34 86 87 102c-43 21 -69 54 -69 98c0 79 79 110 142 110
c70 0 142 -31 142 -108zM800 118c0 44 -41 58 -103 78c-33 -17 -57 -41 -57 -78c0 -39 26 -63 79 -63c51 0 81 28 81 63zM655 318c0 -35 29 -52 79 -67c34 20 52 41 52 66c0 30 -24 51 -66 51s-65 -18 -65 -50z" />
    <glyph glyph-name="fiveeighths" unicode="&#x215d;" horiz-adv-x="920" 
d="M342 417c0 -82 -63 -145 -157 -145c-53 0 -97 17 -135 60l47 43c27 -28 55 -41 87 -41c48 0 78 33 78 83c0 56 -29 77 -67 77c-18 0 -37 -6 -57 -16h-57v221h245l-7 -61h-163v-98c20 8 39 12 56 12c78 0 130 -52 130 -135zM693 721l-404 -800l-62 30l405 800zM862 319
c0 -41 -31 -70 -77 -90c66 -24 94 -62 94 -110c0 -71 -61 -125 -160 -125c-101 0 -159 54 -159 123c0 46 34 86 87 102c-43 21 -69 54 -69 98c0 79 79 110 142 110c70 0 142 -31 142 -108zM800 118c0 44 -41 58 -103 78c-33 -17 -57 -41 -57 -78c0 -39 26 -63 79 -63
c51 0 81 28 81 63zM655 318c0 -35 29 -52 79 -67c34 20 52 41 52 66c0 30 -24 51 -66 51s-65 -18 -65 -50z" />
    <glyph glyph-name="seveneighths" unicode="&#x215e;" horiz-adv-x="920" 
d="M379 648l-178 -378l-72 22l167 345h-199v62h282v-51zM693 721l-404 -800l-62 30l405 800zM862 319c0 -41 -31 -70 -77 -90c66 -24 94 -62 94 -110c0 -71 -61 -125 -160 -125c-101 0 -159 54 -159 123c0 46 34 86 87 102c-43 21 -69 54 -69 98c0 79 79 110 142 110
c70 0 142 -31 142 -108zM800 118c0 44 -41 58 -103 78c-33 -17 -57 -41 -57 -78c0 -39 26 -63 79 -63c51 0 81 28 81 63zM655 318c0 -35 29 -52 79 -67c34 20 52 41 52 66c0 30 -24 51 -66 51s-65 -18 -65 -50z" />
    <glyph glyph-name="onethird" unicode="&#x2153;" horiz-adv-x="920" 
d="M272 278h-75v336l-94 -51l-37 52l145 84h61v-421zM693 721l-404 -800l-62 30l405 800zM869 126c0 -75 -65 -132 -162 -132c-53 0 -105 18 -145 63l49 43c26 -30 60 -44 94 -44c53 0 84 28 84 70c0 50 -33 66 -79 66h-37l8 60h25c38 0 71 17 71 58c0 37 -29 56 -68 56
c-36 0 -65 -13 -94 -40l-41 46c44 38 89 55 138 55c90 0 143 -49 143 -109c0 -38 -27 -76 -77 -88v-3c49 -7 91 -50 91 -101z" />
    <glyph glyph-name="twothirds" unicode="&#x2154;" horiz-adv-x="920" 
d="M333 584c0 -71 -57 -140 -178 -243h188l-9 -63h-278v55c151 138 196 192 196 249c0 38 -27 60 -63 60c-32 0 -57 -12 -86 -47l-53 40c40 46 86 70 143 70c86 0 140 -51 140 -121zM693 721l-404 -800l-62 30l405 800zM869 126c0 -75 -65 -132 -162 -132
c-53 0 -105 18 -145 63l49 43c26 -30 60 -44 94 -44c53 0 84 28 84 70c0 50 -33 66 -79 66h-37l8 60h25c38 0 71 17 71 58c0 37 -29 56 -68 56c-36 0 -65 -13 -94 -40l-41 46c44 38 89 55 138 55c90 0 143 -49 143 -109c0 -38 -27 -76 -77 -88v-3c49 -7 91 -50 91 -101z" />
    <glyph glyph-name="zerosuperior" unicode="&#x2070;" horiz-adv-x="400" 
d="M274 529c0 116 -27 154 -74 154s-75 -42 -75 -154c0 -109 27 -156 75 -156c47 0 74 41 74 156zM354 529c0 -142 -53 -217 -154 -217s-155 75 -155 217c0 143 54 216 155 216s154 -73 154 -216z" />
    <glyph glyph-name="foursuperior" unicode="&#x2074;" horiz-adv-x="400" 
d="M354 414h-54v-96h-76v96h-179v50l134 285l65 -26l-113 -248h93l7 105h69v-105h54v-61z" />
    <glyph glyph-name="fivesuperior" unicode="&#x2075;" horiz-adv-x="400" 
d="M342 457c0 -82 -63 -145 -157 -145c-53 0 -97 17 -135 60l47 43c27 -28 55 -41 87 -41c48 0 78 33 78 83c0 56 -29 77 -67 77c-18 0 -37 -6 -57 -16h-57v221h245l-7 -61h-163v-98c20 8 39 12 56 12c78 0 130 -52 130 -135z" />
    <glyph glyph-name="sixsuperior" unicode="&#x2076;" horiz-adv-x="400" 
d="M330 715l-36 -49c-24 15 -43 18 -60 18c-51 0 -98 -40 -107 -136c27 37 70 52 101 52c68 0 128 -46 128 -141c0 -92 -67 -147 -146 -147c-113 0 -160 92 -160 197c0 141 72 236 185 236c31 0 62 -8 95 -30zM214 539c-32 0 -63 -21 -85 -49c2 -74 29 -117 81 -117
c44 0 68 33 68 84c0 60 -27 82 -64 82z" />
    <glyph glyph-name="sevensuperior" unicode="&#x2077;" horiz-adv-x="400" 
d="M339 688l-178 -378l-72 22l167 345h-199v62h282v-51z" />
    <glyph glyph-name="eightsuperior" unicode="&#x2078;" horiz-adv-x="400" 
d="M342 637c0 -41 -31 -70 -77 -90c66 -24 94 -62 94 -110c0 -71 -61 -125 -160 -125c-101 0 -159 54 -159 123c0 46 34 86 87 102c-43 21 -69 54 -69 98c0 79 79 110 142 110c70 0 142 -31 142 -108zM280 436c0 44 -41 58 -103 78c-33 -17 -57 -41 -57 -78
c0 -39 26 -63 79 -63c51 0 81 28 81 63zM135 636c0 -35 29 -52 79 -67c34 20 52 41 52 66c0 30 -24 51 -66 51s-65 -18 -65 -50z" />
    <glyph glyph-name="ninesuperior" unicode="&#x2079;" horiz-adv-x="400" 
d="M96 304l-19 59c98 24 169 64 197 152l-3 1c-20 -31 -57 -48 -100 -48c-72 0 -130 54 -130 137c0 88 72 140 155 140c98 0 153 -67 153 -164c0 -159 -83 -234 -253 -277zM187 528c31 0 61 11 85 44c0 80 -29 112 -77 112c-43 0 -75 -25 -75 -80c0 -53 30 -76 67 -76z" />
    <glyph glyph-name="zeroinferior" unicode="&#x2080;" horiz-adv-x="400" 
d="M274 13c0 116 -27 154 -74 154s-75 -42 -75 -154c0 -109 27 -156 75 -156c47 0 74 41 74 156zM354 13c0 -142 -53 -217 -154 -217s-155 75 -155 217c0 143 54 216 155 216s154 -73 154 -216z" />
    <glyph glyph-name="oneinferior" unicode="&#x2081;" horiz-adv-x="400" 
d="M272 -198h-75v336l-94 -51l-37 52l145 84h61v-421z" />
    <glyph glyph-name="twoinferior" unicode="&#x2082;" horiz-adv-x="400" 
d="M333 108c0 -71 -57 -140 -178 -243h188l-9 -63h-278v55c151 138 196 192 196 249c0 38 -27 60 -63 60c-32 0 -57 -12 -86 -47l-53 40c40 46 86 70 143 70c86 0 140 -51 140 -121z" />
    <glyph glyph-name="threeinferior" unicode="&#x2083;" horiz-adv-x="400" 
d="M344 -72c0 -75 -65 -132 -162 -132c-53 0 -105 18 -145 63l49 43c26 -30 60 -44 94 -44c53 0 84 28 84 70c0 50 -33 66 -79 66h-37l8 60h25c38 0 71 17 71 58c0 37 -29 56 -68 56c-36 0 -65 -13 -94 -40l-41 46c44 38 89 55 138 55c90 0 143 -49 143 -109
c0 -38 -27 -76 -77 -88v-3c49 -7 91 -50 91 -101z" />
    <glyph glyph-name="fourinferior" unicode="&#x2084;" horiz-adv-x="400" 
d="M354 -102h-54v-96h-76v96h-179v50l134 285l65 -26l-113 -248h93l7 105h69v-105h54v-61z" />
    <glyph glyph-name="fiveinferior" unicode="&#x2085;" horiz-adv-x="400" 
d="M342 -59c0 -82 -63 -145 -157 -145c-53 0 -97 17 -135 60l47 43c27 -28 55 -41 87 -41c48 0 78 33 78 83c0 56 -29 77 -67 77c-18 0 -37 -6 -57 -16h-57v221h245l-7 -61h-163v-98c20 8 39 12 56 12c78 0 130 -52 130 -135z" />
    <glyph glyph-name="sixinferior" unicode="&#x2086;" horiz-adv-x="400" 
d="M330 199l-36 -49c-24 15 -43 18 -60 18c-51 0 -98 -40 -107 -136c27 37 70 52 101 52c68 0 128 -46 128 -141c0 -92 -67 -147 -146 -147c-113 0 -160 92 -160 197c0 141 72 236 185 236c31 0 62 -8 95 -30zM214 23c-32 0 -63 -21 -85 -49c2 -74 29 -117 81 -117
c44 0 68 33 68 84c0 60 -27 82 -64 82z" />
    <glyph glyph-name="seveninferior" unicode="&#x2087;" horiz-adv-x="400" 
d="M339 172l-178 -378l-72 22l167 345h-199v62h282v-51z" />
    <glyph glyph-name="eightinferior" unicode="&#x2088;" horiz-adv-x="400" 
d="M342 121c0 -41 -31 -70 -77 -90c66 -24 94 -62 94 -110c0 -71 -61 -125 -160 -125c-101 0 -159 54 -159 123c0 46 34 86 87 102c-43 21 -69 54 -69 98c0 79 79 110 142 110c70 0 142 -31 142 -108zM280 -80c0 44 -41 58 -103 78c-33 -17 -57 -41 -57 -78
c0 -39 26 -63 79 -63c51 0 81 28 81 63zM135 120c0 -35 29 -52 79 -67c34 20 52 41 52 66c0 30 -24 51 -66 51s-65 -18 -65 -50z" />
    <glyph glyph-name="nineinferior" unicode="&#x2089;" horiz-adv-x="400" 
d="M96 -212l-19 59c98 24 169 64 197 152l-3 1c-20 -31 -57 -48 -100 -48c-72 0 -130 54 -130 137c0 88 72 140 155 140c98 0 153 -67 153 -164c0 -159 -83 -234 -253 -277zM187 12c31 0 61 11 85 44c0 80 -29 112 -77 112c-43 0 -75 -25 -75 -80c0 -53 30 -76 67 -76z" />
    <glyph glyph-name="Abreve" unicode="&#x102;" horiz-adv-x="579" 
d="M473 0l-53 173h-265l-53 -173h-96l224 689h120l223 -689h-100zM286 603l-108 -353h219l-107 353h-4zM288 755c-94 0 -142 71 -150 131l61 13c13 -49 42 -74 89 -74s78 25 91 74l61 -13c-8 -60 -57 -131 -152 -131z" />
    <glyph glyph-name="Amacron" unicode="&#x100;" horiz-adv-x="579" 
d="M473 0l-53 173h-265l-53 -173h-96l224 689h120l223 -689h-100zM286 603l-108 -353h219l-107 353h-4zM426 861v-70h-273v70h273z" />
    <glyph glyph-name="Aogonek" unicode="&#x104;" horiz-adv-x="579" 
d="M473 0l-53 173h-265l-53 -173h-96l224 689h120l223 -689c-74 -44 -90 -92 -90 -127c0 -31 19 -53 64 -53c27 0 50 8 62 15l25 -54c-32 -16 -63 -22 -97 -22c-84 0 -131 44 -131 111c0 48 35 97 92 130h-25zM286 603l-108 -353h219l-107 353h-4z" />
    <glyph glyph-name="AEacute" unicode="&#x1fc;" horiz-adv-x="794" 
d="M458 0l-41 173h-267l-65 -173h-97l274 689h459l-11 -75h-309l56 -227h255v-75h-235l58 -237h227v-75h-304zM313 605l-135 -355h222l-82 355h-5zM389 749l-28 49l189 109l47 -77z" />
    <glyph glyph-name="Cacute" unicode="&#x106;" horiz-adv-x="571" 
d="M353 68c72 0 116 29 150 59l49 -62c-43 -41 -107 -77 -203 -77c-166 0 -287 125 -287 357s132 356 286 356c88 0 140 -24 194 -68l-52 -61c-42 35 -87 51 -136 51c-102 0 -191 -71 -191 -278c0 -199 83 -277 190 -277zM250 750l-28 49l189 109l47 -77z" />
    <glyph glyph-name="Ccaron" unicode="&#x10c;" horiz-adv-x="571" 
d="M353 68c72 0 116 29 150 59l49 -62c-43 -41 -107 -77 -203 -77c-166 0 -287 125 -287 357s132 356 286 356c88 0 140 -24 194 -68l-52 -61c-42 35 -87 51 -136 51c-102 0 -191 -71 -191 -278c0 -199 83 -277 190 -277zM212 910l127 -82l126 82l39 -45l-135 -111h-61
l-136 111z" />
    <glyph glyph-name="Ccircumflex" unicode="&#x108;" horiz-adv-x="571" 
d="M353 68c72 0 116 29 150 59l49 -62c-43 -41 -107 -77 -203 -77c-166 0 -287 125 -287 357s132 356 286 356c88 0 140 -24 194 -68l-52 -61c-42 35 -87 51 -136 51c-102 0 -191 -71 -191 -278c0 -199 83 -277 190 -277zM338 835l-126 -81l-40 45l136 111h61l135 -111
l-39 -45z" />
    <glyph glyph-name="Cdotaccent" unicode="&#x10a;" horiz-adv-x="571" 
d="M353 68c72 0 116 29 150 59l49 -62c-43 -41 -107 -77 -203 -77c-166 0 -287 125 -287 357s132 356 286 356c88 0 140 -24 194 -68l-52 -61c-42 35 -87 51 -136 51c-102 0 -191 -71 -191 -278c0 -199 83 -277 190 -277zM401 832c0 -36 -26 -63 -64 -63s-64 27 -64 63
c0 35 26 62 64 62s64 -27 64 -62z" />
    <glyph glyph-name="Dcaron" unicode="&#x10e;" horiz-adv-x="656" 
d="M493 348c0 234 -116 265 -213 265h-80v-538h81c101 0 212 50 212 273zM594 348c0 -285 -175 -348 -324 -348h-165v689h154c166 0 335 -55 335 -341zM176 910l127 -82l126 82l39 -45l-135 -111h-61l-136 111z" />
    <glyph glyph-name="Dcroat" unicode="&#x110;" horiz-adv-x="656" 
d="M594 348c0 -285 -175 -348 -324 -348h-165v318h-82v70h82v301h154c166 0 335 -55 335 -341zM493 348c0 234 -116 265 -213 265h-80v-225h172v-70h-172v-243h81c101 0 212 50 212 273z" />
    <glyph glyph-name="Ebreve" unicode="&#x114;" horiz-adv-x="540" 
d="M467 613h-267v-225h232v-76h-232v-236h286v-76h-381v689h373zM287 755c-94 0 -142 71 -150 131l61 13c13 -49 42 -74 89 -74s78 25 91 74l61 -13c-8 -60 -57 -131 -152 -131z" />
    <glyph glyph-name="Ecaron" unicode="&#x11a;" horiz-adv-x="540" 
d="M467 613h-267v-225h232v-76h-232v-236h286v-76h-381v689h373zM162 910l127 -82l126 82l39 -45l-135 -111h-61l-136 111z" />
    <glyph glyph-name="Edotaccent" unicode="&#x116;" horiz-adv-x="540" 
d="M467 613h-267v-225h232v-76h-232v-236h286v-76h-381v689h373zM351 832c0 -36 -26 -63 -64 -63s-64 27 -64 63c0 35 26 62 64 62s64 -27 64 -62z" />
    <glyph glyph-name="Emacron" unicode="&#x112;" horiz-adv-x="540" 
d="M467 613h-267v-225h232v-76h-232v-236h286v-76h-381v689h373zM425 861v-70h-273v70h273z" />
    <glyph glyph-name="Eogonek" unicode="&#x118;" horiz-adv-x="540" 
d="M467 613h-267v-225h232v-76h-232v-237h286v-75c-74 -44 -90 -93 -90 -127c0 -31 18 -53 64 -53c27 0 50 8 61 15l25 -54c-32 -16 -63 -22 -96 -22c-84 0 -131 44 -131 111c0 48 35 97 92 130h-306v689h373z" />
    <glyph glyph-name="Gbreve" unicode="&#x11e;" horiz-adv-x="638" 
d="M344 -12c-171 0 -282 119 -282 357c0 237 148 356 300 356c95 0 151 -27 206 -77l-56 -58c-42 39 -89 57 -149 57c-101 0 -200 -70 -200 -278c0 -198 67 -279 188 -279c46 0 92 9 131 32v204h-130l-11 77h235v-330c-63 -37 -135 -61 -232 -61zM343 755
c-94 0 -142 71 -150 131l61 13c13 -49 42 -74 89 -74s78 25 91 74l61 -13c-8 -60 -57 -131 -152 -131z" />
    <glyph glyph-name="Gcircumflex" unicode="&#x11c;" horiz-adv-x="638" 
d="M344 -12c-171 0 -282 119 -282 357c0 237 148 356 300 356c95 0 151 -27 206 -77l-56 -58c-42 39 -89 57 -149 57c-101 0 -200 -70 -200 -278c0 -198 67 -279 188 -279c46 0 92 9 131 32v204h-130l-11 77h235v-330c-63 -37 -135 -61 -232 -61zM346 835l-126 -81l-40 45
l136 111h61l135 -111l-39 -45z" />
    <glyph glyph-name="Gcommaaccent" unicode="&#x122;" horiz-adv-x="638" 
d="M344 -12c-171 0 -282 119 -282 357c0 237 148 356 300 356c95 0 151 -27 206 -77l-56 -58c-42 39 -89 57 -149 57c-101 0 -200 -70 -200 -278c0 -198 67 -279 188 -279c46 0 92 9 131 32v204h-130l-11 77h235v-330c-63 -37 -135 -61 -232 -61zM291 -126c0 32 26 56 58 56
s57 -24 57 -56c0 -17 -5 -33 -17 -57l-50 -106h-53l29 116c-14 12 -24 28 -24 47z" />
    <glyph glyph-name="Gdotaccent" unicode="&#x120;" horiz-adv-x="638" 
d="M344 -12c-171 0 -282 119 -282 357c0 237 148 356 300 356c95 0 151 -27 206 -77l-56 -58c-42 39 -89 57 -149 57c-101 0 -200 -70 -200 -278c0 -198 67 -279 188 -279c46 0 92 9 131 32v204h-130l-11 77h235v-330c-63 -37 -135 -61 -232 -61zM406 832
c0 -36 -26 -63 -64 -63s-64 27 -64 63c0 35 26 62 64 62s64 -27 64 -62z" />
    <glyph glyph-name="Hbar" unicode="&#x126;" horiz-adv-x="695" 
d="M583 0h-95v323h-281v-323h-95v508h-77v69h77v112h95v-112h281v112h95v-112h77v-69h-77v-508zM207 401h281v107h-281v-107z" />
    <glyph glyph-name="Hcircumflex" unicode="&#x124;" horiz-adv-x="680" 
d="M575 0h-95v323h-280v-323h-95v689h95v-288h280v288h95v-689zM340 835l-126 -81l-40 45l136 111h61l135 -111l-39 -45z" />
    <glyph glyph-name="IJ" unicode="&#x132;" horiz-adv-x="613" 
d="M201 0h-96v689h96v-689zM334 -139l-24 74c89 35 108 73 108 165v589h95v-593c0 -142 -69 -198 -179 -235z" />
    <glyph glyph-name="Ibreve" unicode="&#x12c;" horiz-adv-x="306" 
d="M201 0h-96v689h96v-689zM152 755c-94 0 -142 71 -150 131l61 13c13 -49 42 -74 89 -74s78 25 91 74l61 -13c-8 -60 -57 -131 -152 -131z" />
    <glyph glyph-name="Idotaccent" unicode="&#x130;" horiz-adv-x="306" 
d="M201 0h-96v689h96v-689zM216 832c0 -36 -26 -63 -64 -63s-64 27 -64 63c0 35 26 62 64 62s64 -27 64 -62z" />
    <glyph glyph-name="Imacron" unicode="&#x12a;" horiz-adv-x="306" 
d="M201 0h-96v689h96v-689zM289 861v-70h-273v70h273z" />
    <glyph glyph-name="Iogonek" unicode="&#x12e;" horiz-adv-x="306" 
d="M201 689v-689c-75 -44 -91 -93 -91 -127c0 -31 19 -53 64 -53c27 0 50 8 62 15l25 -54c-32 -16 -64 -22 -97 -22c-84 0 -131 44 -131 111c0 48 35 97 92 130h-20v689h96z" />
    <glyph glyph-name="Itilde" unicode="&#x128;" horiz-adv-x="306" 
d="M201 0h-96v689h96v-689zM206 768c-58 0 -79 48 -110 48c-23 0 -35 -16 -51 -44l-57 25c20 47 55 89 113 89c60 0 79 -48 110 -48c22 0 35 15 51 43l57 -25c-21 -47 -56 -88 -113 -88z" />
    <glyph glyph-name="Jcircumflex" unicode="&#x134;" horiz-adv-x="308" 
d="M29 -139l-24 74c89 35 108 73 108 165v589h95v-593c0 -142 -69 -198 -179 -235zM159 835l-126 -81l-40 45l136 111h61l135 -111l-39 -45z" />
    <glyph glyph-name="Kcommaaccent" unicode="&#x136;" horiz-adv-x="594" 
d="M200 689v-689h-95v689h95zM477 0l-272 368l262 321h108l-261 -315l280 -374h-117zM255 -125c0 32 26 56 58 56s57 -24 57 -56c0 -17 -5 -33 -17 -57l-50 -106h-53l29 116c-14 12 -24 28 -24 47z" />
    <glyph glyph-name="Lacute" unicode="&#x139;" horiz-adv-x="503" 
d="M472 0h-367v689h95v-606h283zM96 750l-28 49l189 109l47 -77z" />
    <glyph glyph-name="Lcaron" unicode="&#x13d;" horiz-adv-x="503" 
d="M472 0h-367v689h95v-606h283zM308 637c0 31 26 55 58 55s57 -24 57 -55c0 -18 -5 -34 -17 -58l-50 -106h-53l28 117c-14 11 -23 27 -23 47z" />
    <glyph glyph-name="Lcommaaccent" unicode="&#x13b;" horiz-adv-x="503" 
d="M472 0h-367v689h95v-606h283zM222 -125c0 32 26 56 58 56s57 -24 57 -56c0 -17 -5 -33 -17 -57l-50 -106h-53l29 116c-14 12 -24 28 -24 47z" />
    <glyph glyph-name="Ldot" unicode="&#x13f;" horiz-adv-x="503" 
d="M472 0h-367v689h95v-606h283zM451 361c0 -36 -26 -63 -65 -63c-38 0 -64 27 -64 63c0 35 26 62 64 62c39 0 65 -27 65 -62z" />
    <glyph glyph-name="Nacute" unicode="&#x143;" horiz-adv-x="689" 
d="M584 0h-129l-270 583h-4c2 -16 13 -139 13 -247v-336h-89v689h126l273 -586h4c-2 16 -13 126 -13 250v336h89v-689zM275 750l-28 49l189 109l47 -77z" />
    <glyph glyph-name="Ncaron" unicode="&#x147;" horiz-adv-x="689" 
d="M584 0h-129l-270 583h-4c2 -16 13 -139 13 -247v-336h-89v689h126l273 -586h4c-2 16 -13 126 -13 250v336h89v-689zM214 910l127 -82l126 82l39 -45l-135 -111h-61l-136 111z" />
    <glyph glyph-name="Ncommaaccent" unicode="&#x145;" horiz-adv-x="689" 
d="M584 0h-129l-270 583h-4c2 -16 13 -139 13 -247v-336h-89v689h126l273 -586h4c-2 16 -13 126 -13 250v336h89v-689zM286 -125c0 32 26 56 58 56s57 -24 57 -56c0 -17 -5 -33 -17 -57l-50 -106h-53l29 116c-14 12 -24 28 -24 47z" />
    <glyph glyph-name="Eng" unicode="&#x14a;" horiz-adv-x="689" 
d="M584 689v-691c0 -112 -68 -173 -178 -211l-24 72c89 35 110 73 111 141h-38l-270 583h-4c2 -17 13 -150 13 -264v-319h-89v689h126l274 -586h4c-2 17 -13 138 -13 266v320h88z" />
    <glyph glyph-name="Obreve" unicode="&#x14e;" horiz-adv-x="696" 
d="M634 344c0 -230 -117 -356 -286 -356s-286 121 -286 355c0 230 117 358 286 358s286 -123 286 -357zM533 344c0 202 -73 279 -185 279s-185 -78 -185 -280s76 -277 185 -277c112 0 185 76 185 278zM346 755c-94 0 -142 71 -150 131l61 13c13 -49 42 -74 89 -74
s78 25 91 74l61 -13c-8 -60 -57 -131 -152 -131z" />
    <glyph glyph-name="Ohungarumlaut" unicode="&#x150;" horiz-adv-x="696" 
d="M634 344c0 -230 -117 -356 -286 -356s-286 121 -286 355c0 230 117 358 286 358s286 -123 286 -357zM533 344c0 202 -73 279 -185 279s-185 -78 -185 -280s76 -277 185 -277c112 0 185 76 185 278zM301 760l-58 27l80 176l78 -37zM463 758l-56 29l89 176l77 -40z" />
    <glyph glyph-name="Omacron" unicode="&#x14c;" horiz-adv-x="696" 
d="M634 344c0 -230 -117 -356 -286 -356s-286 121 -286 355c0 230 117 358 286 358s286 -123 286 -357zM533 344c0 202 -73 279 -185 279s-185 -78 -185 -280s76 -277 185 -277c112 0 185 76 185 278zM484 861v-70h-273v70h273z" />
    <glyph glyph-name="Oslashacute" unicode="&#x1fe;" horiz-adv-x="696" 
d="M533 344c0 134 -29 211 -81 248l-151 -521c14 -4 31 -5 47 -5c112 0 185 76 185 278zM163 343c0 -134 30 -210 81 -247l151 522c-11 2 -30 5 -47 5c-112 0 -185 -78 -185 -280zM634 344c0 -230 -117 -356 -286 -356c-22 0 -43 2 -63 7l-37 -126l-79 21l41 132
c-91 51 -148 159 -148 321c0 230 117 358 286 358c22 0 43 -3 63 -7l37 125l79 -21l-41 -132c91 -51 148 -161 148 -322zM230 778l-28 49l189 109l47 -77z" />
    <glyph glyph-name="Racute" unicode="&#x154;" horiz-adv-x="607" 
d="M548 494c0 -103 -72 -166 -165 -190l202 -304h-113l-184 292h-88v-292h-95v689h181c172 0 262 -66 262 -195zM447 494c0 86 -49 121 -152 121h-95v-250h96c96 0 151 36 151 129zM229 750l-28 49l189 109l47 -77z" />
    <glyph glyph-name="Rcaron" unicode="&#x158;" horiz-adv-x="607" 
d="M548 494c0 -103 -72 -166 -165 -190l202 -304h-113l-184 292h-88v-292h-95v689h181c172 0 262 -66 262 -195zM447 494c0 86 -49 121 -152 121h-95v-250h96c96 0 151 36 151 129zM177 910l127 -82l126 82l39 -45l-135 -111h-61l-136 111z" />
    <glyph glyph-name="Rcommaaccent" unicode="&#x156;" horiz-adv-x="607" 
d="M548 494c0 -103 -72 -166 -165 -190l202 -304h-113l-184 292h-88v-292h-95v689h181c172 0 262 -66 262 -195zM447 494c0 86 -49 121 -152 121h-95v-250h96c96 0 151 36 151 129zM252 -125c0 32 26 56 58 56s57 -24 57 -56c0 -17 -5 -33 -17 -57l-50 -106h-53l29 116
c-14 12 -24 28 -24 47z" />
    <glyph glyph-name="Sacute" unicode="&#x15a;" horiz-adv-x="545" 
d="M507 192c0 -120 -91 -204 -244 -204c-101 0 -179 33 -236 89l55 61c47 -45 103 -72 178 -72c81 0 148 40 148 123c0 65 -33 97 -149 133c-134 41 -204 92 -204 199c0 106 88 180 217 180c96 0 157 -28 213 -80l-54 -60c-48 44 -97 62 -155 62c-69 0 -124 -32 -124 -98
c0 -58 27 -86 151 -124c110 -34 204 -77 204 -209zM188 750l-28 49l189 109l47 -77z" />
    <glyph glyph-name="Scedilla" unicode="&#x15e;" horiz-adv-x="545" 
d="M311 -141c0 35 -33 42 -87 42l7 88c-86 6 -153 38 -204 88l55 61c47 -45 101 -72 178 -72c81 0 148 40 148 123c0 65 -32 95 -148 131c-134 41 -205 94 -205 201c0 106 88 180 217 180c96 0 157 -28 213 -80l-54 -60c-48 44 -97 62 -155 62c-69 0 -124 -32 -124 -98
c0 -58 29 -86 153 -124c110 -34 202 -77 202 -209c0 -113 -75 -193 -213 -203v-45c66 -6 94 -44 94 -85c0 -66 -58 -100 -125 -100c-41 0 -80 10 -106 25l28 51c19 -10 45 -16 66 -16c36 0 60 11 60 40z" />
    <glyph glyph-name="Scircumflex" unicode="&#x15c;" horiz-adv-x="545" 
d="M507 192c0 -120 -91 -204 -244 -204c-101 0 -179 33 -236 89l55 61c47 -45 103 -72 178 -72c81 0 148 40 148 123c0 65 -33 97 -149 133c-134 41 -204 92 -204 199c0 106 88 180 217 180c96 0 157 -28 213 -80l-54 -60c-48 44 -97 62 -155 62c-69 0 -124 -32 -124 -98
c0 -58 27 -86 151 -124c110 -34 204 -77 204 -209zM278 835l-126 -81l-40 45l136 111h61l135 -111l-39 -45z" />
    <glyph glyph-name="Scommaaccent" unicode="&#x218;" horiz-adv-x="545" 
d="M507 192c0 -120 -91 -204 -244 -204c-101 0 -179 33 -236 89l55 61c47 -45 103 -72 178 -72c81 0 148 40 148 123c0 65 -33 97 -149 133c-134 41 -204 92 -204 199c0 106 88 180 217 180c96 0 157 -28 213 -80l-54 -60c-48 44 -97 62 -155 62c-69 0 -124 -32 -124 -98
c0 -58 27 -86 151 -124c110 -34 204 -77 204 -209zM217 -126c0 32 26 56 58 56s57 -24 57 -56c0 -17 -5 -33 -17 -57l-50 -106h-53l29 116c-14 12 -24 28 -24 47z" />
    <glyph glyph-name="Tbar" unicode="&#x166;" horiz-adv-x="517" 
d="M434 433v-70h-125v-363h-95v363h-124v70h124v175h-198v81h493l-10 -81h-190v-175h125z" />
    <glyph glyph-name="Tcaron" unicode="&#x164;" horiz-adv-x="517" 
d="M499 608h-190v-608h-95v608h-198v81h493zM132 910l127 -82l126 82l39 -45l-135 -111h-61l-136 111z" />
    <glyph glyph-name="Tcedilla" unicode="&#x162;" horiz-adv-x="517" 
d="M326 -141c0 35 -33 42 -87 42l7 99h-32v608h-198v81h493l-10 -81h-190v-664c66 -6 94 -44 94 -85c0 -66 -58 -100 -125 -100c-41 0 -80 10 -106 25l28 51c19 -10 45 -16 66 -16c36 0 60 11 60 40z" />
    <glyph glyph-name="Tcommaaccent" unicode="&#x21a;" horiz-adv-x="517" 
d="M499 608h-190v-608h-95v608h-198v81h493zM206 -125c0 32 26 56 58 56s57 -24 57 -56c0 -17 -5 -33 -17 -57l-50 -106h-53l29 116c-14 12 -24 28 -24 47z" />
    <glyph glyph-name="Ubreve" unicode="&#x16c;" horiz-adv-x="672" 
d="M577 689v-465c0 -140 -87 -236 -242 -236c-157 0 -240 96 -240 236v465h95v-461c0 -107 47 -160 145 -160c99 0 146 53 146 160v461h96zM334 755c-94 0 -142 71 -150 131l61 13c13 -49 42 -74 89 -74s78 25 91 74l61 -13c-8 -60 -57 -131 -152 -131z" />
    <glyph glyph-name="Uhungarumlaut" unicode="&#x170;" horiz-adv-x="672" 
d="M577 689v-465c0 -140 -87 -236 -242 -236c-157 0 -240 96 -240 236v465h95v-461c0 -107 47 -160 145 -160c99 0 146 53 146 160v461h96zM271 760l-58 27l80 176l78 -37zM433 758l-56 29l89 176l77 -40z" />
    <glyph glyph-name="Umacron" unicode="&#x16a;" horiz-adv-x="672" 
d="M577 689v-465c0 -140 -87 -236 -242 -236c-157 0 -240 96 -240 236v465h95v-461c0 -107 47 -160 145 -160c99 0 146 53 146 160v461h96zM472 861v-70h-273v70h273z" />
    <glyph glyph-name="Uogonek" unicode="&#x172;" horiz-adv-x="672" 
d="M577 689v-465c0 -101 -47 -177 -128 -215c-90 -43 -107 -98 -107 -136c0 -31 18 -53 64 -53c27 0 50 8 61 15l25 -54c-32 -16 -63 -22 -96 -22c-84 0 -131 44 -131 111c0 43 27 86 77 118c-148 0 -247 84 -247 236v465h95v-461c0 -108 47 -160 145 -160
c99 0 146 53 146 160v461h96z" />
    <glyph glyph-name="Uring" unicode="&#x16e;" horiz-adv-x="672" 
d="M577 689v-465c0 -140 -87 -236 -242 -236c-157 0 -240 96 -240 236v465h95v-461c0 -107 47 -160 145 -160c99 0 146 53 146 160v461h96zM282 840c0 -35 21 -57 54 -57c32 0 53 22 53 57s-21 56 -53 56c-33 0 -54 -21 -54 -56zM450 840c0 -59 -47 -106 -114 -106
s-114 47 -114 106c0 58 47 105 114 105s114 -47 114 -105z" />
    <glyph glyph-name="Utilde" unicode="&#x168;" horiz-adv-x="672" 
d="M577 689v-465c0 -140 -87 -236 -242 -236c-157 0 -240 96 -240 236v465h95v-461c0 -107 47 -160 145 -160c99 0 146 53 146 160v461h96zM388 768c-58 0 -79 48 -110 48c-23 0 -35 -16 -51 -44l-57 25c20 47 55 89 113 89c60 0 79 -48 110 -48c22 0 35 15 51 43l57 -25
c-21 -47 -56 -88 -113 -88z" />
    <glyph glyph-name="Wcircumflex" unicode="&#x174;" horiz-adv-x="830" 
d="M805 689l-140 -689h-124l-126 558h-4l-127 -558h-119l-140 689h93l109 -597h4l133 597h101l136 -594h4l113 594h87zM414 835l-126 -81l-40 45l136 111h61l135 -111l-39 -45z" />
    <glyph glyph-name="Ycircumflex" unicode="&#x176;" horiz-adv-x="550" 
d="M545 689l-222 -424v-265h-96v264l-222 425h105l166 -337h4l166 337h99zM275 835l-126 -81l-40 45l136 111h61l135 -111l-39 -45z" />
    <glyph glyph-name="Zacute" unicode="&#x179;" horiz-adv-x="521" 
d="M478 612l-341 -531h341l-11 -81h-436v76l344 533h-308v80h411v-77zM188 750l-28 49l189 109l47 -77z" />
    <glyph glyph-name="Zdotaccent" unicode="&#x17b;" horiz-adv-x="521" 
d="M478 612l-341 -531h341l-11 -81h-436v76l344 533h-308v80h411v-77zM333 832c0 -36 -26 -63 -64 -63s-64 27 -64 63c0 35 26 62 64 62s64 -27 64 -62z" />
    <glyph glyph-name="abreve" unicode="&#x103;" horiz-adv-x="546" 
d="M453 367v-248c0 -42 12 -57 39 -67l-22 -64c-47 6 -81 27 -97 74c-37 -50 -93 -74 -157 -74c-106 0 -171 65 -171 163c0 109 88 170 248 170h68v41c0 74 -37 102 -114 102c-35 0 -84 -8 -138 -27l-24 68c65 24 124 34 176 34c134 0 192 -65 192 -172zM241 57
c50 0 90 27 120 73v130h-63c-113 0 -152 -41 -152 -105c0 -65 29 -98 95 -98zM263 628c-93 0 -142 76 -150 140l61 13c14 -50 42 -84 89 -84c48 0 78 34 92 84l61 -13c-8 -64 -59 -140 -153 -140z" />
    <glyph glyph-name="amacron" unicode="&#x101;" horiz-adv-x="546" 
d="M453 367v-248c0 -42 12 -57 39 -67l-22 -64c-47 6 -81 27 -97 74c-37 -50 -93 -74 -157 -74c-106 0 -171 65 -171 163c0 109 88 170 248 170h68v41c0 74 -37 102 -114 102c-35 0 -84 -8 -138 -27l-24 68c65 24 124 34 176 34c134 0 192 -65 192 -172zM241 57
c50 0 90 27 120 73v130h-63c-113 0 -152 -41 -152 -105c0 -65 29 -98 95 -98zM401 743v-69h-273v69h273z" />
    <glyph glyph-name="aogonek" unicode="&#x105;" horiz-adv-x="546" 
d="M453 367v-248c0 -42 12 -57 39 -67l-22 -64c-61 -31 -75 -88 -75 -115c0 -31 18 -53 64 -53c27 0 50 8 61 15l25 -54c-32 -16 -63 -22 -96 -22c-84 0 -131 44 -131 111c0 51 39 101 101 133c-21 12 -37 30 -46 59c-38 -50 -93 -74 -157 -74c-106 0 -171 65 -171 163
c0 109 88 170 248 170h69v41c0 74 -38 102 -115 102c-35 0 -84 -8 -138 -27l-24 68c65 24 124 34 176 34c134 0 192 -65 192 -172zM241 57c50 0 91 27 121 73v130h-64c-113 0 -153 -41 -153 -105c0 -65 30 -98 96 -98z" />
    <glyph glyph-name="aeacute" unicode="&#x1fd;" horiz-adv-x="840" 
d="M419 453c31 49 81 86 155 86c138 0 213 -99 213 -260c0 -18 -1 -35 -2 -47h-336c8 -117 62 -169 142 -169c48 0 87 12 132 49l42 -61c-49 -39 -108 -63 -176 -63c-86 0 -146 38 -181 90c-45 -62 -104 -90 -186 -90c-113 0 -177 65 -177 163c0 110 88 170 248 170h69v41
c0 73 -38 102 -115 102c-35 0 -84 -8 -138 -27l-24 68c65 24 124 34 176 34c89 0 137 -34 158 -86zM241 57c55 0 101 32 135 93c-10 32 -14 70 -14 110h-64c-113 0 -153 -41 -153 -104c0 -65 30 -99 96 -99zM574 466c-72 0 -118 -53 -125 -166h247c-2 109 -40 166 -122 166z
M348 622l-30 50l188 119l47 -77z" />
    <glyph glyph-name="cacute" unicode="&#x107;" horiz-adv-x="476" 
d="M293 66c38 0 72 11 115 43l44 -63c-49 -40 -104 -58 -160 -58c-157 0 -235 108 -235 273c0 159 80 278 236 278c56 0 110 -16 159 -57l-45 -60c-43 32 -76 41 -114 41c-85 0 -137 -65 -137 -202c0 -138 52 -195 137 -195zM192 622l-30 50l188 119l47 -77z" />
    <glyph glyph-name="ccaron" unicode="&#x10d;" horiz-adv-x="476" 
d="M293 66c38 0 72 11 115 43l44 -63c-49 -40 -104 -58 -160 -58c-157 0 -235 108 -235 273c0 159 80 278 236 278c56 0 110 -16 159 -57l-45 -60c-43 32 -76 41 -114 41c-85 0 -137 -65 -137 -202c0 -138 52 -195 137 -195zM155 792l125 -91l125 91l40 -44l-135 -121h-61
l-136 121z" />
    <glyph glyph-name="ccircumflex" unicode="&#x109;" horiz-adv-x="476" 
d="M293 66c38 0 72 11 115 43l44 -63c-49 -40 -104 -58 -160 -58c-157 0 -235 108 -235 273c0 159 80 278 236 278c56 0 110 -16 159 -57l-45 -60c-43 32 -76 41 -114 41c-85 0 -137 -65 -137 -202c0 -138 52 -195 137 -195zM280 718l-125 -91l-42 44l136 121h61l135 -121
l-40 -44z" />
    <glyph glyph-name="cdotaccent" unicode="&#x10b;" horiz-adv-x="476" 
d="M293 66c38 0 72 11 115 43l44 -63c-49 -40 -104 -58 -160 -58c-157 0 -235 108 -235 273c0 159 80 278 236 278c56 0 110 -16 159 -57l-45 -60c-43 32 -76 41 -114 41c-85 0 -137 -65 -137 -202c0 -138 52 -195 137 -195zM344 715c0 -36 -26 -63 -65 -63
c-38 0 -64 27 -64 63c0 35 26 62 64 62c39 0 65 -27 65 -62z" />
    <glyph glyph-name="dcaron" unicode="&#x10f;" horiz-adv-x="603" 
d="M289 466c-84 0 -133 -66 -133 -203c0 -139 44 -202 123 -202c56 0 99 38 127 81v259c-28 41 -70 65 -117 65zM265 539c59 0 106 -21 141 -61v272l92 -11v-739h-81l-8 68c-38 -54 -92 -80 -151 -80c-136 0 -201 109 -201 275c0 159 78 276 208 276zM570 762
c0 31 26 55 58 55s57 -24 57 -55c0 -18 -5 -34 -17 -58l-50 -106h-53l28 117c-14 11 -23 27 -23 47z" />
    <glyph glyph-name="dcroat" unicode="&#x111;" horiz-adv-x="606" 
d="M289 466c-84 0 -133 -66 -133 -203c0 -136 45 -202 123 -202c56 0 99 38 127 81v259c-28 41 -70 65 -117 65zM265 539c59 0 106 -21 141 -61v119h-166v70h166v83l92 -11v-72h79v-70h-79v-597h-81l-8 68c-38 -54 -92 -80 -151 -80c-142 0 -201 109 -201 275
c0 159 78 276 208 276z" />
    <glyph glyph-name="ebreve" unicode="&#x115;" horiz-adv-x="546" 
d="M491 232h-336c8 -117 62 -169 142 -169c48 0 87 12 132 49l42 -61c-49 -39 -108 -63 -176 -63c-157 0 -238 111 -238 275c0 159 83 276 223 276c138 0 213 -99 213 -260c0 -18 -1 -35 -2 -47zM280 466c-72 0 -118 -53 -125 -166h247c-2 109 -40 166 -122 166zM280 628
c-93 0 -142 76 -150 140l61 13c14 -50 42 -84 89 -84c48 0 78 34 92 84l61 -13c-8 -64 -59 -140 -153 -140z" />
    <glyph glyph-name="ecaron" unicode="&#x11b;" horiz-adv-x="546" 
d="M491 232h-336c8 -117 62 -169 142 -169c48 0 87 12 132 49l42 -61c-49 -39 -108 -63 -176 -63c-157 0 -238 111 -238 275c0 159 83 276 223 276c138 0 213 -99 213 -260c0 -18 -1 -35 -2 -47zM280 466c-72 0 -118 -53 -125 -166h247c-2 109 -40 166 -122 166zM157 792
l125 -91l125 91l40 -44l-135 -121h-61l-136 121z" />
    <glyph glyph-name="edotaccent" unicode="&#x117;" horiz-adv-x="546" 
d="M491 232h-336c8 -117 62 -169 142 -169c48 0 87 12 132 49l42 -61c-49 -39 -108 -63 -176 -63c-157 0 -238 111 -238 275c0 159 83 276 223 276c138 0 213 -99 213 -260c0 -18 -1 -35 -2 -47zM280 466c-72 0 -118 -53 -125 -166h247c-2 109 -40 166 -122 166zM345 715
c0 -36 -26 -63 -65 -63c-38 0 -64 27 -64 63c0 35 26 62 64 62c39 0 65 -27 65 -62z" />
    <glyph glyph-name="emacron" unicode="&#x113;" horiz-adv-x="546" 
d="M491 232h-336c8 -117 62 -169 142 -169c48 0 87 12 132 49l42 -61c-49 -39 -108 -63 -176 -63c-157 0 -238 111 -238 275c0 159 83 276 223 276c138 0 213 -99 213 -260c0 -18 -1 -35 -2 -47zM280 466c-72 0 -118 -53 -125 -166h247c-2 109 -40 166 -122 166zM417 743
v-69h-273v69h273z" />
    <glyph glyph-name="eogonek" unicode="&#x119;" horiz-adv-x="546" 
d="M491 232h-336c8 -117 62 -169 142 -169c48 0 87 12 132 49l41 -60c-120 -80 -143 -139 -143 -179c0 -31 18 -53 64 -53c27 0 50 8 62 15l24 -54c-31 -16 -63 -22 -96 -22c-84 0 -131 44 -131 111c0 48 33 95 98 133c-25 -9 -45 -15 -74 -15c-129 0 -217 111 -217 275
c0 159 83 276 223 276c138 0 213 -99 213 -260c0 -18 -1 -34 -2 -47zM280 466c-72 0 -118 -53 -125 -166h247c-2 109 -40 166 -122 166z" />
    <glyph glyph-name="gbreve" unicode="&#x11f;" horiz-adv-x="526" 
d="M193 184c-12 -11 -22 -29 -22 -48c0 -24 15 -43 57 -43h73c127 0 200 -52 200 -148c0 -110 -109 -158 -244 -158c-156 0 -226 53 -226 156v4h83c0 -70 57 -88 143 -88c117 0 151 36 151 81c0 44 -21 76 -112 76h-70c-85 0 -140 40 -140 103c0 32 19 65 52 89
c-53 31 -83 82 -83 146c0 104 77 185 206 185c115 0 180 21 238 47l27 -83c-44 -14 -94 -16 -148 -16v-4c52 -24 84 -70 84 -130c0 -102 -74 -178 -199 -178c-24 0 -47 3 -70 9zM149 354c0 -69 40 -118 112 -118s110 47 110 119c0 75 -36 118 -110 118
c-73 0 -112 -51 -112 -119zM259 628c-93 0 -142 76 -150 140l61 13c14 -50 42 -84 89 -84c48 0 78 34 92 84l61 -13c-8 -64 -59 -140 -153 -140z" />
    <glyph glyph-name="gcircumflex" unicode="&#x11d;" horiz-adv-x="526" 
d="M193 184c-12 -11 -22 -29 -22 -48c0 -24 15 -43 57 -43h73c127 0 200 -52 200 -148c0 -110 -109 -158 -244 -158c-156 0 -226 53 -226 156v4h83c0 -70 57 -88 143 -88c117 0 151 36 151 81c0 44 -21 76 -112 76h-70c-85 0 -140 40 -140 103c0 32 19 65 52 89
c-53 31 -83 82 -83 146c0 104 77 185 206 185c115 0 180 21 238 47l27 -83c-44 -14 -94 -16 -148 -16v-4c52 -24 84 -70 84 -130c0 -102 -74 -178 -199 -178c-24 0 -47 3 -70 9zM149 354c0 -69 40 -118 112 -118s110 47 110 119c0 75 -36 118 -110 118
c-73 0 -112 -51 -112 -119zM261 718l-125 -91l-42 44l136 121h61l135 -121l-40 -44z" />
    <glyph glyph-name="gcommaaccent" unicode="&#x123;" horiz-adv-x="526" 
d="M193 184c-12 -11 -22 -29 -22 -48c0 -24 15 -43 57 -43h73c127 0 200 -52 200 -148c0 -110 -109 -158 -244 -158c-156 0 -226 53 -226 156v4h83c0 -70 57 -88 143 -88c117 0 151 36 151 81c0 44 -21 76 -112 76h-70c-85 0 -140 40 -140 103c0 32 19 65 52 89
c-53 31 -83 82 -83 146c0 104 77 185 206 185c115 0 180 21 238 47l27 -83c-44 -14 -94 -16 -148 -16v-4c52 -24 84 -70 84 -130c0 -102 -74 -178 -199 -178c-24 0 -47 3 -70 9zM149 354c0 -69 40 -118 112 -118s110 47 110 119c0 75 -36 118 -110 118
c-73 0 -112 -51 -112 -119zM315 698c0 -31 -26 -56 -58 -56s-57 25 -57 56c0 18 5 34 17 58l50 106h53l-28 -117c14 -11 23 -27 23 -47z" />
    <glyph glyph-name="gdotaccent" unicode="&#x121;" horiz-adv-x="526" 
d="M193 184c-12 -11 -22 -29 -22 -48c0 -24 15 -43 57 -43h73c127 0 200 -52 200 -148c0 -110 -109 -158 -244 -158c-156 0 -226 53 -226 156v4h83c0 -70 57 -88 143 -88c117 0 151 36 151 81c0 44 -21 76 -112 76h-70c-85 0 -140 40 -140 103c0 32 19 65 52 89
c-53 31 -83 82 -83 146c0 104 77 185 206 185c115 0 180 21 238 47l27 -83c-44 -14 -94 -16 -148 -16v-4c52 -24 84 -70 84 -130c0 -102 -74 -178 -199 -178c-24 0 -47 3 -70 9zM149 354c0 -69 40 -118 112 -118s110 47 110 119c0 75 -36 118 -110 118
c-73 0 -112 -51 -112 -119zM326 715c0 -36 -26 -63 -65 -63c-38 0 -64 27 -64 63c0 35 26 62 64 62c39 0 65 -27 65 -62z" />
    <glyph glyph-name="hbar" unicode="&#x127;" horiz-adv-x="599" 
d="M200 382v-382h-92v597h-79v70h79v71l92 10v-81h166v-70h-166v-137c42 50 100 79 162 79c102 0 143 -58 143 -156v-383h-92v377c0 63 -22 90 -82 90c-57 0 -103 -44 -131 -85z" />
    <glyph glyph-name="hcircumflex" unicode="&#x125;" horiz-adv-x="589" 
d="M190 0h-92v738l92 10v-288c42 50 100 79 162 79c102 0 143 -58 143 -156v-383h-92v377c0 63 -22 90 -82 90c-57 0 -103 -44 -131 -85v-382zM296 855l-126 -81l-40 45l136 111h61l135 -111l-39 -45z" />
    <glyph glyph-name="ibreve" unicode="&#x12d;" horiz-adv-x="279" 
d="M137 628c-93 0 -142 76 -150 140l61 13c14 -50 42 -84 89 -84c48 0 78 34 92 84l61 -13c-8 -64 -59 -140 -153 -140zM185 0h-92v527h92v-527z" />
    <glyph glyph-name="ij" unicode="&#x133;" horiz-adv-x="558" 
d="M204 710c0 -36 -27 -63 -65 -63s-64 27 -64 63c0 35 26 62 64 62s65 -27 65 -62zM185 0h-92v527h92v-527zM304 -212l-34 67c69 32 102 58 102 171v501h92v-495c0 -152 -55 -197 -160 -244zM483 710c0 -36 -27 -63 -65 -63s-64 27 -64 63c0 35 26 62 64 62s65 -27 65 -62z
" />
    <glyph glyph-name="imacron" unicode="&#x12b;" horiz-adv-x="279" 
d="M275 743v-69h-273v69h273zM185 0h-92v527h92v-527z" />
    <glyph glyph-name="iogonek" unicode="&#x12f;" horiz-adv-x="279" 
d="M185 527v-527c-74 -44 -90 -93 -90 -127c0 -31 19 -53 64 -53c27 0 50 8 62 15l25 -54c-32 -16 -63 -22 -97 -22c-84 0 -131 44 -131 111c0 49 35 97 92 130h-17v527h92zM204 715c0 -36 -27 -63 -65 -63s-64 27 -64 63c0 35 26 62 64 62s65 -27 65 -62z" />
    <glyph glyph-name="itilde" unicode="&#x129;" horiz-adv-x="279" 
d="M185 0h-92v527h92v-527zM192 650c-58 0 -79 48 -110 48c-22 0 -35 -16 -51 -44l-57 26c20 47 56 88 113 88c60 0 79 -48 110 -48c22 0 35 16 51 44l57 -25c-20 -47 -56 -89 -113 -89z" />
    <glyph glyph-name="dotlessj" unicode="&#x237;" horiz-adv-x="279" 
d="M25 -212l-34 67c69 32 102 58 102 171v501h92v-495c0 -152 -55 -197 -160 -244z" />
    <glyph glyph-name="jcircumflex" unicode="&#x135;" horiz-adv-x="279" 
d="M140 718l-125 -91l-42 44l136 121h61l135 -121l-40 -44zM25 -212l-34 67c69 32 102 58 102 171v501h92v-495c0 -152 -55 -197 -160 -244z" />
    <glyph glyph-name="kcommaaccent" unicode="&#x137;" horiz-adv-x="515" 
d="M190 0h-92v739l92 11v-750zM405 0l-209 288l197 239h103l-197 -233l216 -294h-110zM221 -126c0 32 26 56 58 56s57 -24 57 -56c0 -17 -5 -33 -17 -57l-50 -106h-53l29 116c-14 12 -24 28 -24 47z" />
    <glyph glyph-name="kgreenlandic" unicode="&#x138;" horiz-adv-x="515" 
d="M190 0h-92v527h92v-527zM405 0l-209 282l197 245h103l-197 -239l216 -288h-110z" />
    <glyph glyph-name="lacute" unicode="&#x13a;" horiz-adv-x="290" 
d="M247 70l24 -64c-23 -11 -48 -18 -75 -18c-63 0 -108 36 -108 126v625l92 11v-644c0 -30 10 -42 33 -42c13 0 24 2 34 6zM46 770l-28 49l189 109l47 -77z" />
    <glyph glyph-name="lcaron" unicode="&#x13e;" horiz-adv-x="327" 
d="M247 70l24 -64c-23 -11 -48 -18 -75 -18c-63 0 -108 36 -108 126v625l92 11v-644c0 -30 10 -42 33 -42c13 0 24 2 34 6zM242 762c0 31 26 55 58 55s57 -24 57 -55c0 -18 -5 -34 -17 -58l-50 -106h-53l28 117c-14 11 -23 27 -23 47z" />
    <glyph glyph-name="lcommaaccent" unicode="&#x13c;" horiz-adv-x="290" 
d="M247 70l24 -64c-23 -11 -48 -18 -75 -18c-63 0 -108 36 -108 126v625l92 11v-644c0 -30 10 -42 33 -42c13 0 24 2 34 6zM114 -126c0 32 26 56 58 56s57 -24 57 -56c0 -17 -5 -33 -17 -57l-50 -106h-53l29 116c-14 12 -24 28 -24 47z" />
    <glyph glyph-name="ldot" unicode="&#x140;" horiz-adv-x="325" 
d="M247 70l24 -64c-23 -11 -48 -18 -75 -18c-63 0 -108 36 -108 126v625l92 11v-644c0 -30 10 -42 33 -42c13 0 24 2 34 6zM361 359c0 -36 -26 -63 -65 -63c-38 0 -64 27 -64 63c0 35 26 62 64 62c39 0 65 -27 65 -62z" />
    <glyph glyph-name="mdotaccent" unicode="&#x1e41;" horiz-adv-x="864" 
d="M190 0h-92v527h79l7 -72c42 54 98 84 156 84c72 0 113 -30 130 -84c42 51 101 84 160 84c101 0 140 -58 140 -156v-383h-92v371c0 68 -19 96 -73 96c-50 0 -97 -42 -125 -85v-382h-92v378c0 63 -21 89 -73 89c-50 0 -97 -42 -125 -85v-382zM515 715
c0 -36 -26 -63 -65 -63c-38 0 -64 27 -64 63c0 35 26 62 64 62c39 0 65 -27 65 -62z" />
    <glyph glyph-name="nacute" unicode="&#x144;" horiz-adv-x="589" 
d="M190 382v-382h-92v527h79l7 -72c43 54 106 84 168 84c102 0 143 -58 143 -156v-383h-92v377c0 63 -22 90 -82 90c-57 0 -103 -44 -131 -85zM222 622l-30 50l188 119l47 -77z" />
    <glyph glyph-name="napostrophe" unicode="&#x149;" horiz-adv-x="589" 
d="M190 382v-382h-92v527h79l7 -72c43 54 106 84 168 84c102 0 143 -58 143 -156v-383h-92v377c0 63 -22 90 -82 90c-57 0 -103 -44 -131 -85zM43 807c0 31 26 55 58 55s57 -24 57 -55c0 -18 -5 -34 -17 -58l-50 -106h-53l28 117c-14 11 -23 27 -23 47z" />
    <glyph glyph-name="ncaron" unicode="&#x148;" horiz-adv-x="589" 
d="M190 382v-382h-92v527h79l7 -72c43 54 106 84 168 84c102 0 143 -58 143 -156v-383h-92v377c0 63 -22 90 -82 90c-57 0 -103 -44 -131 -85zM178 792l125 -91l125 91l40 -44l-135 -121h-61l-136 121z" />
    <glyph glyph-name="ncommaaccent" unicode="&#x146;" horiz-adv-x="589" 
d="M190 382v-382h-92v527h79l7 -72c43 54 106 84 168 84c102 0 143 -58 143 -156v-383h-92v377c0 63 -22 90 -82 90c-57 0 -103 -44 -131 -85zM239 -126c0 32 26 56 58 56s57 -24 57 -56c0 -17 -5 -33 -17 -57l-50 -106h-53l29 116c-14 12 -24 28 -24 47z" />
    <glyph glyph-name="eng" unicode="&#x14b;" horiz-adv-x="589" 
d="M495 383v-351c0 -152 -54 -197 -160 -244l-34 67c69 32 103 58 103 171v351c0 63 -23 90 -83 90c-57 0 -103 -44 -131 -85v-382h-92v527h79l7 -72c43 54 106 84 168 84c102 0 143 -58 143 -156z" />
    <glyph glyph-name="obreve" unicode="&#x14f;" horiz-adv-x="584" 
d="M428 264c0 137 -48 201 -135 201c-88 0 -137 -64 -137 -202c0 -137 48 -201 136 -201s136 64 136 202zM57 263c0 163 86 276 236 276s234 -108 234 -275c0 -163 -86 -276 -235 -276c-150 0 -235 108 -235 275zM290 628c-93 0 -142 76 -150 140l61 13
c14 -50 42 -84 89 -84c48 0 78 34 92 84l61 -13c-8 -64 -59 -140 -153 -140z" />
    <glyph glyph-name="ohungarumlaut" unicode="&#x151;" horiz-adv-x="584" 
d="M194 635l-58 27l80 176l78 -37zM356 633l-56 29l89 176l77 -40zM428 264c0 137 -48 201 -135 201c-88 0 -137 -64 -137 -202c0 -137 48 -201 136 -201s136 64 136 202zM57 263c0 163 86 276 236 276s234 -108 234 -275c0 -163 -86 -276 -235 -276
c-150 0 -235 108 -235 275z" />
    <glyph glyph-name="omacron" unicode="&#x14d;" horiz-adv-x="584" 
d="M428 743v-69h-273v69h273zM428 264c0 137 -48 201 -135 201c-88 0 -137 -64 -137 -202c0 -137 48 -201 136 -201s136 64 136 202zM57 263c0 163 86 276 236 276s234 -108 234 -275c0 -163 -86 -276 -235 -276c-150 0 -235 108 -235 275z" />
    <glyph glyph-name="oslashacute" unicode="&#x1ff;" horiz-adv-x="584" 
d="M57 263c0 163 86 276 236 276c16 0 32 -2 47 -5l38 121l75 -22l-41 -125c73 -43 115 -130 115 -244c0 -163 -86 -276 -235 -276c-17 0 -32 1 -47 5l-38 -124l-75 22l41 126c-74 43 -116 130 -116 246zM156 263c0 -89 18 -145 53 -174l116 373c-10 1 -21 2 -32 2
c-88 0 -137 -63 -137 -201zM428 264c0 87 -18 143 -52 172l-115 -371c10 -2 20 -3 31 -3c88 0 136 64 136 202zM195 623l-30 50l188 119l47 -77z" />
    <glyph glyph-name="racute" unicode="&#x155;" horiz-adv-x="384" 
d="M190 0h-92v527h80l11 -101c30 74 76 113 138 113c17 0 36 -2 52 -6l-17 -90c-16 4 -27 6 -46 6c-66 0 -108 -67 -126 -140v-309zM142 622l-30 50l188 119l47 -77z" />
    <glyph glyph-name="rcaron" unicode="&#x159;" horiz-adv-x="384" 
d="M190 0h-92v527h80l11 -101c30 74 76 113 138 113c17 0 36 -2 52 -6l-17 -90c-16 4 -27 6 -46 6c-66 0 -108 -67 -126 -140v-309zM93 792l125 -91l125 91l40 -44l-135 -121h-61l-136 121z" />
    <glyph glyph-name="rcommaaccent" unicode="&#x157;" horiz-adv-x="384" 
d="M190 0h-92v527h80l11 -101c30 74 76 113 138 113c17 0 36 -2 52 -6l-17 -90c-16 4 -27 6 -46 6c-66 0 -108 -67 -126 -140v-309zM91 -126c0 32 26 56 58 56s57 -24 57 -56c0 -17 -5 -33 -17 -57l-50 -106h-53l29 116c-14 12 -24 28 -24 47z" />
    <glyph glyph-name="sacute" unicode="&#x15b;" horiz-adv-x="474" 
d="M223 62c67 0 111 31 111 80c0 52 -25 72 -129 98c-95 24 -156 65 -156 151c0 89 86 148 197 148c72 0 127 -22 170 -53l-41 -62c-38 26 -77 42 -133 42c-57 0 -98 -27 -98 -69c0 -45 33 -62 122 -86c93 -26 167 -60 167 -162c0 -113 -103 -161 -208 -161
c-89 0 -153 29 -199 69l51 58c41 -34 90 -53 146 -53zM143 622l-30 50l188 119l47 -77z" />
    <glyph glyph-name="scedilla" unicode="&#x15f;" horiz-adv-x="474" 
d="M275 -141c0 35 -33 42 -87 42l7 88c-74 6 -128 32 -169 68l51 58c41 -34 90 -53 146 -53c67 0 111 31 111 80c0 51 -26 69 -128 96c-95 25 -157 67 -157 153c0 89 84 148 195 148c72 0 124 -20 167 -51l-41 -62c-38 26 -74 40 -130 40c-57 0 -96 -27 -96 -69
c0 -45 34 -61 123 -85c93 -26 166 -61 166 -163s-83 -150 -175 -159v-46c66 -6 94 -44 94 -85c0 -66 -58 -100 -125 -100c-41 0 -80 10 -106 25l28 51c19 -10 45 -16 67 -16c35 0 59 11 59 40z" />
    <glyph glyph-name="scircumflex" unicode="&#x15d;" horiz-adv-x="474" 
d="M223 62c67 0 111 31 111 80c0 52 -25 72 -129 98c-95 24 -156 65 -156 151c0 89 86 148 197 148c72 0 127 -22 170 -53l-41 -62c-38 26 -77 42 -133 42c-57 0 -98 -27 -98 -69c0 -45 33 -62 122 -86c93 -26 167 -60 167 -162c0 -113 -103 -161 -208 -161
c-89 0 -153 29 -199 69l51 58c41 -34 90 -53 146 -53zM235 718l-125 -91l-42 44l136 121h61l135 -121l-40 -44z" />
    <glyph glyph-name="scommaaccent" unicode="&#x219;" horiz-adv-x="474" 
d="M223 62c67 0 111 31 111 80c0 52 -25 72 -129 98c-95 24 -156 65 -156 151c0 89 86 148 197 148c72 0 127 -22 170 -53l-41 -62c-38 26 -77 42 -133 42c-57 0 -98 -27 -98 -69c0 -45 33 -62 122 -86c93 -26 167 -60 167 -162c0 -113 -103 -161 -208 -161
c-89 0 -153 29 -199 69l51 58c41 -34 90 -53 146 -53zM180 -126c0 32 26 56 58 56s57 -24 57 -56c0 -17 -5 -33 -17 -57l-50 -106h-53l29 116c-14 12 -24 28 -24 47z" />
    <glyph glyph-name="tbar" unicode="&#x167;" horiz-adv-x="367" 
d="M330 87l35 -63c-32 -24 -74 -36 -118 -36c-102 0 -142 65 -142 160v137h-79v68h79v104h-84v70h84v119l92 11v-130h133l-11 -70h-122v-104h115v-68h-115v-143c0 -53 17 -78 63 -78c23 0 44 7 70 23z" />
    <glyph glyph-name="tcaron" unicode="&#x165;" horiz-adv-x="367" 
d="M330 87l35 -63c-32 -24 -74 -36 -118 -36c-98 0 -142 62 -142 153v316h-84v70h84v119l92 11v-130h133l-11 -70h-122v-315c0 -53 17 -78 63 -78c23 0 44 7 70 23zM270 762c0 31 26 55 58 55s57 -24 57 -55c0 -18 -5 -34 -17 -58l-50 -106h-53l28 117c-14 11 -23 27 -23 47
z" />
    <glyph glyph-name="tcedilla" unicode="&#x163;" horiz-adv-x="367" 
d="M283 -141c0 35 -33 42 -87 42l7 92c-67 16 -98 72 -98 148v316h-84v70h84v119l92 11v-130h133l-11 -70h-122v-315c0 -53 17 -78 63 -78c23 0 44 7 70 23l35 -63c-28 -21 -62 -32 -99 -35v-45c66 -6 94 -44 94 -85c0 -66 -58 -100 -125 -100c-41 0 -80 10 -106 25l28 51
c19 -10 45 -16 67 -16c35 0 59 11 59 40z" />
    <glyph glyph-name="tcommaaccent" unicode="&#x21b;" horiz-adv-x="367" 
d="M330 87l35 -63c-32 -24 -74 -36 -118 -36c-98 0 -142 62 -142 153v316h-84v70h84v119l92 11v-130h133l-11 -70h-122v-315c0 -53 17 -78 63 -78c23 0 44 7 70 23zM164 -126c0 32 26 56 58 56s57 -24 57 -56c0 -17 -5 -33 -17 -57l-50 -106h-53l29 116
c-14 12 -24 28 -24 47z" />
    <glyph glyph-name="ubreve" unicode="&#x16d;" horiz-adv-x="582" 
d="M93 527h92v-372c0 -68 21 -95 78 -95c54 0 101 37 129 81v386h92v-527h-79l-7 70c-41 -53 -99 -82 -160 -82c-101 0 -145 58 -145 156v383zM288 628c-93 0 -142 76 -150 140l61 13c14 -50 42 -84 89 -84c48 0 78 34 92 84l61 -13c-8 -64 -59 -140 -153 -140z" />
    <glyph glyph-name="uhungarumlaut" unicode="&#x171;" horiz-adv-x="582" 
d="M93 527h92v-372c0 -68 21 -95 78 -95c54 0 101 37 129 81v386h92v-527h-79l-7 70c-41 -53 -99 -82 -160 -82c-101 0 -145 58 -145 156v383zM220 635l-58 27l80 176l78 -37zM382 633l-56 29l89 176l77 -40z" />
    <glyph glyph-name="umacron" unicode="&#x16b;" horiz-adv-x="582" 
d="M93 527h92v-372c0 -68 21 -95 78 -95c54 0 101 37 129 81v386h92v-527h-79l-7 70c-41 -53 -99 -82 -160 -82c-101 0 -145 58 -145 156v383zM425 743v-69h-273v69h273z" />
    <glyph glyph-name="uni01CE" unicode="&#x1ce;" horiz-adv-x="546" 
d="M453 367v-248c0 -42 12 -57 39 -67l-22 -64c-47 6 -81 27 -97 74c-37 -50 -93 -74 -157 -74c-106 0 -171 65 -171 163c0 109 88 170 248 170h68v41c0 74 -37 102 -114 102c-35 0 -84 -8 -138 -27l-24 68c65 24 124 34 176 34c134 0 192 -65 192 -172zM241 57
c50 0 90 27 120 73v130h-63c-113 0 -152 -41 -152 -105c0 -65 29 -98 95 -98zM145 802l126 -81l127 81l39 -44l-135 -111h-61l-136 111z" />
    <glyph glyph-name="uni01D0" unicode="&#x1d0;" horiz-adv-x="279" 
d="M185 0h-92v527h92v-527zM16 802l126 -81l127 81l39 -44l-135 -111h-61l-136 111z" />
    <glyph glyph-name="uni01D2" unicode="&#x1d2;" horiz-adv-x="584" 
d="M428 264c0 137 -48 201 -135 201c-88 0 -137 -64 -137 -202c0 -137 48 -201 136 -201s136 64 136 202zM57 263c0 163 86 276 236 276s234 -108 234 -275c0 -163 -86 -276 -235 -276c-150 0 -235 108 -235 275zM166 802l126 -81l127 81l39 -44l-135 -111h-61l-136 111z
" />
    <glyph glyph-name="uni01D4" unicode="&#x1d4;" horiz-adv-x="622" 
d="M527 564v-378c0 -116 -78 -196 -217 -196c-141 0 -215 80 -215 196v378h92v-374c0 -83 39 -125 123 -125c85 0 125 43 125 125v374h92zM189 802l126 -81l127 81l39 -44l-135 -111h-61l-136 111z" />
    <glyph glyph-name="uni01D6" unicode="&#x1d6;" horiz-adv-x="622" 
d="M527 564v-378c0 -116 -78 -196 -217 -196c-141 0 -215 80 -215 196v378h92v-374c0 -83 39 -125 123 -125c85 0 125 43 125 125v374h92zM206 657c-32 0 -58 24 -58 56c0 33 26 57 58 57c33 0 58 -24 58 -57c0 -32 -25 -56 -58 -56zM416 657c-33 0 -58 24 -58 56
c0 33 25 57 58 57c32 0 57 -24 57 -57c0 -32 -25 -56 -57 -56zM447 913v-69h-273v69h273z" />
    <glyph glyph-name="uni01D8" unicode="&#x1d8;" horiz-adv-x="622" 
d="M527 564v-378c0 -116 -78 -196 -217 -196c-141 0 -215 80 -215 196v378h92v-374c0 -83 39 -125 123 -125c85 0 125 43 125 125v374h92zM206 657c-32 0 -58 24 -58 56c0 33 26 57 58 57c33 0 58 -24 58 -57c0 -32 -25 -56 -58 -56zM416 657c-33 0 -58 24 -58 56
c0 33 25 57 58 57c32 0 57 -24 57 -57c0 -32 -25 -56 -57 -56zM236 786l-28 50l188 109l48 -77z" />
    <glyph glyph-name="uni01DA" unicode="&#x1da;" horiz-adv-x="622" 
d="M527 564v-378c0 -116 -78 -196 -217 -196c-141 0 -215 80 -215 196v378h92v-374c0 -83 39 -125 123 -125c85 0 125 43 125 125v374h92zM206 657c-32 0 -58 24 -58 56c0 33 26 57 58 57c33 0 58 -24 58 -57c0 -32 -25 -56 -58 -56zM416 657c-33 0 -58 24 -58 56
c0 33 25 57 58 57c32 0 57 -24 57 -57c0 -32 -25 -56 -57 -56zM189 943l126 -81l127 81l39 -44l-135 -111h-61l-136 111z" />
    <glyph glyph-name="uni01DC" unicode="&#x1dc;" horiz-adv-x="622" 
d="M527 564v-378c0 -116 -78 -196 -217 -196c-141 0 -215 80 -215 196v378h92v-374c0 -83 39 -125 123 -125c85 0 125 43 125 125v374h92zM206 657c-32 0 -58 24 -58 56c0 33 26 57 58 57c33 0 58 -24 58 -57c0 -32 -25 -56 -58 -56zM416 657c-33 0 -58 24 -58 56
c0 33 25 57 58 57c32 0 57 -24 57 -57c0 -32 -25 -56 -57 -56zM414 850l-28 -50l-208 82l47 78z" />
    <glyph glyph-name="uogonek" unicode="&#x173;" horiz-adv-x="582" 
d="M93 527h92v-372c0 -68 21 -95 78 -95c54 0 101 37 129 81v386h92v-527c-70 -48 -90 -93 -90 -127c0 -31 19 -53 64 -53c27 0 50 8 62 15l25 -54c-32 -16 -63 -22 -97 -22c-84 0 -131 44 -131 111c0 50 41 97 102 130h-14l-7 70c-41 -53 -99 -82 -160 -82
c-101 0 -145 58 -145 156v383z" />
    <glyph glyph-name="uring" unicode="&#x16f;" horiz-adv-x="582" 
d="M93 527h92v-372c0 -68 21 -95 78 -95c54 0 101 37 129 81v386h92v-527h-79l-7 70c-41 -53 -99 -82 -160 -82c-101 0 -145 58 -145 156v383zM236 722c0 -35 21 -56 53 -56c33 0 53 21 53 56s-20 56 -53 56c-32 0 -53 -21 -53 -56zM403 722c0 -58 -47 -105 -114 -105
s-114 47 -114 105c0 59 47 106 114 106s114 -47 114 -106z" />
    <glyph glyph-name="utilde" unicode="&#x169;" horiz-adv-x="582" 
d="M93 527h92v-372c0 -68 21 -95 78 -95c54 0 101 37 129 81v386h92v-527h-79l-7 70c-41 -53 -99 -82 -160 -82c-101 0 -145 58 -145 156v383zM342 650c-58 0 -79 48 -110 48c-22 0 -35 -16 -51 -44l-57 26c20 47 56 88 113 88c60 0 79 -48 110 -48c22 0 35 16 51 44l57 -25
c-20 -47 -56 -89 -113 -89z" />
    <glyph glyph-name="wcircumflex" unicode="&#x175;" horiz-adv-x="729" 
d="M708 527l-120 -527h-125l-96 434h-4l-97 -434h-122l-123 527h92l93 -454h4l107 454h103l102 -452h4l94 452h88zM365 718l-125 -91l-42 44l136 121h61l135 -121l-40 -44z" />
    <glyph glyph-name="ycircumflex" unicode="&#x177;" horiz-adv-x="491" 
d="M480 527l-176 -530c-37 -111 -100 -196 -242 -210l-13 72c108 18 142 61 167 141h-31l-174 527h98l136 -453h4l136 453h95zM248 718l-125 -91l-42 44l136 121h61l135 -121l-40 -44z" />
    <glyph glyph-name="zacute" unicode="&#x17a;" horiz-adv-x="440" 
d="M405 457l-275 -380h278l-11 -77h-371v69l274 380h-251v78h356v-70zM134 622l-30 50l188 119l47 -77z" />
    <glyph glyph-name="zdotaccent" unicode="&#x17c;" horiz-adv-x="440" 
d="M405 457l-275 -380h278l-11 -77h-371v69l274 380h-251v78h356v-70zM287 715c0 -36 -26 -63 -65 -63c-38 0 -64 27 -64 63c0 35 26 62 64 62c39 0 65 -27 65 -62z" />
    <glyph glyph-name="mdotaccent.001" horiz-adv-x="864" 
d="M190 0h-92v527h79l7 -72c42 54 98 84 156 84c72 0 113 -30 130 -84c42 51 101 84 160 84c101 0 140 -58 140 -156v-383h-92v371c0 68 -19 96 -73 96c-50 0 -97 -42 -125 -85v-382h-92v378c0 63 -21 89 -73 89c-50 0 -97 -42 -125 -85v-382zM515 715
c0 -36 -26 -63 -65 -63c-38 0 -64 27 -64 63c0 35 26 62 64 62c39 0 65 -27 65 -62z" />
    <glyph glyph-name="f_i" horiz-adv-x="585" 
d="M491 0h-91v456h-203v-456h-92v456h-84v71h84v69c0 89 54 154 182 154c60 0 104 -14 146 -36l-32 -64c-33 16 -70 25 -110 25c-75 0 -94 -28 -94 -78v-70h294v-527z" />
    <glyph glyph-name="f_i.sc" horiz-adv-x="771" 
d="M426 490h-229v-175h198v-72h-198v-243h-92v564h332zM666 0h-92v564h92v-564z" />
    <glyph glyph-name="f_l" horiz-adv-x="596" 
d="M558 71l23 -65c-22 -11 -48 -18 -75 -18c-59 0 -107 34 -107 116v554c-34 12 -71 17 -106 17c-76 0 -96 -28 -96 -78v-70h121l-11 -71h-110v-456h-92v456h-84v71h84v69c0 89 55 154 184 154c41 0 76 -7 113 -19l88 17v-642c0 -30 10 -42 34 -42c12 0 23 3 34 7z" />
    <glyph glyph-name="f_l.sc" horiz-adv-x="936" 
d="M426 490h-229v-175h198v-72h-198v-243h-92v564h332zM904 0h-330v564h92v-487h250z" />
    <glyph glyph-name="i_verticallineabovecomb" horiz-adv-x="279" 
d="M185 0h-92v527h92v-527zM170 617l-70 -3l-5 215l101 2z" />
    <glyph glyph-name="Ldot.latn_CAT" horiz-adv-x="503" 
d="M472 0h-367v689h95v-606h283zM451 361c0 -36 -26 -63 -65 -63c-38 0 -64 27 -64 63c0 35 26 62 64 62c39 0 65 -27 65 -62z" />
    <glyph glyph-name="i.latn_TRK" horiz-adv-x="279" 
d="M204 710c0 -36 -27 -63 -65 -63s-64 27 -64 63c0 35 26 62 64 62s65 -27 65 -62zM185 0h-92v527h92v-527z" />
    <glyph glyph-name="i.latn_TRK.sc" horiz-adv-x="302" 
d="M197 0h-92v564h92v-564zM214 720c0 -36 -26 -63 -64 -63s-64 27 -64 63c0 35 26 62 64 62s64 -27 64 -62z" />
    <glyph glyph-name="ldot.latn_CAT" horiz-adv-x="325" 
d="M247 70l24 -64c-23 -11 -48 -18 -75 -18c-63 0 -108 36 -108 126v625l92 11v-644c0 -30 10 -42 33 -42c13 0 24 2 34 6zM361 359c0 -36 -26 -63 -65 -63c-38 0 -64 27 -64 63c0 35 26 62 64 62c39 0 65 -27 65 -62z" />
    <glyph glyph-name="ldot.latn_CAT.sc" horiz-adv-x="467" 
d="M435 0h-330v564h92v-487h250zM432 293c0 -36 -26 -63 -65 -63c-38 0 -64 27 -64 63c0 35 26 62 64 62c39 0 65 -27 65 -62z" />
    <glyph glyph-name="Idotaccent.sc" horiz-adv-x="302" 
d="M197 0h-92v564h92v-564zM215 720c0 -36 -26 -63 -64 -63s-64 27 -64 63c0 35 26 62 64 62s64 -27 64 -62z" />
    <glyph glyph-name="a.sc" horiz-adv-x="525" 
d="M421 0l-46 138h-229l-45 -138h-95l201 564h111l201 -564h-98zM258 483l-88 -271h181l-89 271h-4z" />
    <glyph glyph-name="aacute.sc" horiz-adv-x="525" 
d="M173 642l-28 50l188 109l48 -77zM421 0l-46 138h-229l-45 -138h-95l201 564h111l201 -564h-98zM258 483l-88 -271h181l-89 271h-4z" />
    <glyph glyph-name="abreve.sc" horiz-adv-x="525" 
d="M261 648c-95 0 -142 70 -150 130l61 13c13 -48 41 -74 89 -74c47 0 78 26 91 74l61 -13c-8 -60 -58 -130 -152 -130zM421 0l-46 138h-229l-45 -138h-95l201 564h111l201 -564h-98zM258 483l-88 -271h181l-89 271h-4z" />
    <glyph glyph-name="acircumflex.sc" horiz-adv-x="525" 
d="M263 728l-127 -81l-40 44l136 111h61l135 -111l-39 -44zM421 0l-46 138h-229l-45 -138h-95l201 564h111l201 -564h-98zM258 483l-88 -271h181l-89 271h-4z" />
    <glyph glyph-name="adieresis.sc" horiz-adv-x="525" 
d="M158 657c-32 0 -58 24 -58 56c0 33 26 57 58 57c33 0 58 -24 58 -57c0 -32 -25 -56 -58 -56zM368 657c-33 0 -58 24 -58 56c0 33 25 57 58 57c32 0 57 -24 57 -57c0 -32 -25 -56 -57 -56zM421 0l-46 138h-229l-45 -138h-95l201 564h111l201 -564h-98zM258 483l-88 -271
h181l-89 271h-4z" />
    <glyph glyph-name="agrave.sc" horiz-adv-x="525" 
d="M381 692l-28 -50l-208 82l47 78zM421 0l-46 138h-229l-45 -138h-95l201 564h111l201 -564h-98zM258 483l-88 -271h181l-89 271h-4z" />
    <glyph glyph-name="amacron.sc" horiz-adv-x="525" 
d="M399 753v-69h-273v69h273zM421 0l-46 138h-229l-45 -138h-95l201 564h111l201 -564h-98zM258 483l-88 -271h181l-89 271h-4z" />
    <glyph glyph-name="aogonek.sc" horiz-adv-x="525" 
d="M421 0l-46 138h-229l-45 -138h-95l201 564h111l201 -564c-74 -44 -90 -92 -90 -127c0 -31 19 -53 64 -53c27 0 50 8 62 15l25 -54c-32 -16 -63 -22 -97 -22c-84 0 -131 44 -131 111c0 48 35 97 92 130h-23zM258 483l-88 -271h181l-89 271h-4z" />
    <glyph glyph-name="aring.sc" horiz-adv-x="525" 
d="M210 732c0 -35 21 -56 53 -56s53 21 53 56s-20 56 -53 56c-32 0 -53 -21 -53 -56zM377 732c0 -58 -47 -105 -114 -105s-114 47 -114 105c0 59 47 106 114 106s114 -47 114 -106zM421 0l-46 138h-229l-45 -138h-95l201 564h111l201 -564h-98zM258 483l-88 -271h181
l-89 271h-4z" />
    <glyph glyph-name="atilde.sc" horiz-adv-x="525" 
d="M315 660c-58 0 -79 48 -110 48c-23 0 -35 -16 -51 -44l-57 26c20 47 55 88 113 88c59 0 79 -48 110 -48c22 0 35 16 51 44l57 -25c-21 -47 -56 -89 -113 -89zM421 0l-46 138h-229l-45 -138h-95l201 564h111l201 -564h-98zM258 483l-88 -271h181l-89 271h-4z" />
    <glyph glyph-name="ae.sc" horiz-adv-x="743" 
d="M412 0l-33 138h-231l-57 -138h-95l249 564h430l-12 -72h-287l45 -170h231v-72h-212l47 -178h219v-72h-294zM293 481l-114 -269h183l-65 269h-4z" />
    <glyph glyph-name="aeacute.sc" horiz-adv-x="743" 
d="M412 0l-33 138h-231l-57 -138h-95l249 564h430l-12 -72h-287l45 -170h231v-72h-212l47 -178h219v-72h-294zM293 481l-114 -269h183l-65 269h-4zM353 642l-28 50l188 109l48 -77z" />
    <glyph glyph-name="b.sc" horiz-adv-x="579" 
d="M424 163c0 75 -56 98 -122 98h-105v-189h101c58 0 126 16 126 91zM400 414c0 56 -42 78 -111 78h-92v-163h99c67 0 104 27 104 85zM521 164c0 -126 -120 -164 -235 -164h-181v564h168c111 0 222 -33 222 -146c0 -63 -48 -101 -95 -116v-4c57 -13 121 -48 121 -134z" />
    <glyph glyph-name="c.sc" horiz-adv-x="523" 
d="M322 66c64 0 102 23 132 49l50 -57c-41 -37 -99 -68 -186 -68c-147 0 -256 103 -256 293c0 189 119 291 256 291c78 0 127 -22 178 -60l-50 -59c-38 29 -72 44 -124 44c-86 0 -161 -55 -161 -216c0 -155 70 -217 161 -217z" />
    <glyph glyph-name="cacute.sc" horiz-adv-x="523" 
d="M322 66c64 0 102 23 132 49l50 -57c-41 -37 -99 -68 -186 -68c-147 0 -256 103 -256 293c0 189 119 291 256 291c78 0 127 -22 178 -60l-50 -59c-38 29 -72 44 -124 44c-86 0 -161 -55 -161 -216c0 -155 70 -217 161 -217zM224 642l-28 50l188 109l48 -77z" />
    <glyph glyph-name="ccaron.sc" horiz-adv-x="523" 
d="M322 66c64 0 102 23 132 49l50 -57c-41 -37 -99 -68 -186 -68c-147 0 -256 103 -256 293c0 189 119 291 256 291c78 0 127 -22 178 -60l-50 -59c-38 29 -72 44 -124 44c-86 0 -161 -55 -161 -216c0 -155 70 -217 161 -217zM179 802l126 -81l127 81l39 -44l-135 -111h-61
l-136 111z" />
    <glyph glyph-name="ccedilla.sc" horiz-adv-x="523" 
d="M371 -141c0 35 -33 42 -87 42l6 90c-133 12 -228 114 -228 292c0 189 119 291 256 291c78 0 127 -22 178 -60l-50 -59c-38 29 -72 44 -124 44c-86 0 -161 -55 -161 -216c0 -155 70 -217 161 -217c64 0 102 23 132 49l50 -57c-35 -32 -83 -59 -151 -66v-48
c67 -6 94 -44 94 -85c0 -66 -58 -100 -125 -100c-40 0 -80 10 -105 25l28 51c19 -10 45 -16 66 -16c36 0 60 11 60 40z" />
    <glyph glyph-name="ccircumflex.sc" horiz-adv-x="523" 
d="M322 66c64 0 102 23 132 49l50 -57c-41 -37 -99 -68 -186 -68c-147 0 -256 103 -256 293c0 189 119 291 256 291c78 0 127 -22 178 -60l-50 -59c-38 29 -72 44 -124 44c-86 0 -161 -55 -161 -216c0 -155 70 -217 161 -217zM306 728l-127 -81l-40 44l136 111h61l135 -111
l-39 -44z" />
    <glyph glyph-name="cdotaccent.sc" horiz-adv-x="523" 
d="M322 66c64 0 102 23 132 49l50 -57c-41 -37 -99 -68 -186 -68c-147 0 -256 103 -256 293c0 189 119 291 256 291c78 0 127 -22 178 -60l-50 -59c-38 29 -72 44 -124 44c-86 0 -161 -55 -161 -216c0 -155 70 -217 161 -217zM369 720c0 -36 -26 -63 -64 -63s-64 27 -64 63
c0 35 26 62 64 62s64 -27 64 -62z" />
    <glyph glyph-name="d.sc" horiz-adv-x="606" 
d="M445 284c0 183 -98 206 -182 206h-66v-415h66c88 0 182 37 182 209zM544 284c0 -228 -158 -284 -289 -284h-150v564h140c144 0 299 -45 299 -280z" />
    <glyph glyph-name="eth.sc" horiz-adv-x="610" 
d="M542 284c0 -228 -158 -284 -289 -284h-150v258h-80v70h80v236h140c144 0 299 -45 299 -280zM330 258h-135v-183h66c88 0 182 37 182 209c0 183 -98 206 -182 206h-66v-162h135v-70z" />
    <glyph glyph-name="dcaron.sc" horiz-adv-x="612" 
d="M445 284c0 183 -98 206 -182 206h-66v-415h66c88 0 182 37 182 209zM544 284c0 -228 -158 -284 -289 -284h-150v564h140c144 0 299 -45 299 -280zM166 802l126 -81l127 81l39 -44l-135 -111h-61l-136 111z" />
    <glyph glyph-name="dcroat.sc" horiz-adv-x="610" 
d="M542 284c0 -228 -158 -284 -289 -284h-150v258h-80v70h80v236h140c144 0 299 -45 299 -280zM330 258h-135v-183h66c88 0 182 37 182 209c0 183 -98 206 -182 206h-66v-162h135v-70z" />
    <glyph glyph-name="e.sc" horiz-adv-x="504" 
d="M432 490h-235v-168h204v-72h-204v-176h253v-74h-345v564h338z" />
    <glyph glyph-name="eacute.sc" horiz-adv-x="504" 
d="M432 490h-235v-168h204v-72h-204v-176h253v-74h-345v564h338zM199 642l-28 50l188 109l48 -77z" />
    <glyph glyph-name="ebreve.sc" horiz-adv-x="504" 
d="M432 490h-235v-168h204v-72h-204v-176h253v-74h-345v564h338zM273 648c-95 0 -142 70 -150 130l61 13c13 -48 41 -74 89 -74c47 0 78 26 91 74l61 -13c-8 -60 -58 -130 -152 -130z" />
    <glyph glyph-name="ecaron.sc" horiz-adv-x="504" 
d="M432 490h-235v-168h204v-72h-204v-176h253v-74h-345v564h338zM148 802l126 -81l127 81l39 -44l-135 -111h-61l-136 111z" />
    <glyph glyph-name="ecircumflex.sc" horiz-adv-x="504" 
d="M432 490h-235v-168h204v-72h-204v-176h253v-74h-345v564h338zM275 728l-127 -81l-40 44l136 111h61l135 -111l-39 -44z" />
    <glyph glyph-name="edieresis.sc" horiz-adv-x="504" 
d="M432 490h-235v-168h204v-72h-204v-176h253v-74h-345v564h338zM169 657c-32 0 -58 24 -58 56c0 33 26 57 58 57c33 0 58 -24 58 -57c0 -32 -25 -56 -58 -56zM379 657c-33 0 -58 24 -58 56c0 33 25 57 58 57c32 0 57 -24 57 -57c0 -32 -25 -56 -57 -56z" />
    <glyph glyph-name="edotaccent.sc" horiz-adv-x="504" 
d="M432 490h-235v-168h204v-72h-204v-176h253v-74h-345v564h338zM338 720c0 -36 -26 -63 -64 -63s-64 27 -64 63c0 35 26 62 64 62s64 -27 64 -62z" />
    <glyph glyph-name="egrave.sc" horiz-adv-x="504" 
d="M432 490h-235v-168h204v-72h-204v-176h253v-74h-345v564h338zM392 692l-28 -50l-208 82l47 78z" />
    <glyph glyph-name="emacron.sc" horiz-adv-x="504" 
d="M432 490h-235v-168h204v-72h-204v-176h253v-74h-345v564h338zM411 753v-69h-273v69h273z" />
    <glyph glyph-name="eogonek.sc" horiz-adv-x="504" 
d="M432 490h-235v-168h204v-72h-204v-176h253v-74c-75 -44 -91 -93 -91 -127c0 -31 18 -53 64 -53c27 0 50 8 62 15l24 -54c-31 -16 -63 -22 -96 -22c-84 0 -131 44 -131 111c0 48 35 97 92 130h-269v564h338z" />
    <glyph glyph-name="f.sc" horiz-adv-x="462" 
d="M426 490h-229v-175h198v-72h-198v-243h-92v564h332z" />
    <glyph glyph-name="fi.sc" horiz-adv-x="771" 
d="M426 490h-229v-175h198v-72h-198v-243h-92v564h332zM666 0h-92v564h92v-564z" />
    <glyph glyph-name="fl.sc" horiz-adv-x="936" 
d="M426 490h-229v-175h198v-72h-198v-243h-92v564h332zM904 0h-330v564h92v-487h250z" />
    <glyph glyph-name="g.sc" horiz-adv-x="581" 
d="M313 -10c-150 0 -251 99 -251 294c0 194 131 290 265 290c84 0 136 -24 187 -67l-54 -54c-38 31 -78 47 -132 47c-86 0 -166 -54 -166 -216c0 -155 56 -219 157 -219c39 0 76 7 109 22v155h-108l-12 73h211v-275c-58 -31 -123 -50 -206 -50z" />
    <glyph glyph-name="gbreve.sc" horiz-adv-x="581" 
d="M313 -10c-150 0 -251 99 -251 294c0 194 131 290 265 290c84 0 136 -24 187 -67l-54 -54c-38 31 -78 47 -132 47c-86 0 -166 -54 -166 -216c0 -155 56 -219 157 -219c39 0 76 7 109 22v155h-108l-12 73h211v-275c-58 -31 -123 -50 -206 -50zM316 648
c-95 0 -142 70 -150 130l61 13c13 -48 41 -74 89 -74c47 0 78 26 91 74l61 -13c-8 -60 -58 -130 -152 -130z" />
    <glyph glyph-name="gcircumflex.sc" horiz-adv-x="581" 
d="M313 -10c-150 0 -251 99 -251 294c0 194 131 290 265 290c84 0 136 -24 187 -67l-54 -54c-38 31 -78 47 -132 47c-86 0 -166 -54 -166 -216c0 -155 56 -219 157 -219c39 0 76 7 109 22v155h-108l-12 73h211v-275c-58 -31 -123 -50 -206 -50zM318 728l-127 -81l-40 44
l136 111h61l135 -111l-39 -44z" />
    <glyph glyph-name="gcommaaccent.sc" horiz-adv-x="593" 
d="M313 -10c-150 0 -251 99 -251 294c0 194 131 290 265 290c84 0 136 -24 187 -67l-54 -54c-38 31 -78 47 -132 47c-86 0 -166 -54 -166 -216c0 -155 56 -219 157 -219c39 0 76 7 109 22v155h-108l-12 73h211v-275c-58 -31 -123 -50 -206 -50zM264 -125c0 32 26 56 58 56
s57 -24 57 -56c0 -17 -5 -33 -17 -57l-50 -106h-53l29 116c-14 12 -24 28 -24 47z" />
    <glyph glyph-name="gdotaccent.sc" horiz-adv-x="581" 
d="M313 -10c-150 0 -251 99 -251 294c0 194 131 290 265 290c84 0 136 -24 187 -67l-54 -54c-38 31 -78 47 -132 47c-86 0 -166 -54 -166 -216c0 -155 56 -219 157 -219c39 0 76 7 109 22v155h-108l-12 73h211v-275c-58 -31 -123 -50 -206 -50zM382 720
c0 -36 -26 -63 -64 -63s-64 27 -64 63c0 35 26 62 64 62s64 -27 64 -62z" />
    <glyph glyph-name="h.sc" horiz-adv-x="632" 
d="M527 0h-92v259h-238v-259h-92v564h92v-231h238v231h92v-564z" />
    <glyph glyph-name="hbar.sc" horiz-adv-x="648" 
d="M535 0h-91v259h-240v-259h-91v436h-78v66h78v62h91v-62h240v62h91v-62h78v-66h-78v-436zM204 333h240v103h-240v-103z" />
    <glyph glyph-name="hcircumflex.sc" horiz-adv-x="632" 
d="M527 0h-92v259h-238v-259h-92v564h92v-231h238v231h92v-564zM316 728l-127 -81l-40 44l136 111h61l135 -111l-39 -44z" />
    <glyph glyph-name="i.sc" horiz-adv-x="302" 
d="M197 0h-92v564h92v-564z" />
    <glyph glyph-name="dotlessi.sc" horiz-adv-x="302" 
d="M197 0h-92v564h92v-564z" />
    <glyph glyph-name="iacute.sc" horiz-adv-x="302" 
d="M197 0h-92v564h92v-564zM61 642l-28 50l188 109l48 -77z" />
    <glyph glyph-name="ibreve.sc" horiz-adv-x="302" 
d="M197 0h-92v564h92v-564zM149 648c-95 0 -142 70 -150 130l61 13c13 -48 41 -74 89 -74c47 0 78 26 91 74l61 -13c-8 -60 -58 -130 -152 -130z" />
    <glyph glyph-name="icircumflex.sc" horiz-adv-x="302" 
d="M197 0h-92v564h92v-564zM151 728l-127 -81l-40 44l136 111h61l135 -111l-39 -44z" />
    <glyph glyph-name="idieresis.sc" horiz-adv-x="302" 
d="M197 0h-92v564h92v-564zM46 657c-32 0 -58 24 -58 56c0 33 26 57 58 57c33 0 58 -24 58 -57c0 -32 -25 -56 -58 -56zM256 657c-33 0 -58 24 -58 56c0 33 25 57 58 57c32 0 57 -24 57 -57c0 -32 -25 -56 -57 -56z" />
    <glyph glyph-name="igrave.sc" horiz-adv-x="302" 
d="M197 0h-92v564h92v-564zM269 692l-28 -50l-208 82l47 78z" />
    <glyph glyph-name="ij.sc" horiz-adv-x="584" 
d="M197 0h-92v564h92v-564zM321 -122l-26 69c80 29 97 60 97 130v487h92v-491c0 -112 -62 -161 -163 -195z" />
    <glyph glyph-name="imacron.sc" horiz-adv-x="302" 
d="M197 0h-92v564h92v-564zM287 753v-69h-273v69h273z" />
    <glyph glyph-name="iogonek.sc" horiz-adv-x="302" 
d="M105 -127c0 -31 19 -53 64 -53c27 0 50 8 62 15l25 -54c-32 -16 -63 -22 -97 -22c-84 0 -131 44 -131 111c0 48 38 97 97 130h-20v564h92v-564c-75 -44 -92 -92 -92 -127z" />
    <glyph glyph-name="itilde.sc" horiz-adv-x="302" 
d="M197 0h-92v564h92v-564zM203 660c-58 0 -79 48 -110 48c-23 0 -35 -16 -51 -44l-57 26c20 47 55 88 113 88c59 0 79 -48 110 -48c22 0 35 16 51 44l57 -25c-21 -47 -56 -89 -113 -89z" />
    <glyph glyph-name="j.sc" horiz-adv-x="294" 
d="M31 -122l-26 69c80 29 97 60 97 130v487h92v-491c0 -112 -62 -161 -163 -195z" />
    <glyph glyph-name="dotlessj.sc" horiz-adv-x="294" 
d="M31 -122l-26 69c80 29 97 60 97 130v487h92v-491c0 -112 -62 -161 -163 -195z" />
    <glyph glyph-name="jcircumflex.sc" horiz-adv-x="294" 
d="M31 -122l-26 69c80 29 97 60 97 130v487h92v-491c0 -112 -62 -161 -163 -195zM158 728l-127 -81l-40 44l136 111h61l135 -111l-39 -44z" />
    <glyph glyph-name="k.sc" 
d="M197 564v-564h-92v564h92zM444 0l-243 302l234 262h108l-234 -259l251 -305h-116z" />
    <glyph glyph-name="kcommaaccent.sc" 
d="M197 564v-564h-92v564h92zM444 0l-243 302l234 262h108l-234 -259l251 -305h-116zM239 -125c0 32 26 56 58 56s57 -24 57 -56c0 -17 -5 -33 -17 -57l-50 -106h-53l29 116c-14 12 -24 28 -24 47z" />
    <glyph glyph-name="kgreenlandic.sc" 
d="M197 564v-564h-92v564h92zM444 0l-243 302l234 262h108l-234 -259l251 -305h-116z" />
    <glyph glyph-name="l.sc" horiz-adv-x="467" 
d="M435 0h-330v564h92v-487h250z" />
    <glyph glyph-name="lacute.sc" horiz-adv-x="467" 
d="M435 0h-330v564h92v-487h250zM100 642l-28 50l188 109l48 -77z" />
    <glyph glyph-name="lcaron.sc" horiz-adv-x="467" 
d="M435 0h-330v564h92v-487h250zM301 514c0 31 26 55 58 55s57 -24 57 -55c0 -18 -5 -34 -17 -58l-50 -106h-53l28 117c-14 11 -23 27 -23 47z" />
    <glyph glyph-name="lcommaaccent.sc" horiz-adv-x="467" 
d="M435 0h-330v564h92v-487h250zM201 -125c0 32 26 56 58 56s57 -24 57 -56c0 -17 -5 -33 -17 -57l-50 -106h-53l29 116c-14 12 -24 28 -24 47z" />
    <glyph glyph-name="ldot.sc" horiz-adv-x="467" 
d="M435 0h-330v564h92v-487h250zM432 293c0 -36 -26 -63 -65 -63c-38 0 -64 27 -64 63c0 35 26 62 64 62c39 0 65 -27 65 -62z" />
    <glyph glyph-name="lslash.sc" horiz-adv-x="474" 
d="M442 0h-330v211l-55 -35l-39 59l94 58v271h92v-214l117 74l39 -59l-156 -97v-191h250z" />
    <glyph glyph-name="m.sc" horiz-adv-x="725" 
d="M663 0h-90l-26 288c-5 60 -7 108 -7 179h-4l-129 -409h-85l-139 409h-4c0 -59 -1 -123 -5 -178l-23 -289h-89l52 564h119l130 -403h4l123 403h122z" />
    <glyph glyph-name="n.sc" horiz-adv-x="639" 
d="M534 0h-118l-233 459h-4c2 -13 11 -102 11 -184v-275h-85v564h117l235 -462h4c-3 19 -12 94 -12 187v275h85v-564z" />
    <glyph glyph-name="nacute.sc" horiz-adv-x="639" 
d="M534 0h-118l-233 459h-4c2 -13 11 -102 11 -184v-275h-85v564h117l235 -462h4c-3 19 -12 94 -12 187v275h85v-564zM239 642l-28 50l188 109l48 -77z" />
    <glyph glyph-name="napostrophe.sc" horiz-adv-x="639" 
d="M534 0h-118l-233 459h-4c2 -13 11 -102 11 -184v-275h-85v564h117l235 -462h4c-3 19 -12 94 -12 187v275h85v-564z" />
    <glyph glyph-name="ncaron.sc" horiz-adv-x="639" 
d="M534 0h-118l-233 459h-4c2 -13 11 -102 11 -184v-275h-85v564h117l235 -462h4c-3 19 -12 94 -12 187v275h85v-564zM189 802l126 -81l127 81l39 -44l-135 -111h-61l-136 111z" />
    <glyph glyph-name="ncommaaccent.sc" horiz-adv-x="639" 
d="M534 0h-118l-233 459h-4c2 -13 11 -102 11 -184v-275h-85v564h117l235 -462h4c-3 19 -12 94 -12 187v275h85v-564zM261 -125c0 32 26 56 58 56s57 -24 57 -56c0 -17 -5 -33 -17 -57l-50 -106h-53l29 116c-14 12 -24 28 -24 47z" />
    <glyph glyph-name="eng.sc" horiz-adv-x="639" 
d="M371 -213l-22 59c81 29 104 70 104 140v14h-37l-233 459h-4c2 -13 11 -102 11 -184v-275h-85v564h117l235 -462h4c-3 19 -12 94 -12 187v275h85v-582c0 -112 -62 -161 -163 -195z" />
    <glyph glyph-name="ntilde.sc" horiz-adv-x="639" 
d="M534 0h-118l-233 459h-4c2 -13 11 -102 11 -184v-275h-85v564h117l235 -462h4c-3 19 -12 94 -12 187v275h85v-564zM368 660c-58 0 -79 48 -110 48c-23 0 -35 -16 -51 -44l-57 26c20 47 55 88 113 88c59 0 79 -48 110 -48c22 0 35 16 51 44l57 -25
c-21 -47 -56 -89 -113 -89z" />
    <glyph glyph-name="o.sc" horiz-adv-x="635" 
d="M573 282c0 -188 -105 -292 -256 -292c-149 0 -255 100 -255 292c0 187 106 292 255 292c151 0 256 -101 256 -292zM474 282c0 157 -60 217 -157 217c-96 0 -156 -60 -156 -217c0 -159 63 -217 156 -217c97 0 157 59 157 217z" />
    <glyph glyph-name="oacute.sc" horiz-adv-x="635" 
d="M573 282c0 -188 -105 -292 -256 -292c-149 0 -255 100 -255 292c0 187 106 292 255 292c151 0 256 -101 256 -292zM474 282c0 157 -60 217 -157 217c-96 0 -156 -60 -156 -217c0 -159 63 -217 156 -217c97 0 157 59 157 217zM238 642l-28 50l188 109l48 -77z" />
    <glyph glyph-name="obreve.sc" horiz-adv-x="635" 
d="M573 282c0 -188 -105 -292 -256 -292c-149 0 -255 100 -255 292c0 187 106 292 255 292c151 0 256 -101 256 -292zM474 282c0 157 -60 217 -157 217c-96 0 -156 -60 -156 -217c0 -159 63 -217 156 -217c97 0 157 59 157 217zM319 648c-95 0 -142 70 -150 130l61 13
c13 -48 41 -74 89 -74c47 0 78 26 91 74l61 -13c-8 -60 -58 -130 -152 -130z" />
    <glyph glyph-name="ocircumflex.sc" horiz-adv-x="635" 
d="M573 282c0 -188 -105 -292 -256 -292c-149 0 -255 100 -255 292c0 187 106 292 255 292c151 0 256 -101 256 -292zM474 282c0 157 -60 217 -157 217c-96 0 -156 -60 -156 -217c0 -159 63 -217 156 -217c97 0 157 59 157 217zM321 728l-127 -81l-40 44l136 111h61
l135 -111l-39 -44z" />
    <glyph glyph-name="odieresis.sc" horiz-adv-x="635" 
d="M573 282c0 -188 -105 -292 -256 -292c-149 0 -255 100 -255 292c0 187 106 292 255 292c151 0 256 -101 256 -292zM474 282c0 157 -60 217 -157 217c-96 0 -156 -60 -156 -217c0 -159 63 -217 156 -217c97 0 157 59 157 217zM215 657c-32 0 -58 24 -58 56
c0 33 26 57 58 57c33 0 58 -24 58 -57c0 -32 -25 -56 -58 -56zM425 657c-33 0 -58 24 -58 56c0 33 25 57 58 57c32 0 57 -24 57 -57c0 -32 -25 -56 -57 -56z" />
    <glyph glyph-name="ograve.sc" horiz-adv-x="635" 
d="M573 282c0 -188 -105 -292 -256 -292c-149 0 -255 100 -255 292c0 187 106 292 255 292c151 0 256 -101 256 -292zM474 282c0 157 -60 217 -157 217c-96 0 -156 -60 -156 -217c0 -159 63 -217 156 -217c97 0 157 59 157 217zM431 692l-28 -50l-208 82l47 78z" />
    <glyph glyph-name="ohungarumlaut.sc" horiz-adv-x="635" 
d="M573 282c0 -188 -105 -292 -256 -292c-149 0 -255 100 -255 292c0 187 106 292 255 292c151 0 256 -101 256 -292zM474 282c0 157 -60 217 -157 217c-96 0 -156 -60 -156 -217c0 -159 63 -217 156 -217c97 0 157 59 157 217zM242 652l-58 27l80 176l78 -37zM404 650
l-56 29l89 176l77 -40z" />
    <glyph glyph-name="omacron.sc" horiz-adv-x="635" 
d="M573 282c0 -188 -105 -292 -256 -292c-149 0 -255 100 -255 292c0 187 106 292 255 292c151 0 256 -101 256 -292zM474 282c0 157 -60 217 -157 217c-96 0 -156 -60 -156 -217c0 -159 63 -217 156 -217c97 0 157 59 157 217zM456 753v-69h-273v69h273z" />
    <glyph glyph-name="oslash.sc" horiz-adv-x="636" 
d="M574 282c0 -188 -105 -292 -256 -292c-20 0 -39 2 -57 6l-39 -127l-76 22l42 130c-77 43 -126 131 -126 261c0 187 107 292 256 292c19 0 38 -2 55 -5l41 128l75 -22l-43 -132c79 -43 128 -131 128 -261zM476 282c0 102 -23 161 -66 192l-132 -406c12 -2 26 -3 40 -3
c96 0 158 59 158 217zM160 282c0 -102 24 -161 64 -190l133 403c-12 3 -26 4 -39 4c-96 0 -158 -60 -158 -217z" />
    <glyph glyph-name="oslashacute.sc" horiz-adv-x="636" 
d="M574 282c0 -188 -105 -292 -256 -292c-20 0 -39 2 -57 6l-39 -127l-76 22l42 130c-77 43 -126 131 -126 261c0 187 107 292 256 292c19 0 38 -2 55 -5l41 128l75 -22l-43 -132c79 -43 128 -131 128 -261zM476 282c0 102 -23 161 -66 192l-132 -406c12 -2 26 -3 40 -3
c96 0 158 59 158 217zM160 282c0 -102 24 -161 64 -190l133 403c-12 3 -26 4 -39 4c-96 0 -158 -60 -158 -217zM208 652l-28 50l188 109l48 -77z" />
    <glyph glyph-name="otilde.sc" horiz-adv-x="635" 
d="M573 282c0 -188 -105 -292 -256 -292c-149 0 -255 100 -255 292c0 187 106 292 255 292c151 0 256 -101 256 -292zM474 282c0 157 -60 217 -157 217c-96 0 -156 -60 -156 -217c0 -159 63 -217 156 -217c97 0 157 59 157 217zM373 660c-58 0 -79 48 -110 48
c-23 0 -35 -16 -51 -44l-57 26c20 47 55 88 113 88c59 0 79 -48 110 -48c22 0 35 16 51 44l57 -25c-21 -47 -56 -89 -113 -89z" />
    <glyph glyph-name="oe.sc" horiz-adv-x="835" 
d="M763 492h-267c36 -42 55 -96 60 -170h176v-72h-176c-3 -75 -21 -135 -60 -178h285v-72h-388c-22 -6 -46 -10 -73 -10c-142 0 -252 100 -252 292c0 187 110 292 252 292c27 0 52 -4 74 -10h381zM467 282c0 152 -47 217 -147 217c-88 0 -154 -60 -154 -217
c0 -159 69 -217 154 -217c101 0 147 64 147 217z" />
    <glyph glyph-name="p.sc" horiz-adv-x="544" 
d="M413 387c0 78 -58 105 -137 105h-79v-217h79c77 0 137 22 137 112zM512 387c0 -135 -103 -184 -243 -184h-72v-203h-92v564h162c150 0 245 -51 245 -177z" />
    <glyph glyph-name="thorn.sc" horiz-adv-x="546" 
d="M419 289c0 79 -61 110 -140 110h-82v-226h83c77 0 139 26 139 116zM517 290c0 -136 -105 -188 -245 -188h-75v-102h-92v564h92v-93h74c149 0 246 -55 246 -181z" />
    <glyph glyph-name="q.sc" horiz-adv-x="628" 
d="M573 282c0 -112 -39 -198 -115 -240l1 -4c72 0 118 -22 161 -49l-61 -74c-69 55 -123 77 -242 77c-149 0 -255 98 -255 290c0 187 106 292 255 292c151 0 256 -101 256 -292zM474 282c0 157 -60 217 -157 217c-96 0 -156 -60 -156 -217c0 -159 63 -217 156 -217
c97 0 157 59 157 217z" />
    <glyph glyph-name="r.sc" horiz-adv-x="563" 
d="M502 402c0 -83 -61 -137 -140 -156l179 -246h-109l-169 234h-66v-234h-92v564h163c154 0 234 -55 234 -162zM404 402c0 63 -39 91 -129 91h-78v-189h80c82 0 127 28 127 98z" />
    <glyph glyph-name="racute.sc" horiz-adv-x="563" 
d="M502 402c0 -83 -61 -137 -140 -156l179 -246h-109l-169 234h-66v-234h-92v564h163c154 0 234 -55 234 -162zM404 402c0 63 -39 91 -129 91h-78v-189h80c82 0 127 28 127 98zM197 642l-28 50l188 109l48 -77z" />
    <glyph glyph-name="rcaron.sc" horiz-adv-x="563" 
d="M502 402c0 -83 -61 -137 -140 -156l179 -246h-109l-169 234h-66v-234h-92v564h163c154 0 234 -55 234 -162zM404 402c0 63 -39 91 -129 91h-78v-189h80c82 0 127 28 127 98zM153 802l126 -81l127 81l39 -44l-135 -111h-61l-136 111z" />
    <glyph glyph-name="rcommaaccent.sc" horiz-adv-x="563" 
d="M502 402c0 -83 -61 -137 -140 -156l179 -246h-109l-169 234h-66v-234h-92v564h163c154 0 234 -55 234 -162zM404 402c0 63 -39 91 -129 91h-78v-189h80c82 0 127 28 127 98zM232 -125c0 32 26 56 58 56s57 -24 57 -56c0 -17 -5 -33 -17 -57l-50 -106h-53l29 116
c-14 12 -24 28 -24 47z" />
    <glyph glyph-name="s.sc" horiz-adv-x="498" 
d="M460 156c0 -91 -83 -166 -219 -166c-89 0 -161 29 -214 78l53 58c43 -38 91 -61 159 -61c79 0 123 31 123 88c0 48 -25 76 -123 103c-121 34 -185 85 -185 169c0 83 75 149 195 149c86 0 142 -26 195 -71l-54 -55c-43 37 -89 51 -139 51c-67 0 -102 -25 -102 -70
c0 -43 27 -66 131 -96c95 -27 180 -71 180 -177z" />
    <glyph glyph-name="sacute.sc" horiz-adv-x="498" 
d="M460 156c0 -91 -83 -166 -219 -166c-89 0 -161 29 -214 78l53 58c43 -38 91 -61 159 -61c79 0 123 31 123 88c0 48 -25 76 -123 103c-121 34 -185 85 -185 169c0 83 75 149 195 149c86 0 142 -26 195 -71l-54 -55c-43 37 -89 51 -139 51c-67 0 -102 -25 -102 -70
c0 -43 27 -66 131 -96c95 -27 180 -71 180 -177zM168 642l-28 50l188 109l48 -77z" />
    <glyph glyph-name="scaron.sc" horiz-adv-x="498" 
d="M460 156c0 -91 -83 -166 -219 -166c-89 0 -161 29 -214 78l53 58c43 -38 91 -61 159 -61c79 0 123 31 123 88c0 48 -25 76 -123 103c-121 34 -185 85 -185 169c0 83 75 149 195 149c86 0 142 -26 195 -71l-54 -55c-43 37 -89 51 -139 51c-67 0 -102 -25 -102 -70
c0 -43 27 -66 131 -96c95 -27 180 -71 180 -177zM131 802l126 -81l127 81l39 -44l-135 -111h-61l-136 111z" />
    <glyph glyph-name="scedilla.sc" horiz-adv-x="498" 
d="M297 -141c0 35 -33 42 -87 42l6 90c-77 5 -141 32 -189 77l53 58c43 -38 91 -61 159 -61c79 0 123 31 123 88c0 48 -25 76 -123 103c-121 34 -185 85 -185 169c0 83 75 149 195 149c86 0 142 -26 195 -71l-54 -55c-43 37 -89 51 -139 51c-67 0 -102 -25 -102 -70
c0 -43 27 -66 131 -96c95 -27 180 -71 180 -177c0 -82 -68 -152 -181 -164v-48c67 -6 94 -44 94 -85c0 -66 -58 -100 -125 -100c-40 0 -80 10 -105 25l28 51c19 -10 45 -16 66 -16c36 0 60 11 60 40z" />
    <glyph glyph-name="scircumflex.sc" horiz-adv-x="498" 
d="M460 156c0 -91 -83 -166 -219 -166c-89 0 -161 29 -214 78l53 58c43 -38 91 -61 159 -61c79 0 123 31 123 88c0 48 -25 76 -123 103c-121 34 -185 85 -185 169c0 83 75 149 195 149c86 0 142 -26 195 -71l-54 -55c-43 37 -89 51 -139 51c-67 0 -102 -25 -102 -70
c0 -43 27 -66 131 -96c95 -27 180 -71 180 -177zM258 728l-127 -81l-40 44l136 111h61l135 -111l-39 -44z" />
    <glyph glyph-name="scommaaccent.sc" horiz-adv-x="498" 
d="M460 156c0 -91 -83 -166 -219 -166c-89 0 -161 29 -214 78l53 58c43 -38 91 -61 159 -61c79 0 123 31 123 88c0 48 -25 76 -123 103c-121 34 -185 85 -185 169c0 83 75 149 195 149c86 0 142 -26 195 -71l-54 -55c-43 37 -89 51 -139 51c-67 0 -102 -25 -102 -70
c0 -43 27 -66 131 -96c95 -27 180 -71 180 -177zM193 -125c0 32 26 56 58 56s57 -24 57 -56c0 -17 -5 -33 -17 -57l-50 -106h-53l29 116c-14 12 -24 28 -24 47z" />
    <glyph glyph-name="germandbls.sc" horiz-adv-x="996" 
d="M460 156c0 -91 -83 -166 -219 -166c-89 0 -161 29 -214 78l53 58c43 -38 91 -61 159 -61c79 0 123 31 123 88c0 48 -25 76 -123 103c-121 34 -185 85 -185 169c0 83 75 149 195 149c86 0 142 -26 195 -71l-54 -55c-43 37 -89 51 -139 51c-67 0 -102 -25 -102 -70
c0 -43 27 -66 131 -96c95 -27 180 -71 180 -177zM958 156c0 -91 -83 -166 -219 -166c-89 0 -161 29 -214 78l53 58c43 -38 91 -61 159 -61c79 0 123 31 123 88c0 48 -25 76 -123 103c-121 34 -185 85 -185 169c0 83 75 149 195 149c86 0 142 -26 195 -71l-54 -55
c-43 37 -89 51 -139 51c-67 0 -102 -25 -102 -70c0 -43 27 -66 131 -96c95 -27 180 -71 180 -177z" />
    <glyph glyph-name="t.sc" horiz-adv-x="468" 
d="M448 488h-165v-488h-92v488h-175v76h444z" />
    <glyph glyph-name="tbar.sc" horiz-adv-x="468" 
d="M66 278v69h125v141h-175v76h444l-12 -76h-165v-141h126v-69h-126v-278h-92v278h-125z" />
    <glyph glyph-name="tcaron.sc" horiz-adv-x="468" 
d="M448 488h-165v-488h-92v488h-175v76h444zM108 802l126 -81l127 81l39 -44l-135 -111h-61l-136 111z" />
    <glyph glyph-name="tcedilla.sc" horiz-adv-x="468" 
d="M301 -141c0 35 -33 42 -87 42l7 99h-30v488h-175v76h444l-12 -76h-165v-544c67 -6 94 -44 94 -85c0 -66 -58 -100 -125 -100c-40 0 -80 10 -105 25l28 51c19 -10 45 -16 66 -16c36 0 60 11 60 40z" />
    <glyph glyph-name="tcommaaccent.sc" horiz-adv-x="468" 
d="M448 488h-165v-488h-92v488h-175v76h444zM181 -125c0 32 26 56 58 56s57 -24 57 -56c0 -17 -5 -33 -17 -57l-50 -106h-53l29 116c-14 12 -24 28 -24 47z" />
    <glyph glyph-name="u.sc" horiz-adv-x="622" 
d="M527 564v-378c0 -116 -78 -196 -217 -196c-141 0 -215 80 -215 196v378h92v-374c0 -83 39 -125 123 -125c85 0 125 43 125 125v374h92z" />
    <glyph glyph-name="uacute.sc" horiz-adv-x="622" 
d="M527 564v-378c0 -116 -78 -196 -217 -196c-141 0 -215 80 -215 196v378h92v-374c0 -83 39 -125 123 -125c85 0 125 43 125 125v374h92zM236 642l-28 50l188 109l48 -77z" />
    <glyph glyph-name="ubreve.sc" horiz-adv-x="622" 
d="M527 564v-378c0 -116 -78 -196 -217 -196c-141 0 -215 80 -215 196v378h92v-374c0 -83 39 -125 123 -125c85 0 125 43 125 125v374h92zM310 648c-95 0 -142 70 -150 130l61 13c13 -48 41 -74 89 -74c47 0 78 26 91 74l61 -13c-8 -60 -58 -130 -152 -130z" />
    <glyph glyph-name="ucircumflex.sc" horiz-adv-x="622" 
d="M527 564v-378c0 -116 -78 -196 -217 -196c-141 0 -215 80 -215 196v378h92v-374c0 -83 39 -125 123 -125c85 0 125 43 125 125v374h92zM311 728l-127 -81l-40 44l136 111h61l135 -111l-39 -44z" />
    <glyph glyph-name="udieresis.sc" horiz-adv-x="622" 
d="M527 564v-378c0 -116 -78 -196 -217 -196c-141 0 -215 80 -215 196v378h92v-374c0 -83 39 -125 123 -125c85 0 125 43 125 125v374h92zM206 657c-32 0 -58 24 -58 56c0 33 26 57 58 57c33 0 58 -24 58 -57c0 -32 -25 -56 -58 -56zM416 657c-33 0 -58 24 -58 56
c0 33 25 57 58 57c32 0 57 -24 57 -57c0 -32 -25 -56 -57 -56z" />
    <glyph glyph-name="ugrave.sc" horiz-adv-x="622" 
d="M527 564v-378c0 -116 -78 -196 -217 -196c-141 0 -215 80 -215 196v378h92v-374c0 -83 39 -125 123 -125c85 0 125 43 125 125v374h92zM414 692l-28 -50l-208 82l47 78z" />
    <glyph glyph-name="uhungarumlaut.sc" horiz-adv-x="622" 
d="M527 564v-378c0 -116 -78 -196 -217 -196c-141 0 -215 80 -215 196v378h92v-374c0 -83 39 -125 123 -125c85 0 125 43 125 125v374h92zM225 652l-58 27l80 176l78 -37zM387 650l-56 29l89 176l77 -40z" />
    <glyph glyph-name="umacron.sc" horiz-adv-x="622" 
d="M527 564v-378c0 -116 -78 -196 -217 -196c-141 0 -215 80 -215 196v378h92v-374c0 -83 39 -125 123 -125c85 0 125 43 125 125v374h92zM447 753v-69h-273v69h273z" />
    <glyph glyph-name="uogonek.sc" horiz-adv-x="622" 
d="M527 564v-378c0 -82 -39 -146 -110 -176c-74 -43 -89 -92 -89 -127c0 -31 19 -53 64 -53c27 0 50 8 62 15l25 -54c-32 -16 -63 -22 -97 -22c-84 0 -131 44 -131 111c0 40 26 79 67 110h-8c-141 0 -215 80 -215 196v378h92v-374c0 -83 39 -125 123 -125
c85 0 125 43 125 125v374h92z" />
    <glyph glyph-name="uring.sc" horiz-adv-x="622" 
d="M527 564v-378c0 -116 -78 -196 -217 -196c-141 0 -215 80 -215 196v378h92v-374c0 -83 39 -125 123 -125c85 0 125 43 125 125v374h92zM258 732c0 -35 21 -56 53 -56s53 21 53 56s-20 56 -53 56c-32 0 -53 -21 -53 -56zM425 732c0 -58 -47 -105 -114 -105
s-114 47 -114 105c0 59 47 106 114 106s114 -47 114 -106z" />
    <glyph glyph-name="utilde.sc" horiz-adv-x="622" 
d="M527 564v-378c0 -116 -78 -196 -217 -196c-141 0 -215 80 -215 196v378h92v-374c0 -83 39 -125 123 -125c85 0 125 43 125 125v374h92zM364 660c-58 0 -79 48 -110 48c-23 0 -35 -16 -51 -44l-57 26c20 47 55 88 113 88c59 0 79 -48 110 -48c22 0 35 16 51 44l57 -25
c-21 -47 -56 -89 -113 -89z" />
    <glyph glyph-name="v.sc" horiz-adv-x="533" 
d="M15 564h99l153 -472h4l152 472h95l-204 -564h-94z" />
    <glyph glyph-name="w.sc" horiz-adv-x="749" 
d="M724 564l-126 -564h-114l-109 451h-4l-109 -451h-111l-126 564h92l94 -468h4l112 468h96l114 -468h4l97 468h86z" />
    <glyph glyph-name="wcircumflex.sc" horiz-adv-x="749" 
d="M724 564l-126 -564h-114l-109 451h-4l-109 -451h-111l-126 564h92l94 -468h4l112 468h96l114 -468h4l97 468h86zM375 728l-127 -81l-40 44l136 111h61l135 -111l-39 -44z" />
    <glyph glyph-name="x.sc" horiz-adv-x="510" 
d="M197 301l-175 263h106l126 -204h4l125 204h100l-177 -261l199 -303h-107l-148 241h-4l-139 -241h-102z" />
    <glyph glyph-name="y.sc" horiz-adv-x="499" 
d="M494 564l-198 -347v-217h-91v216l-200 348h103l145 -271h4l139 271h98z" />
    <glyph glyph-name="yacute.sc" horiz-adv-x="499" 
d="M494 564l-198 -347v-217h-91v216l-200 348h103l145 -271h4l139 271h98zM177 642l-28 50l188 109l48 -77z" />
    <glyph glyph-name="ycircumflex.sc" horiz-adv-x="499" 
d="M494 564l-198 -347v-217h-91v216l-200 348h103l145 -271h4l139 271h98zM250 728l-127 -81l-40 44l136 111h61l135 -111l-39 -44z" />
    <glyph glyph-name="ydieresis.sc" horiz-adv-x="499" 
d="M494 564l-198 -347v-217h-91v216l-200 348h103l145 -271h4l139 271h98zM144 657c-32 0 -58 24 -58 56c0 33 26 57 58 57c33 0 58 -24 58 -57c0 -32 -25 -56 -58 -56zM354 657c-33 0 -58 24 -58 56c0 33 25 57 58 57c32 0 57 -24 57 -57c0 -32 -25 -56 -57 -56z" />
    <glyph glyph-name="z.sc" horiz-adv-x="478" 
d="M434 493l-300 -415h301l-12 -78h-392v70l300 418h-268v76h371v-71z" />
    <glyph glyph-name="zacute.sc" horiz-adv-x="478" 
d="M434 493l-300 -415h301l-12 -78h-392v70l300 418h-268v76h371v-71zM159 642l-28 50l188 109l48 -77z" />
    <glyph glyph-name="zcaron.sc" horiz-adv-x="478" 
d="M434 493l-300 -415h301l-12 -78h-392v70l300 418h-268v76h371v-71zM118 802l126 -81l127 81l39 -44l-135 -111h-61l-136 111z" />
    <glyph glyph-name="zdotaccent.sc" horiz-adv-x="478" 
d="M434 493l-300 -415h301l-12 -78h-392v70l300 418h-268v76h371v-71zM307 720c0 -36 -26 -63 -64 -63s-64 27 -64 63c0 35 26 62 64 62s64 -27 64 -62z" />
    <glyph glyph-name="A-cy" unicode="&#x410;" horiz-adv-x="579" 
d="M473 0l-53 173h-265l-53 -173h-96l224 689h120l223 -689h-100zM286 603l-108 -353h219l-107 353h-4z" />
    <glyph glyph-name="Be-cy" unicode="&#x411;" horiz-adv-x="584" 
d="M495 689l-9 -78h-286v-188h85c167 0 269 -62 269 -207c0 -157 -111 -216 -267 -216h-182v689h390zM453 215c0 98 -66 134 -158 134h-95v-273h95c91 0 158 27 158 139z" />
    <glyph glyph-name="Ve-cy" unicode="&#x412;" horiz-adv-x="626" 
d="M468 195c0 101 -65 129 -144 129h-124v-248h120c67 0 148 20 148 119zM441 509c0 76 -50 105 -132 105h-109v-217h117c80 0 124 34 124 112zM568 197c0 -151 -132 -197 -261 -197h-202v689h187c123 0 246 -39 246 -174c0 -88 -62 -134 -120 -147v-4
c69 -13 150 -53 150 -167z" />
    <glyph glyph-name="Ge-cy" unicode="&#x413;" horiz-adv-x="503" 
d="M105 689h390l-10 -82h-285v-607h-95v689z" />
    <glyph glyph-name="Gje-cy" unicode="&#x403;" horiz-adv-x="503" 
d="M105 689h390l-10 -82h-285v-607h-95v689zM221 750l-28 49l189 109l47 -77z" />
    <glyph glyph-name="Gheupturn-cy" unicode="&#x490;" horiz-adv-x="503" 
d="M105 689h298v147h92v-147l-10 -82h-285v-607h-95v689z" />
    <glyph glyph-name="De-cy" unicode="&#x414;" horiz-adv-x="642" 
d="M-5 78h47c54 53 62 123 99 411l25 200h370v-611h56v-228h-75l-15 150h-417l-15 -150h-75v228zM441 611h-192l-14 -126c-31 -272 -43 -352 -104 -407h310v533z" />
    <glyph glyph-name="Ie-cy" unicode="&#x415;" horiz-adv-x="540" 
d="M467 613h-267v-225h232v-76h-232v-236h286v-76h-381v689h373z" />
    <glyph glyph-name="Io-cy" unicode="&#x401;" horiz-adv-x="540" 
d="M467 613h-267v-225h232v-76h-232v-236h286v-76h-381v689h373zM184 764c-32 0 -57 24 -57 57c0 32 25 56 57 56c33 0 58 -24 58 -56c0 -33 -25 -57 -58 -57zM394 764c-33 0 -58 24 -58 57c0 32 25 56 58 56c32 0 58 -24 58 -56c0 -33 -26 -57 -58 -57z" />
    <glyph glyph-name="Zhe-cy" unicode="&#x416;" horiz-adv-x="821" 
d="M365 0v323h-83l-171 -323h-106l201 366l-182 323h103l156 -288h82v288h91v-288h82l158 288h101l-182 -323l201 -366h-108l-170 323h-82v-323h-91z" />
    <glyph glyph-name="Ze-cy" unicode="&#x417;" horiz-adv-x="536" 
d="M481 201c0 -119 -94 -213 -246 -213c-86 0 -167 29 -220 93l60 54c39 -46 101 -67 157 -67c93 0 147 50 147 134c0 92 -61 128 -142 128h-81l11 78h64c66 0 128 33 128 110c0 73 -56 105 -127 105c-59 0 -105 -20 -150 -62l-53 59c59 56 135 81 208 81
c137 0 221 -76 221 -170c0 -84 -58 -142 -127 -155v-4c76 -5 150 -66 150 -171z" />
    <glyph glyph-name="Ii-cy" unicode="&#x418;" horiz-adv-x="683" 
d="M230 0h-125v689h95v-336c0 -124 -6 -191 -13 -250h4l264 586h123v-689h-95v336c0 108 8 197 13 247h-4z" />
    <glyph glyph-name="ShortI-cy" unicode="&#x419;" horiz-adv-x="683" 
d="M230 0h-125v689h95v-336c0 -124 -6 -191 -13 -250h4l264 586h123v-689h-95v336c0 108 8 197 13 247h-4zM340 755c-94 0 -142 63 -150 113l61 13c13 -39 42 -56 89 -56s78 17 91 56l61 -13c-8 -50 -57 -113 -152 -113z" />
    <glyph glyph-name="Ka-cy" unicode="&#x41a;" horiz-adv-x="594" 
d="M481 0l-213 323h-68v-323h-95v689h95v-288h69l205 288h101l-226 -323l245 -366h-113z" />
    <glyph glyph-name="Kje-cy" unicode="&#x40c;" horiz-adv-x="594" 
d="M481 0l-213 323h-68v-323h-95v689h95v-288h69l205 288h101l-226 -323l245 -366h-113zM247 750l-28 49l189 109l47 -77z" />
    <glyph glyph-name="El-cy" unicode="&#x41b;" horiz-adv-x="655" 
d="M52 -12l-42 69c84 62 99 109 140 432l25 200h375v-689h-95v609h-197l-14 -124c-40 -352 -64 -426 -192 -497z" />
    <glyph glyph-name="Em-cy" unicode="&#x41c;" horiz-adv-x="796" 
d="M734 0h-92l-30 353c-8 97 -11 207 -11 229h-4l-154 -509h-91l-160 509h-4c0 -23 -2 -140 -9 -229l-27 -353h-90l57 689h128l151 -503h4l146 503h129z" />
    <glyph glyph-name="En-cy" unicode="&#x41d;" horiz-adv-x="680" 
d="M575 0h-95v323h-280v-323h-95v689h95v-288h280v288h95v-689z" />
    <glyph glyph-name="O-cy" unicode="&#x41e;" horiz-adv-x="696" 
d="M634 344c0 -230 -117 -356 -286 -356s-286 121 -286 355c0 230 117 358 286 358s286 -123 286 -357zM533 344c0 202 -73 279 -185 279s-185 -78 -185 -280s76 -277 185 -277c112 0 185 76 185 278z" />
    <glyph glyph-name="Pe-cy" unicode="&#x41f;" horiz-adv-x="680" 
d="M575 0h-95v608h-280v-608h-95v689h470v-689z" />
    <glyph glyph-name="Er-cy" unicode="&#x420;" horiz-adv-x="586" 
d="M453 475c0 103 -66 140 -158 140h-95v-287h95c91 0 158 29 158 147zM554 476c0 -161 -111 -223 -267 -223h-87v-253h-95v689h180c167 0 269 -68 269 -213z" />
    <glyph glyph-name="Es-cy" unicode="&#x421;" horiz-adv-x="571" 
d="M353 68c72 0 116 29 150 59l49 -62c-43 -41 -107 -77 -203 -77c-166 0 -287 125 -287 357s132 356 286 356c88 0 140 -24 194 -68l-52 -61c-42 35 -87 51 -136 51c-102 0 -191 -71 -191 -278c0 -199 83 -277 190 -277z" />
    <glyph glyph-name="Te-cy" unicode="&#x422;" horiz-adv-x="517" 
d="M499 608h-190v-608h-95v608h-198v81h493z" />
    <glyph glyph-name="U-cy" unicode="&#x423;" 
d="M555 689l-197 -503c-47 -120 -103 -180 -251 -198l-14 74c120 17 149 56 177 127h-39l-221 500h99l184 -435h4l162 435h96z" />
    <glyph glyph-name="Ushort-cy" unicode="&#x40e;" horiz-adv-x="565" 
d="M560 689l-197 -503c-47 -120 -103 -180 -251 -198l-14 74c120 17 149 56 177 127h-39l-221 500h99l184 -435h4l162 435h96zM281 755c-94 0 -142 63 -150 113l61 13c13 -39 42 -56 89 -56s78 17 91 56l61 -13c-8 -50 -57 -113 -152 -113z" />
    <glyph glyph-name="Ef-cy" unicode="&#x424;" horiz-adv-x="820" 
d="M456 -30h-92v62c-163 5 -324 81 -324 315c0 227 150 303 324 312v60h92v-60c174 -9 324 -85 324 -312c0 -234 -161 -310 -324 -315v-62zM682 347c0 205 -123 239 -228 242v-487c109 8 228 50 228 245zM138 347c0 -195 118 -237 228 -245v487c-106 -3 -228 -37 -228 -242z
" />
    <glyph glyph-name="Ha-cy" unicode="&#x425;" horiz-adv-x="555" 
d="M217 367l-194 322h108l142 -256h4l148 256h102l-197 -317l220 -372h-108l-167 302h-4l-164 -302h-102z" />
    <glyph glyph-name="Che-cy" unicode="&#x427;" horiz-adv-x="617" 
d="M512 0h-95v290c-38 -30 -92 -53 -159 -53c-147 0 -218 78 -218 230v222h95v-218c0 -109 37 -153 135 -153c74 0 119 28 147 51v320h95v-689z" />
    <glyph glyph-name="Tse-cy" unicode="&#x426;" horiz-adv-x="680" 
d="M475 689h95v-611h80v-228h-75l-15 150h-455v689h95v-611h275v611z" />
    <glyph glyph-name="Sha-cy" unicode="&#x428;" horiz-adv-x="955" 
d="M433 689h89v-611h235v611h93v-689h-745v689h93v-611h235v611z" />
    <glyph glyph-name="Shcha-cy" unicode="&#x429;" horiz-adv-x="960" 
d="M433 689h89v-611h235v611h93v-611h80v-228h-75l-15 150h-735v689h93v-611h235v611z" />
    <glyph glyph-name="Dzhe-cy" unicode="&#x40f;" horiz-adv-x="675" 
d="M475 689h95v-689h-192v-150h-75l-15 150h-183v689h95v-611h275v611z" />
    <glyph glyph-name="Ia-cy" unicode="&#x42f;" horiz-adv-x="639" 
d="M439 274h-153l-143 -274h-108l161 295c-80 36 -120 103 -120 188c0 131 91 206 263 206h195v-689h-95v274zM177 483c0 -92 48 -134 137 -134h125v266h-109c-103 0 -153 -41 -153 -132z" />
    <glyph glyph-name="Softsign-cy" unicode="&#x42c;" horiz-adv-x="579" 
d="M200 689v-253h85c167 0 269 -64 269 -213c0 -161 -111 -223 -267 -223h-182v689h95zM453 222c0 103 -66 140 -158 140h-95v-286h95c91 0 158 28 158 146z" />
    <glyph glyph-name="Hardsign-cy" unicode="&#x42a;" horiz-adv-x="642" 
d="M263 689v-253h85c167 0 269 -64 269 -213c0 -161 -111 -223 -267 -223h-182v608h-168v81h263zM516 222c0 103 -66 140 -158 140h-95v-286h95c91 0 158 28 158 146z" />
    <glyph glyph-name="Yeru-cy" unicode="&#x42b;" horiz-adv-x="829" 
d="M200 689v-253h75c167 0 269 -64 269 -213c0 -161 -111 -223 -267 -223h-172v689h95zM443 222c0 103 -66 140 -158 140h-85v-285h85c91 0 158 27 158 145zM724 0h-95v689h95v-689z" />
    <glyph glyph-name="Lje-cy" unicode="&#x409;" horiz-adv-x="909" 
d="M52 -12l-42 69c84 62 99 109 140 432l25 200h365v-253h75c167 0 269 -64 269 -213c0 -161 -111 -223 -267 -223h-172v611h-187l-14 -126c-40 -352 -64 -426 -192 -497zM783 222c0 103 -66 140 -158 140h-85v-285h85c91 0 158 27 158 145z" />
    <glyph glyph-name="Nje-cy" unicode="&#x40a;" horiz-adv-x="929" 
d="M637 0h-172v349h-265v-349h-95v689h95v-266h265v266h95v-266h75c167 0 269 -56 269 -207c0 -158 -111 -216 -267 -216zM645 349h-85v-272h85c91 0 158 23 158 138c0 105 -66 134 -158 134z" />
    <glyph glyph-name="Dze-cy" unicode="&#x405;" horiz-adv-x="545" 
d="M507 192c0 -120 -91 -204 -244 -204c-101 0 -179 33 -236 89l55 61c47 -45 103 -72 178 -72c81 0 148 40 148 123c0 65 -33 97 -149 133c-134 41 -204 92 -204 199c0 106 88 180 217 180c96 0 157 -28 213 -80l-54 -60c-48 44 -97 62 -155 62c-69 0 -124 -32 -124 -98
c0 -58 27 -86 151 -124c110 -34 204 -77 204 -209z" />
    <glyph glyph-name="E-cy" unicode="&#x404;" horiz-adv-x="577" 
d="M353 66c72 0 116 29 150 59l49 -60c-43 -41 -107 -77 -203 -77c-166 0 -287 125 -287 357s132 356 286 356c88 0 140 -24 194 -68l-52 -59c-42 35 -87 51 -136 51c-97 0 -179 -62 -191 -232h288v-78h-290c8 -177 87 -249 192 -249z" />
    <glyph glyph-name="Ereversed-cy" unicode="&#x42d;" horiz-adv-x="568" 
d="M238 624c-71 0 -114 -31 -154 -64l-51 58c51 46 116 83 209 83c169 0 264 -116 264 -348c0 -241 -95 -365 -271 -365c-88 0 -163 33 -210 86l55 57c46 -42 92 -63 149 -63c117 0 170 75 177 247h-281v78h281c-7 168 -60 231 -168 231z" />
    <glyph glyph-name="I-cy" unicode="&#x406;" horiz-adv-x="306" 
d="M201 0h-96v689h96v-689z" />
    <glyph glyph-name="Yi-cy" unicode="&#x407;" horiz-adv-x="306" 
d="M201 0h-96v689h96v-689zM47 764c-32 0 -57 24 -57 57c0 32 25 56 57 56c33 0 58 -24 58 -56c0 -33 -25 -57 -58 -57zM257 764c-33 0 -58 24 -58 57c0 32 25 56 58 56c32 0 58 -24 58 -56c0 -33 -26 -57 -58 -57z" />
    <glyph glyph-name="Je-cy" unicode="&#x408;" horiz-adv-x="308" 
d="M29 -139l-24 74c89 35 108 73 108 165v589h95v-593c0 -142 -69 -198 -179 -235z" />
    <glyph glyph-name="Tshe-cy" unicode="&#x40b;" horiz-adv-x="720" 
d="M499 608h-190v-217c41 33 99 61 168 61c147 0 208 -78 208 -230v-222h-95v218c0 109 -32 153 -135 153c-74 0 -119 -28 -146 -51v-320h-95v608h-198v81h493z" />
    <glyph glyph-name="Iu-cy" unicode="&#x42e;" horiz-adv-x="898" 
d="M568 -12c-150 0 -257 128 -264 335h-104v-323h-95v689h95v-288h106c15 187 108 300 262 300c166 0 268 -123 268 -357c0 -230 -99 -356 -268 -356zM568 623c-92 0 -165 -66 -165 -278s73 -279 165 -279s169 66 169 278s-77 279 -169 279z" />
    <glyph glyph-name="Dje-cy" unicode="&#x402;" horiz-adv-x="720" 
d="M507 -139l-24 74c89 35 107 73 107 165v118c0 109 -32 153 -135 153c-74 0 -119 -28 -146 -51v-320h-95v608h-198v81h493l-10 -81h-190v-217c41 33 99 61 168 61c147 0 208 -78 208 -230v-126c0 -142 -68 -198 -178 -235z" />
    <glyph glyph-name="Yat-cy" unicode="&#x462;" horiz-adv-x="693" 
d="M499 608h-190v-185h85c167 0 269 -62 269 -207c0 -157 -111 -216 -267 -216h-182v608h-198v81h493zM562 215c0 98 -66 134 -158 134h-95v-273h95c91 0 158 27 158 139z" />
    <glyph glyph-name="Fita-cy" unicode="&#x472;" horiz-adv-x="696" 
d="M634 344c0 -230 -117 -356 -286 -356s-286 121 -286 355c0 230 117 358 286 358s286 -123 286 -357zM348 66c107 0 179 70 184 254h-369c6 -185 80 -254 185 -254zM348 623c-103 0 -173 -66 -184 -233h368c-11 168 -81 233 -184 233z" />
    <glyph glyph-name="Izhitsa-cy" unicode="&#x474;" horiz-adv-x="585" 
d="M293 105h4l132 456c22 76 34 103 57 140l94 -17c-27 -39 -42 -72 -65 -146l-169 -538h-104l-227 689h102z" />
    <glyph glyph-name="Ghestroke-cy" unicode="&#x492;" horiz-adv-x="513" 
d="M366 433v-70h-156v-363h-95v363h-98v70h98v256h390l-10 -82h-285v-174h156z" />
    <glyph glyph-name="Zhedescender-cy" unicode="&#x496;" horiz-adv-x="836" 
d="M365 0v323h-83l-171 -323h-106l201 366l-182 323h103l156 -288h82v288h91v-288h82l158 288h101l-182 -323l158 -288h63v-228h-75l-15 150h-38l-170 323h-82v-323h-91z" />
    <glyph glyph-name="Zedescender-cy" unicode="&#x498;" horiz-adv-x="536" 
d="M297 -141c0 35 -33 42 -87 42l7 88c-80 4 -153 32 -202 92l60 54c39 -46 101 -67 157 -67c93 0 147 50 147 134c0 92 -61 128 -142 128h-81l11 78h64c66 0 128 33 128 110c0 73 -56 105 -127 105c-59 0 -105 -20 -150 -62l-53 59c59 56 135 81 208 81
c137 0 221 -76 221 -170c0 -84 -58 -142 -127 -155v-4c76 -5 150 -66 150 -171c0 -107 -76 -194 -201 -210v-47c66 -6 94 -44 94 -85c0 -66 -58 -100 -125 -100c-41 0 -80 10 -106 25l28 51c19 -10 45 -16 66 -16c36 0 60 11 60 40z" />
    <glyph glyph-name="Kadescender-cy" unicode="&#x49a;" horiz-adv-x="609" 
d="M481 0l-213 323h-68v-323h-95v689h95v-288h69l205 288h101l-226 -323l193 -288h72v-228h-75l-15 150h-43z" />
    <glyph glyph-name="Kaverticalstroke-cy" unicode="&#x49c;" horiz-adv-x="594" 
d="M293 150h-54v174h-42v-324h-92v689h92v-289h42v170h54v-170h20l164 289h98l-188 -323l207 -366h-105l-176 324h-20v-174z" />
    <glyph glyph-name="Kabashkir-cy" unicode="&#x4a0;" horiz-adv-x="657" 
d="M544 0l-213 323h-68v-323h-95v608h-168v81h263v-288h69l205 288h101l-226 -323l245 -366h-113z" />
    <glyph glyph-name="Endescender-cy" unicode="&#x4a2;" horiz-adv-x="685" 
d="M575 689v-611h80v-228h-75l-15 150h-85v323h-280v-323h-95v689h95v-288h280v288h95z" />
    <glyph glyph-name="Esdescender-cy" unicode="&#x4aa;" horiz-adv-x="571" 
d="M353 68c72 0 116 29 150 59l49 -62c-28 -27 -65 -51 -114 -65c-74 -43 -89 -92 -89 -127c0 -31 19 -53 64 -53c27 0 50 8 62 15l25 -54c-32 -16 -63 -22 -97 -22c-84 0 -131 44 -131 111c0 43 28 86 74 118c-165 2 -284 126 -284 357c0 232 132 356 286 356
c88 0 140 -24 194 -68l-52 -61c-42 35 -87 51 -136 51c-102 0 -191 -71 -191 -278c0 -199 83 -277 190 -277z" />
    <glyph glyph-name="Ustrait-cy" unicode="&#x4ae;" horiz-adv-x="550" 
d="M545 689l-222 -424v-265h-96v264l-222 425h105l166 -337h4l166 337h99z" />
    <glyph glyph-name="Ustraitstroke-cy" unicode="&#x4b0;" horiz-adv-x="550" 
d="M545 689l-196 -373h101v-70h-127v-246h-96v246h-127v70h100l-195 373h105l166 -337h4l166 337h99z" />
    <glyph glyph-name="Hadesender-cy" unicode="&#x4b2;" horiz-adv-x="570" 
d="M217 367l-194 322h108l142 -256h4l148 256h102l-197 -317l174 -294h86v-228h-75l-15 150h-58l-167 302h-4l-164 -302h-102z" />
    <glyph glyph-name="Cheverticalstroke-cy" unicode="&#x4b8;" horiz-adv-x="617" 
d="M308 150h-59v87c-141 3 -209 81 -209 230v222h95v-218c0 -101 31 -146 114 -152v251h59v-250c52 8 86 30 109 49v320h95v-689h-95v290c-28 -22 -65 -41 -109 -49v-91z" />
    <glyph glyph-name="Shha-cy" unicode="&#x4ba;" horiz-adv-x="612" 
d="M105 689h95v-293c41 31 99 56 169 56c147 0 208 -78 208 -230v-222h-95v218c0 109 -32 153 -135 153c-75 0 -120 -28 -147 -51v-320h-95v689z" />
    <glyph glyph-name="Palochka-cy" unicode="&#x4c0;" horiz-adv-x="306" 
d="M201 0h-96v689h96v-689z" />
    <glyph glyph-name="Chekhakassian-cy" unicode="&#x4cb;" horiz-adv-x="622" 
d="M512 689v-611h80v-228h-75l-15 150h-85v290c-38 -30 -92 -53 -159 -53c-147 0 -218 78 -218 230v222h95v-218c0 -109 37 -153 135 -153c74 0 119 28 147 51v320h95z" />
    <glyph glyph-name="Schwa-cy" unicode="&#x4d8;" horiz-adv-x="671" 
d="M57 332c0 13 1 33 3 51h450c-6 176 -72 242 -186 242c-72 0 -137 -33 -178 -69l-51 60c53 46 137 85 233 85c183 0 281 -116 281 -348c0 -230 -108 -365 -277 -365s-275 117 -275 344zM333 64c105 0 167 74 177 243h-359c7 -175 65 -243 182 -243z" />
    <glyph glyph-name="Imacron-cy" unicode="&#x4e2;" horiz-adv-x="683" 
d="M230 0h-125v689h95v-336c0 -124 -6 -191 -13 -250h4l264 586h123v-689h-95v336c0 108 8 197 13 247h-4zM478 861v-70h-273v70h273z" />
    <glyph glyph-name="Obarred-cy" unicode="&#x4e8;" horiz-adv-x="696" 
d="M634 344c0 -230 -117 -356 -286 -356s-286 121 -286 355c0 230 117 358 286 358s286 -123 286 -357zM348 66c107 0 179 70 184 254h-369c6 -185 80 -254 185 -254zM348 623c-103 0 -173 -66 -184 -233h368c-11 168 -81 233 -184 233z" />
    <glyph glyph-name="Umacron-cy" unicode="&#x4ee;" horiz-adv-x="565" 
d="M560 689l-197 -503c-47 -120 -103 -180 -251 -198l-14 74c120 17 149 56 177 127h-39l-221 500h99l184 -435h4l162 435h96zM419 861v-70h-273v70h273z" />
    <glyph glyph-name="a-cy" unicode="&#x430;" horiz-adv-x="546" 
d="M453 367v-248c0 -42 12 -57 39 -67l-22 -64c-47 6 -81 27 -97 74c-37 -50 -93 -74 -157 -74c-106 0 -171 65 -171 163c0 109 88 170 248 170h68v41c0 74 -37 102 -114 102c-35 0 -84 -8 -138 -27l-24 68c65 24 124 34 176 34c134 0 192 -65 192 -172zM241 57
c50 0 90 27 120 73v130h-63c-113 0 -152 -41 -152 -105c0 -65 29 -98 95 -98z" />
    <glyph glyph-name="be-cy" unicode="&#x431;" horiz-adv-x="565" 
d="M286 600c-76 -27 -110 -71 -125 -182h3c33 58 88 86 152 86c125 0 207 -103 207 -248c0 -181 -102 -268 -232 -268c-140 0 -229 93 -229 292c0 207 28 336 175 386c77 26 114 41 189 85l39 -69c-68 -44 -103 -56 -179 -82zM302 430c-86 0 -142 -52 -145 -168v-9
c0 -113 44 -191 136 -191c71 0 131 34 131 193c0 124 -44 175 -122 175z" />
    <glyph glyph-name="ve-cy" unicode="&#x432;" horiz-adv-x="569" 
d="M415 160c0 58 -35 87 -118 87h-107v-175h103c86 0 122 26 122 88zM391 391c0 56 -40 77 -117 77c-33 0 -57 -2 -84 -6v-147h101c67 0 100 21 100 76zM512 155c0 -121 -107 -155 -222 -155h-192v520c54 11 115 19 174 19c107 0 214 -29 214 -142c0 -59 -36 -91 -88 -106
v-4c61 -11 114 -50 114 -132z" />
    <glyph glyph-name="ge-cy" unicode="&#x433;" horiz-adv-x="430" 
d="M190 451v-451h-92v527h332l-11 -76h-229z" />
    <glyph glyph-name="gje-cy" unicode="&#x453;" horiz-adv-x="430" 
d="M190 451v-451h-92v527h332l-11 -76h-229zM180 622l-30 50l188 119l47 -77z" />
    <glyph glyph-name="gheupturn-cy" unicode="&#x491;" horiz-adv-x="430" 
d="M190 451v-451h-92v527h240v135h92v-135l-11 -76h-229z" />
    <glyph glyph-name="de-cy" unicode="&#x434;" horiz-adv-x="582" 
d="M434 0h-343l-15 -140h-71v213h37c46 40 67 97 81 284l12 170h345v-454h40v-213h-71zM388 454h-170l-6 -91c-14 -191 -32 -247 -92 -290h268v381z" />
    <glyph glyph-name="ie-cy" unicode="&#x435;" horiz-adv-x="546" 
d="M491 232h-336c8 -117 62 -169 142 -169c48 0 87 12 132 49l42 -61c-49 -39 -108 -63 -176 -63c-157 0 -238 111 -238 275c0 159 83 276 223 276c138 0 213 -99 213 -260c0 -18 -1 -35 -2 -47zM280 466c-72 0 -118 -53 -125 -166h247c-2 109 -40 166 -122 166z" />
    <glyph glyph-name="io-cy" unicode="&#x451;" horiz-adv-x="546" 
d="M491 232h-336c8 -117 62 -169 142 -169c48 0 87 12 132 49l42 -61c-49 -39 -108 -63 -176 -63c-157 0 -238 111 -238 275c0 159 83 276 223 276c138 0 213 -99 213 -260c0 -18 -1 -35 -2 -47zM280 466c-72 0 -118 -53 -125 -166h247c-2 109 -40 166 -122 166zM168 647
c-33 0 -58 24 -58 56c0 33 25 57 58 57c32 0 57 -24 57 -57c0 -32 -25 -56 -57 -56zM377 647c-32 0 -57 24 -57 56c0 33 25 57 57 57c33 0 58 -24 58 -57c0 -32 -25 -56 -58 -56z" />
    <glyph glyph-name="zhe-cy" unicode="&#x436;" horiz-adv-x="699" 
d="M393 0h-88v243h-69l-131 -243h-100l156 284l-137 243h96l115 -212h70v212h88v-212h71l116 212h95l-137 -243l156 -284h-101l-130 243h-70v-243z" />
    <glyph glyph-name="ze-cy" unicode="&#x437;" horiz-adv-x="494" 
d="M162 239l6 72h52c64 0 99 31 99 77c0 54 -36 79 -105 79c-41 0 -92 -11 -135 -43l-45 56c49 41 124 59 180 59c111 0 200 -36 200 -142c0 -57 -38 -98 -90 -113v-4c61 -11 119 -46 119 -128c0 -106 -98 -164 -223 -164c-96 0 -156 29 -205 69l49 61
c43 -37 89 -56 158 -56c82 0 122 37 122 94c0 56 -38 83 -118 83h-64z" />
    <glyph glyph-name="ii-cy" unicode="&#x438;" horiz-adv-x="613" 
d="M399 527h116v-527h-91v238c0 93 9 173 11 185h-4l-218 -423h-115v527h91v-238c0 -82 -8 -169 -10 -182h4z" />
    <glyph glyph-name="iishort-cy" unicode="&#x439;" horiz-adv-x="613" 
d="M399 527h116v-527h-91v238c0 93 9 173 11 185h-4l-218 -423h-115v527h91v-238c0 -82 -8 -169 -10 -182h4zM312 628c-93 0 -142 63 -150 117l61 13c14 -40 42 -61 89 -61c48 0 78 21 92 61l61 -13c-8 -54 -59 -117 -153 -117z" />
    <glyph glyph-name="ka-cy" unicode="&#x43a;" horiz-adv-x="515" 
d="M190 0h-92v527h92v-212h59l146 212h101l-173 -244l192 -283h-109l-159 243h-57v-243z" />
    <glyph glyph-name="kje-cy" unicode="&#x45c;" horiz-adv-x="515" 
d="M190 0h-92v527h92v-212h59l146 212h101l-173 -244l192 -283h-109l-159 243h-57v-243zM210 622l-30 50l188 119l47 -77z" />
    <glyph glyph-name="el-cy" unicode="&#x43b;" horiz-adv-x="593" 
d="M57 -12l-42 64c65 45 94 85 111 305l13 170h356v-527h-92v452h-181l-7 -89c-20 -250 -40 -314 -158 -375z" />
    <glyph glyph-name="em-cy" unicode="&#x43c;" horiz-adv-x="695" 
d="M638 0h-90l-24 249c-6 58 -6 110 -6 181h-4l-121 -372h-87l-133 372h-4c0 -59 0 -125 -4 -180l-19 -250h-89l47 527h119l126 -363h4l116 363h121z" />
    <glyph glyph-name="en-cy" unicode="&#x43d;" horiz-adv-x="606" 
d="M508 0h-92v232h-226v-232h-92v527h92v-221h226v221h92v-527z" />
    <glyph glyph-name="o-cy" unicode="&#x43e;" horiz-adv-x="584" 
d="M428 264c0 137 -48 201 -135 201c-88 0 -137 -64 -137 -202c0 -137 48 -201 136 -201s136 64 136 202zM57 263c0 163 86 276 236 276s234 -108 234 -275c0 -163 -86 -276 -235 -276c-150 0 -235 108 -235 275z" />
    <glyph glyph-name="pe-cy" unicode="&#x43f;" horiz-adv-x="606" 
d="M508 0h-92v452h-226v-452h-92v527h410v-527z" />
    <glyph glyph-name="er-cy" unicode="&#x440;" horiz-adv-x="592" 
d="M190 -202l-92 -11v740h79l7 -72c39 54 95 84 156 84c140 0 195 -109 195 -275c0 -160 -71 -276 -207 -276c-57 0 -104 19 -138 60v-250zM306 63c84 0 130 63 130 201c0 137 -40 202 -119 202c-56 0 -99 -40 -127 -82v-257c27 -41 68 -64 116 -64z" />
    <glyph glyph-name="es-cy" unicode="&#x441;" horiz-adv-x="476" 
d="M293 66c38 0 72 11 115 43l44 -63c-49 -40 -104 -58 -160 -58c-157 0 -235 108 -235 273c0 159 80 278 236 278c56 0 110 -16 159 -57l-45 -60c-43 32 -76 41 -114 41c-85 0 -137 -65 -137 -202c0 -138 52 -195 137 -195z" />
    <glyph glyph-name="te-cy" unicode="&#x442;" horiz-adv-x="451" 
d="M271 452v-452h-92v452h-174v75h446l-11 -75h-169z" />
    <glyph glyph-name="u-cy" unicode="&#x443;" horiz-adv-x="491" 
d="M480 527l-176 -530c-37 -111 -100 -196 -242 -210l-13 72c108 18 142 61 167 141h-31l-174 527h98l136 -453h4l136 453h95z" />
    <glyph glyph-name="ushort-cy" unicode="&#x45e;" horiz-adv-x="491" 
d="M480 527l-176 -530c-37 -111 -100 -196 -242 -210l-13 72c108 18 142 61 167 141h-31l-174 527h98l136 -453h4l136 453h95zM244 628c-93 0 -142 63 -150 117l61 13c14 -40 42 -61 89 -61c48 0 78 21 92 61l61 -13c-8 -54 -59 -117 -153 -117z" />
    <glyph glyph-name="ef-cy" unicode="&#x444;" horiz-adv-x="852" 
d="M792 264c0 -166 -64 -276 -193 -276c-49 0 -98 22 -129 66v-256l-88 -11v267c-31 -44 -83 -66 -131 -66c-129 0 -191 110 -191 276s49 275 189 275c52 0 99 -16 133 -58v269l88 -11v-260c34 43 85 60 138 60c140 0 184 -109 184 -275zM589 466c-49 0 -91 -23 -119 -62
v-277c28 -41 65 -66 113 -66c70 0 110 66 110 203s-34 202 -104 202zM267 61c47 0 87 25 115 66v279c-28 37 -66 60 -114 60c-70 0 -109 -65 -109 -202s38 -203 108 -203z" />
    <glyph glyph-name="ha-cy" unicode="&#x445;" horiz-adv-x="479" 
d="M239 219h-4l-129 -219h-104l183 278l-162 249h108l108 -189h4l109 189h104l-161 -245l182 -282h-111z" />
    <glyph glyph-name="che-cy" unicode="&#x447;" horiz-adv-x="563" 
d="M62 527h92v-198c0 -68 27 -95 84 -95c45 0 104 22 134 57v236h92v-527h-92v219c-38 -37 -98 -57 -159 -57c-101 0 -151 58 -151 156v209z" />
    <glyph glyph-name="tse-cy" unicode="&#x446;" horiz-adv-x="610" 
d="M473 0h-375v527h92v-453h220v453h92v-453h57v-214h-71z" />
    <glyph glyph-name="sha-cy" unicode="&#x448;" horiz-adv-x="838" 
d="M375 527h88v-453h187v453h90v-527h-642v527h90v-453h187v453z" />
    <glyph glyph-name="shcha-cy" unicode="&#x449;" horiz-adv-x="848" 
d="M709 0h-611v527h90v-453h187v453h88v-453h187v453h90v-453h55v-214h-71z" />
    <glyph glyph-name="dzhe-cy" unicode="&#x45f;" horiz-adv-x="602" 
d="M262 0h-164v527h92v-453h222v453h92v-527h-156v-140h-71z" />
    <glyph glyph-name="softsign-cy" unicode="&#x44c;" horiz-adv-x="517" 
d="M384 182c0 78 -50 105 -135 105h-59v-215h59c77 0 135 20 135 110zM242 0h-144v527h92v-170h50c150 0 242 -49 242 -175c0 -135 -100 -182 -240 -182z" />
    <glyph glyph-name="hardsign-cy" unicode="&#x44a;" horiz-adv-x="554" 
d="M0 457v70h227v-170h50c150 0 242 -49 242 -175c0 -135 -100 -182 -240 -182h-144v457h-135zM421 182c0 78 -50 105 -135 105h-59v-215h59c77 0 135 20 135 110z" />
    <glyph glyph-name="yeru-cy" unicode="&#x44b;" horiz-adv-x="740" 
d="M642 0h-92v527h92v-527zM374 182c0 78 -48 106 -125 106h-59v-216h59c70 0 125 20 125 110zM242 0h-144v527h92v-170h50c140 0 232 -49 232 -175c0 -135 -100 -182 -230 -182z" />
    <glyph glyph-name="lje-cy" unicode="&#x459;" horiz-adv-x="802" 
d="M57 -12l-42 64c65 45 94 85 111 305l13 170h346v-170h50c140 0 232 -49 232 -175c0 -135 -100 -182 -230 -182h-144v452h-171l-7 -89c-20 -250 -40 -314 -158 -375zM669 182c0 78 -48 106 -125 106h-59v-216h59c70 0 125 20 125 110z" />
    <glyph glyph-name="nje-cy" unicode="&#x45a;" horiz-adv-x="815" 
d="M550 0h-144v257h-216v-257h-92v527h92v-201h216v201h92v-201h50c140 0 232 -41 232 -160c0 -130 -100 -166 -230 -166zM683 166c0 73 -48 91 -125 91h-60v-186h59c70 0 126 10 126 95z" />
    <glyph glyph-name="e-cy" unicode="&#x454;" horiz-adv-x="484" 
d="M294 63c38 0 72 11 115 43l43 -60c-49 -40 -104 -58 -160 -58c-157 0 -235 108 -235 273c0 159 80 278 236 278c56 0 110 -16 159 -57l-44 -57c-43 32 -76 41 -114 41c-79 0 -129 -54 -139 -161h217v-70h-218c6 -120 57 -172 140 -172z" />
    <glyph glyph-name="ereversed-cy" unicode="&#x44d;" horiz-adv-x="486" 
d="M204 466c-38 0 -81 -10 -124 -42l-43 58c49 40 113 57 169 57c157 0 223 -108 223 -273s-73 -278 -229 -278c-56 0 -119 17 -168 58l44 59c43 -32 85 -42 123 -42c82 0 127 51 133 172h-215v70h215c-8 110 -48 161 -128 161z" />
    <glyph glyph-name="iu-cy" unicode="&#x44e;" horiz-adv-x="768" 
d="M484 -12c-131 0 -210 103 -220 244h-74v-232h-92v527h92v-221h75c14 132 93 233 220 233c140 0 226 -108 226 -275c0 -153 -80 -276 -227 -276zM612 264c0 127 -45 200 -127 200c-83 0 -127 -63 -127 -201c0 -127 43 -201 126 -201c93 0 128 74 128 202z" />
    <glyph glyph-name="ia-cy" unicode="&#x44f;" horiz-adv-x="561" 
d="M371 202h-122l-111 -202h-103l126 223c-60 30 -92 85 -92 146c0 105 69 170 223 170c57 0 119 -8 171 -19v-520h-92v202zM166 369c0 -66 32 -97 111 -97h94v190c-31 4 -53 6 -86 6c-90 0 -119 -36 -119 -99z" />
    <glyph glyph-name="dje-cy" unicode="&#x452;" horiz-adv-x="599" 
d="M200 382v-382h-92v597h-79v70h79v71l92 10v-81h166v-70h-166v-137c42 50 100 79 162 79c102 0 143 -58 143 -156v-351c0 -152 -55 -197 -160 -244l-34 67c69 32 102 58 102 171v351c0 63 -22 90 -82 90c-57 0 -103 -44 -131 -85z" />
    <glyph glyph-name="dze-cy" unicode="&#x455;" horiz-adv-x="474" 
d="M223 62c67 0 111 31 111 80c0 52 -25 72 -129 98c-95 24 -156 65 -156 151c0 89 86 148 197 148c72 0 127 -22 170 -53l-41 -62c-38 26 -77 42 -133 42c-57 0 -98 -27 -98 -69c0 -45 33 -62 122 -86c93 -26 167 -60 167 -162c0 -113 -103 -161 -208 -161
c-89 0 -153 29 -199 69l51 58c41 -34 90 -53 146 -53z" />
    <glyph glyph-name="yi-cy" unicode="&#x457;" horiz-adv-x="279" 
d="M185 0h-92v527h92v-527zM35 647c-33 0 -58 24 -58 56c0 33 25 57 58 57c32 0 57 -24 57 -57c0 -32 -25 -56 -57 -56zM244 647c-32 0 -57 24 -57 56c0 33 25 57 57 57c33 0 58 -24 58 -57c0 -32 -25 -56 -58 -56z" />
    <glyph glyph-name="je-cy" unicode="&#x458;" horiz-adv-x="279" 
d="M25 -212l-34 67c69 32 102 58 102 171v501h92v-495c0 -152 -55 -197 -160 -244zM204 710c0 -36 -27 -63 -65 -63s-64 27 -64 63c0 35 26 62 64 62s65 -27 65 -62z" />
    <glyph glyph-name="tshe-cy" unicode="&#x45b;" horiz-adv-x="599" 
d="M200 382v-382h-92v597h-79v70h79v71l92 10v-81h166v-70h-166v-137c42 50 100 79 162 79c102 0 143 -58 143 -156v-383h-92v377c0 63 -22 90 -82 90c-57 0 -103 -44 -131 -85z" />
    <glyph glyph-name="yat-cy" unicode="&#x463;" horiz-adv-x="527" 
d="M252 0h-144v457h-84v70h84v119l92 11v-130h133l-11 -70h-122v-100h50c150 0 242 -49 242 -175c0 -135 -100 -182 -240 -182zM394 182c0 78 -50 105 -135 105h-59v-215h59c77 0 135 20 135 110z" />
    <glyph glyph-name="fita-cy" unicode="&#x473;" horiz-adv-x="584" 
d="M57 263c0 163 86 276 236 276s234 -108 234 -275c0 -163 -86 -276 -235 -276c-150 0 -235 108 -235 275zM293 464c-81 0 -129 -53 -136 -169h270c-7 115 -54 169 -134 169zM292 62c79 0 126 52 134 163h-269c9 -111 55 -163 135 -163z" />
    <glyph glyph-name="izhitsa-cy" unicode="&#x475;" horiz-adv-x="494" 
d="M404 539l90 -12c-28 -42 -44 -77 -64 -137l-130 -390h-107l-182 527h98l138 -442h4l99 334c17 57 31 94 54 120z" />
    <glyph glyph-name="ghestroke-cy" unicode="&#x493;" horiz-adv-x="440" 
d="M200 451v-135h124v-70h-124v-246h-92v246h-72v70h72v211h332l-11 -76h-229z" />
    <glyph glyph-name="zhedescender-cy" unicode="&#x497;" horiz-adv-x="709" 
d="M393 0h-88v243h-69l-131 -243h-100l156 284l-137 243h96l115 -212h70v212h88v-212h71l116 212h95l-137 -243l115 -210h66v-214h-71l-15 140h-40l-130 243h-70v-243z" />
    <glyph glyph-name="zedescender-cy" unicode="&#x499;" horiz-adv-x="494" 
d="M277 -141c0 35 -33 42 -87 42l7 88c-83 4 -137 31 -182 68l49 61c43 -37 89 -56 158 -56c82 0 122 37 122 94c0 56 -38 83 -118 83h-64l6 72h52c64 0 99 31 99 77c0 54 -36 79 -105 79c-41 0 -92 -11 -135 -43l-45 56c49 41 124 59 180 59c111 0 200 -36 200 -142
c0 -57 -38 -98 -90 -113v-4c61 -11 119 -46 119 -128c0 -95 -78 -151 -183 -162v-46c66 -6 94 -44 94 -85c0 -66 -58 -100 -125 -100c-41 0 -80 10 -106 25l28 51c19 -10 45 -16 67 -16c35 0 59 11 59 40z" />
    <glyph glyph-name="kadescender-cy" unicode="&#x49b;" horiz-adv-x="525" 
d="M190 0h-92v527h92v-212h59l146 212h101l-173 -244l142 -209h75v-214h-71l-15 140h-48l-159 243h-57v-243z" />
    <glyph glyph-name="kaverticalstroke-cy" unicode="&#x49d;" horiz-adv-x="525" 
d="M190 0h-92v527h92v-212h35v115h48v-115h22l104 212h97l-124 -243l143 -284h-102l-119 243h-21v-123h-48v123h-35v-243z" />
    <glyph glyph-name="kabashkir-cy" unicode="&#x4a1;" horiz-adv-x="553" 
d="M0 457v70h228v-212h59l146 212h101l-173 -244l192 -283h-109l-159 243h-57v-243h-92v457h-136z" />
    <glyph glyph-name="endescender-cy" unicode="&#x4a3;" horiz-adv-x="621" 
d="M477 0h-61v232h-226v-232h-92v527h92v-221h226v221h92v-453h55v-214h-71z" />
    <glyph glyph-name="esdescender-cy" unicode="&#x4ab;" horiz-adv-x="476" 
d="M293 66c38 0 72 11 115 43l44 -63c-27 -22 -56 -37 -85 -46c-73 -43 -88 -92 -88 -127c0 -31 19 -53 64 -53c27 0 50 8 62 15l25 -54c-32 -16 -63 -22 -97 -22c-84 0 -131 44 -131 111c0 43 30 86 77 118c-148 6 -222 112 -222 273c0 159 80 278 236 278
c56 0 110 -16 159 -57l-45 -60c-43 32 -76 41 -114 41c-85 0 -137 -65 -137 -202c0 -138 52 -195 137 -195z" />
    <glyph glyph-name="ustrait-cy" unicode="&#x4af;" horiz-adv-x="494" 
d="M292 -202l-90 -11v225l-191 515h98l138 -419h4l137 419h95l-191 -512v-217z" />
    <glyph glyph-name="ustraitstroke-cy" unicode="&#x4b1;" horiz-adv-x="494" 
d="M483 527l-167 -445h80v-70h-104v-214l-90 -11v225h-104v70h78l-165 445h98l138 -419h4l137 419h95z" />
    <glyph glyph-name="hadesender-cy" unicode="&#x4b3;" horiz-adv-x="489" 
d="M411 0h-45l-127 219h-4l-129 -219h-104l183 278l-162 249h108l108 -189h4l109 189h104l-161 -245l134 -208h68v-214h-71z" />
    <glyph glyph-name="cheverticalstroke-cy" unicode="&#x4b9;" horiz-adv-x="563" 
d="M280 80h-55v82c-117 0 -163 58 -163 156v209h92v-198c0 -63 23 -91 71 -95v156h55v-151c35 9 71 27 92 52v236h92v-527h-92v219c-24 -23 -56 -40 -92 -49v-90z" />
    <glyph glyph-name="shha-cy" unicode="&#x4bb;" horiz-adv-x="584" 
d="M403 0v297c0 63 -22 90 -82 90c-57 0 -103 -44 -131 -85v-302h-92v738l92 10v-368c42 50 100 79 162 79c102 0 143 -58 143 -156v-303h-92z" />
    <glyph glyph-name="palochka-cy" unicode="&#x4cf;" horiz-adv-x="290" 
d="M247 70l24 -64c-23 -11 -48 -18 -75 -18c-63 0 -108 36 -108 126v625l92 11v-644c0 -30 10 -42 33 -42c13 0 24 2 34 6z" />
    <glyph glyph-name="chekhakassian-cy" unicode="&#x4cc;" horiz-adv-x="573" 
d="M433 0h-61v219c-38 -37 -98 -57 -159 -57c-101 0 -151 58 -151 156v209h92v-198c0 -68 27 -95 84 -95c45 0 104 22 134 57v236h92v-453h55v-214h-71z" />
    <glyph glyph-name="schwa-cy" unicode="&#x4d9;" horiz-adv-x="546" 
d="M55 295h336c-7 119 -52 169 -132 169c-48 0 -90 -12 -135 -49l-42 61c49 39 111 63 179 63c157 0 228 -111 228 -275c0 -159 -81 -276 -221 -276c-138 0 -215 99 -215 260c0 18 1 35 2 47zM268 61c83 0 119 53 123 166h-247c2 -109 37 -166 124 -166z" />
    <glyph glyph-name="imacron-cy" unicode="&#x4e3;" horiz-adv-x="613" 
d="M399 527h116v-527h-91v238c0 93 9 173 11 185h-4l-218 -423h-115v527h91v-238c0 -82 -8 -169 -10 -182h4zM450 743v-69h-273v69h273z" />
    <glyph glyph-name="obarred-cy" unicode="&#x4e9;" horiz-adv-x="584" 
d="M57 263c0 163 86 276 236 276s234 -108 234 -275c0 -163 -86 -276 -235 -276c-150 0 -235 108 -235 275zM293 464c-81 0 -129 -53 -136 -169h270c-7 115 -54 169 -134 169zM292 62c79 0 126 52 134 163h-269c9 -111 55 -163 135 -163z" />
    <glyph glyph-name="umacron-cy" unicode="&#x4ef;" horiz-adv-x="491" 
d="M480 527l-176 -530c-37 -111 -100 -196 -242 -210l-13 72c108 18 142 61 167 141h-31l-174 527h98l136 -453h4l136 453h95zM382 743v-69h-273v69h273z" />
    <glyph glyph-name="a-cy.sc" horiz-adv-x="525" 
d="M421 0l-46 138h-229l-45 -138h-95l201 564h111l201 -564h-98zM258 483l-88 -271h181l-89 271h-4z" />
    <glyph glyph-name="be-cy.sc" horiz-adv-x="542" 
d="M458 564l-7 -74h-254v-135h72c151 0 243 -57 243 -176c0 -130 -100 -179 -241 -179h-166v564h353zM416 178c0 80 -57 105 -138 105h-81v-211h81c79 0 138 17 138 106z" />
    <glyph glyph-name="ve-cy.sc" horiz-adv-x="579" 
d="M424 163c0 75 -56 98 -122 98h-105v-189h101c58 0 126 16 126 91zM400 414c0 56 -42 78 -111 78h-92v-163h99c67 0 104 27 104 85zM521 164c0 -126 -120 -164 -235 -164h-181v564h168c111 0 222 -33 222 -146c0 -63 -48 -101 -95 -116v-4c57 -13 121 -48 121 -134z" />
    <glyph glyph-name="ge-cy.sc" horiz-adv-x="466" 
d="M105 564h353l-9 -77h-252v-487h-92v564z" />
    <glyph glyph-name="gje-cy.sc" horiz-adv-x="466" 
d="M105 564h353l-9 -77h-252v-487h-92v564zM197 642l-28 50l188 109l48 -77z" />
    <glyph glyph-name="gheupturn-cy.sc" horiz-adv-x="466" 
d="M105 564h266v125h87v-125l-9 -77h-252v-487h-92v564z" />
    <glyph glyph-name="de-cy.sc" horiz-adv-x="580" 
d="M-5 74h42c43 47 55 118 83 323l22 167h335v-490h53v-196h-72l-14 122h-363l-14 -122h-72v196zM387 490h-166l-12 -96c-26 -207 -40 -274 -94 -320h272v416z" />
    <glyph glyph-name="ie-cy.sc" horiz-adv-x="504" 
d="M432 490h-235v-168h204v-72h-204v-176h253v-74h-345v564h338z" />
    <glyph glyph-name="io-cy.sc" horiz-adv-x="504" 
d="M432 490h-235v-168h204v-72h-204v-176h253v-74h-345v564h338zM164 657c-32 0 -58 24 -58 56c0 33 26 57 58 57c33 0 58 -24 58 -57c0 -32 -25 -56 -58 -56zM374 657c-33 0 -58 24 -58 56c0 33 25 57 58 57c32 0 57 -24 57 -57c0 -32 -25 -56 -57 -56z" />
    <glyph glyph-name="zhe-cy.sc" horiz-adv-x="743" 
d="M329 0v262h-69l-152 -262h-103l181 299l-163 265h99l138 -232h69v232h86v-232h70l140 232h97l-163 -265l179 -299h-103l-151 262h-69v-262h-86z" />
    <glyph glyph-name="ze-cy.sc" horiz-adv-x="492" 
d="M437 165c0 -101 -85 -175 -222 -175c-81 0 -149 26 -200 78l58 52c39 -39 90 -56 140 -56c80 0 127 36 127 102c0 72 -53 100 -123 100h-75l10 72h60c56 0 111 25 111 85c0 55 -46 78 -109 78c-52 0 -94 -17 -135 -51l-51 55c55 47 125 69 189 69c124 0 199 -62 199 -142
c0 -64 -43 -106 -99 -124v-4c63 -13 120 -62 120 -139z" />
    <glyph glyph-name="ii-cy.sc" horiz-adv-x="637" 
d="M220 0h-115v564h90v-275c0 -86 -8 -170 -15 -202h4l235 477h113v-564h-90v276c0 90 8 154 13 189h-4z" />
    <glyph glyph-name="iishort-cy.sc" horiz-adv-x="637" 
d="M220 0h-115v564h90v-275c0 -86 -8 -170 -15 -202h4l235 477h113v-564h-90v276c0 90 8 154 13 189h-4zM316 648c-95 0 -142 62 -150 112l61 13c13 -38 41 -56 89 -56c47 0 78 18 91 56l61 -13c-8 -50 -58 -112 -152 -112z" />
    <glyph glyph-name="ka-cy.sc" horiz-adv-x="549" 
d="M442 0l-190 262h-55v-262h-92v564h92v-232h57l180 232h98l-204 -265l221 -299h-107z" />
    <glyph glyph-name="kje-cy.sc" horiz-adv-x="549" 
d="M442 0l-190 262h-55v-262h-92v564h92v-232h57l180 232h98l-204 -265l221 -299h-107zM227 642l-28 50l188 109l48 -77z" />
    <glyph glyph-name="el-cy.sc" horiz-adv-x="603" 
d="M51 -12l-41 62c76 50 93 97 126 346l22 168h340v-564h-92v488h-169l-11 -95c-33 -287 -59 -346 -175 -405z" />
    <glyph glyph-name="em-cy.sc" horiz-adv-x="725" 
d="M663 0h-90l-26 288c-5 60 -7 108 -7 179h-4l-129 -409h-85l-139 409h-4c0 -59 -1 -123 -5 -178l-23 -289h-89l52 564h119l130 -403h4l123 403h122z" />
    <glyph glyph-name="en-cy.sc" horiz-adv-x="632" 
d="M527 0h-92v259h-238v-259h-92v564h92v-231h238v231h92v-564z" />
    <glyph glyph-name="o-cy.sc" horiz-adv-x="635" 
d="M573 282c0 -188 -105 -292 -256 -292c-149 0 -255 100 -255 292c0 187 106 292 255 292c151 0 256 -101 256 -292zM474 282c0 157 -60 217 -157 217c-96 0 -156 -60 -156 -217c0 -159 63 -217 156 -217c97 0 157 59 157 217z" />
    <glyph glyph-name="pe-cy.sc" horiz-adv-x="632" 
d="M527 0h-92v488h-238v-488h-92v564h422v-564z" />
    <glyph glyph-name="er-cy.sc" horiz-adv-x="544" 
d="M413 387c0 78 -58 105 -137 105h-79v-217h79c77 0 137 22 137 112zM512 387c0 -135 -103 -184 -243 -184h-72v-203h-92v564h162c150 0 245 -51 245 -177z" />
    <glyph glyph-name="es-cy.sc" horiz-adv-x="523" 
d="M322 66c64 0 102 23 132 49l50 -57c-41 -37 -99 -68 -186 -68c-147 0 -256 103 -256 293c0 189 119 291 256 291c78 0 127 -22 178 -60l-50 -59c-38 29 -72 44 -124 44c-86 0 -161 -55 -161 -216c0 -155 70 -217 161 -217z" />
    <glyph glyph-name="te-cy.sc" horiz-adv-x="468" 
d="M448 488h-165v-488h-92v488h-175v76h444z" />
    <glyph glyph-name="u-cy.sc" horiz-adv-x="510" 
d="M505 564l-177 -411c-43 -99 -94 -150 -230 -165l-14 67c103 15 131 46 155 98h-26l-203 411h95l163 -350h4l141 350h92z" />
    <glyph glyph-name="ushort-cy.sc" horiz-adv-x="515" 
d="M510 564l-177 -411c-43 -99 -94 -150 -230 -165l-14 67c103 15 131 46 155 98h-26l-203 411h95l163 -350h4l141 350h92zM256 648c-95 0 -142 62 -150 112l61 13c13 -38 41 -56 89 -56c47 0 78 18 91 56l61 -13c-8 -50 -58 -112 -152 -112z" />
    <glyph glyph-name="ef-cy.sc" horiz-adv-x="745" 
d="M416 -25h-88v51c-146 7 -288 69 -288 259c0 182 132 245 288 254v50h88v-50c156 -9 289 -72 289 -254c0 -190 -143 -252 -289 -259v-51zM611 285c0 160 -105 188 -197 192v-388c96 8 197 42 197 196zM134 285c0 -154 100 -188 196 -196v388c-94 -4 -196 -32 -196 -192z
" />
    <glyph glyph-name="ha-cy.sc" horiz-adv-x="510" 
d="M197 301l-175 263h106l126 -204h4l125 204h100l-177 -261l199 -303h-107l-148 241h-4l-139 -241h-102z" />
    <glyph glyph-name="che-cy.sc" horiz-adv-x="571" 
d="M466 0h-92v230c-34 -23 -80 -41 -136 -41c-134 0 -198 67 -198 192v183h92v-180c0 -86 31 -120 116 -120c61 0 101 20 126 38v262h92v-564z" />
    <glyph glyph-name="tse-cy.sc" horiz-adv-x="626" 
d="M433 564h92v-490h71v-214h-72l-14 140h-405v564h92v-490h236v490z" />
    <glyph glyph-name="sha-cy.sc" horiz-adv-x="879" 
d="M398 564h85v-490h202v490h89v-564h-669v564h89v-490h204v490z" />
    <glyph glyph-name="shcha-cy.sc" horiz-adv-x="874" 
d="M398 564h85v-490h202v490h89v-490h70v-214h-72l-14 140h-653v564h89v-490h204v490z" />
    <glyph glyph-name="dzhe-cy.sc" horiz-adv-x="630" 
d="M433 564h92v-564h-169v-140h-72l-14 140h-165v564h92v-490h236v490z" />
    <glyph glyph-name="softsign-cy.sc" horiz-adv-x="537" 
d="M197 564v-193h72c151 0 243 -59 243 -181c0 -133 -100 -190 -241 -190h-166v564h92zM416 189c0 81 -58 110 -138 110h-81v-227h81c79 0 138 23 138 117z" />
    <glyph glyph-name="hardsign-cy.sc" horiz-adv-x="583" 
d="M0 492v72h243v-193h72c151 0 243 -59 243 -181c0 -133 -100 -190 -241 -190h-166v492h-151zM462 189c0 81 -58 110 -138 110h-81v-227h81c79 0 138 23 138 117z" />
    <glyph glyph-name="yeru-cy.sc" horiz-adv-x="769" 
d="M664 0h-92v564h92v-564zM197 564v-193h62c151 0 243 -59 243 -181c0 -133 -100 -190 -241 -190h-156v564h92zM406 189c0 81 -58 110 -138 110h-71v-227h71c79 0 138 23 138 117z" />
    <glyph glyph-name="lje-cy.sc" horiz-adv-x="823" 
d="M51 -12l-41 62c76 50 93 97 126 346l22 168h335v-193h62c151 0 243 -59 243 -181c0 -133 -100 -190 -241 -190h-156v488h-164l-11 -95c-33 -287 -59 -346 -175 -405zM702 189c0 81 -58 110 -138 110h-71v-227h71c79 0 138 23 138 117z" />
    <glyph glyph-name="nje-cy.sc" horiz-adv-x="847" 
d="M517 564v-211h62c151 0 243 -53 243 -172c0 -129 -100 -181 -241 -181h-156v283h-228v-283h-92v564h92v-211h228v211h92zM726 180c0 78 -58 103 -138 103h-71v-211h71c79 0 138 18 138 108z" />
    <glyph glyph-name="e-cy.sc" horiz-adv-x="530" 
d="M324 64c62 0 102 24 133 49l48 -58c-41 -34 -100 -65 -185 -65c-149 0 -258 104 -258 294c0 189 119 290 257 290c78 0 125 -21 177 -58l-51 -58c-38 29 -78 42 -120 42c-84 0 -155 -42 -167 -175h256v-70h-256c8 -138 76 -191 166 -191z" />
    <glyph glyph-name="ereversed-cy.sc" horiz-adv-x="522" 
d="M218 502c-62 0 -100 -27 -136 -53l-50 55c48 38 106 70 190 70c152 0 238 -95 238 -285c0 -197 -86 -299 -244 -299c-80 0 -147 28 -191 73l53 55c42 -35 83 -53 132 -53c103 0 148 55 154 190h-249v70h249c-7 132 -52 177 -146 177z" />
    <glyph glyph-name="iu-cy.sc" horiz-adv-x="824" 
d="M520 -10c-134 0 -229 103 -237 272h-86v-262h-92v564h92v-233h88c14 150 97 243 235 243c151 0 242 -101 242 -292c0 -189 -89 -292 -242 -292zM520 505c-80 0 -143 -52 -143 -222s63 -224 143 -224s148 53 148 223s-68 223 -148 223z" />
    <glyph glyph-name="ia-cy.sc" horiz-adv-x="594" 
d="M397 222h-130l-127 -222h-105l145 240c-70 31 -105 86 -105 154c0 108 82 170 237 170h177v-564h-92v222zM171 394c0 -72 41 -100 119 -100h107v198h-93c-90 0 -133 -26 -133 -98z" />
    <glyph glyph-name="dje-cy.sc" horiz-adv-x="652" 
d="M283 488v-163c37 26 87 49 146 49c133 0 188 -66 188 -191v-110c0 -112 -62 -161 -163 -195l-26 69c80 29 97 60 97 130v103c0 86 -27 120 -116 120c-62 0 -101 -21 -126 -39v-261h-92v488h-175v76h444l-12 -76h-165z" />
    <glyph glyph-name="dze-cy.sc" horiz-adv-x="498" 
d="M460 156c0 -91 -83 -166 -219 -166c-89 0 -161 29 -214 78l53 58c43 -38 91 -61 159 -61c79 0 123 31 123 88c0 48 -25 76 -123 103c-121 34 -185 85 -185 169c0 83 75 149 195 149c86 0 142 -26 195 -71l-54 -55c-43 37 -89 51 -139 51c-67 0 -102 -25 -102 -70
c0 -43 27 -66 131 -96c95 -27 180 -71 180 -177z" />
    <glyph glyph-name="i-cy.sc" horiz-adv-x="302" 
d="M197 0h-92v564h92v-564z" />
    <glyph glyph-name="yi-cy.sc" horiz-adv-x="302" 
d="M197 0h-92v564h92v-564zM46 657c-32 0 -58 24 -58 56c0 33 26 57 58 57c33 0 58 -24 58 -57c0 -32 -25 -56 -58 -56zM256 657c-33 0 -58 24 -58 56c0 33 25 57 58 57c32 0 57 -24 57 -57c0 -32 -25 -56 -57 -56z" />
    <glyph glyph-name="je-cy.sc" horiz-adv-x="294" 
d="M31 -122l-26 69c80 29 97 60 97 130v487h92v-491c0 -112 -62 -161 -163 -195z" />
    <glyph glyph-name="tshe-cy.sc" horiz-adv-x="652" 
d="M283 488v-163c37 26 87 49 146 49c133 0 188 -66 188 -191v-183h-92v180c0 86 -27 120 -116 120c-62 0 -101 -21 -126 -39v-261h-92v488h-175v76h444l-12 -76h-165z" />
    <glyph glyph-name="yat-cy.sc" horiz-adv-x="628" 
d="M448 488h-165v-133h72c151 0 243 -57 243 -176c0 -130 -100 -179 -241 -179h-166v488h-175v76h444zM364 283h-81v-211h81c79 0 138 17 138 106c0 80 -57 105 -138 105z" />
    <glyph glyph-name="fita-cy.sc" horiz-adv-x="635" 
d="M573 282c0 -188 -105 -292 -256 -292c-149 0 -255 100 -255 292c0 187 106 292 255 292c151 0 256 -101 256 -292zM317 62c91 0 151 54 158 192h-316c8 -138 70 -192 158 -192zM317 502c-87 0 -145 -51 -156 -176h313c-11 125 -70 176 -157 176z" />
    <glyph glyph-name="izhitsa-cy.sc" horiz-adv-x="532" 
d="M15 564h101l151 -472h4l112 366c19 63 31 84 51 116l93 -15c-23 -32 -39 -60 -60 -121l-151 -438h-96z" />
    <glyph glyph-name="ghestroke-cy.sc" horiz-adv-x="466" 
d="M105 564h353l-9 -77h-252v-136h149v-72h-149v-279h-92v279h-87v72h87v213z" />
    <glyph glyph-name="zhedescender-cy.sc" horiz-adv-x="758" 
d="M329 0v262h-69l-152 -262h-103l181 299l-163 265h99l138 -232h69v232h86v-232h70l140 232h97l-163 -265l134 -225h65v-214h-72l-14 140h-37l-151 262h-69v-262h-86z" />
    <glyph glyph-name="zedescender-cy.sc" horiz-adv-x="492" 
d="M266 -141c0 35 -33 42 -87 42l6 90c-68 6 -126 31 -170 77l58 52c39 -39 90 -56 140 -56c80 0 127 36 127 102c0 72 -53 100 -123 100h-75l10 72h60c56 0 111 25 111 85c0 55 -46 78 -109 78c-52 0 -94 -17 -135 -51l-51 55c55 47 125 69 189 69c124 0 199 -62 199 -142
c0 -64 -43 -106 -99 -124v-4c63 -13 120 -62 120 -139c0 -93 -72 -163 -189 -173v-48c67 -6 94 -44 94 -85c0 -66 -58 -100 -125 -100c-40 0 -80 10 -105 25l28 51c19 -10 45 -16 66 -16c36 0 60 11 60 40z" />
    <glyph glyph-name="kadescender-cy.sc" horiz-adv-x="564" 
d="M442 0l-190 262h-55v-262h-92v564h92v-232h57l180 232h98l-204 -265l166 -225h75v-214h-72l-14 140h-41z" />
    <glyph glyph-name="kaverticalstroke-cy.sc" horiz-adv-x="549" 
d="M279 122h-55v140h-30v-262h-89v564h89v-232h30v135h55v-135h13l147 232h93l-169 -265l186 -299h-102l-156 262h-12v-140z" />
    <glyph glyph-name="kabashkir-cy.sc" horiz-adv-x="596" 
d="M0 492v72h244v-232h57l180 232h98l-204 -265l221 -299h-107l-190 262h-55v-262h-92v492h-152z" />
    <glyph glyph-name="endescender-cy.sc" horiz-adv-x="628" 
d="M527 564v-490h71v-214h-72l-14 140h-77v259h-238v-259h-92v564h92v-231h238v231h92z" />
    <glyph glyph-name="esdescender-cy.sc" horiz-adv-x="523" 
d="M322 66c64 0 102 23 132 49l50 -57c-20 -18 -44 -35 -73 -47l1 -1c-74 -43 -89 -92 -89 -127c0 -31 19 -53 64 -53c27 0 50 8 62 15l25 -54c-32 -16 -63 -22 -97 -22c-84 0 -131 44 -131 111c0 42 27 81 71 111c-6 -1 -13 -1 -19 -1c-147 0 -256 103 -256 293
c0 189 119 291 256 291c78 0 127 -22 178 -60l-50 -59c-38 29 -72 44 -124 44c-86 0 -161 -55 -161 -216c0 -155 70 -217 161 -217z" />
    <glyph glyph-name="ustrait-cy.sc" horiz-adv-x="499" 
d="M494 564l-198 -347v-217h-91v216l-200 348h103l145 -271h4l139 271h98z" />
    <glyph glyph-name="ustraitstroke-cy.sc" horiz-adv-x="499" 
d="M87 189v70h93l-175 305h103l145 -271h4l139 271h98l-174 -305h95v-70h-119v-189h-91v189h-118z" />
    <glyph glyph-name="cheverticalstroke-cy.sc" horiz-adv-x="571" 
d="M273 97h-55v92c-121 7 -178 73 -178 192v183h92v-180c0 -75 23 -111 86 -119v162h55v-162c47 4 79 22 101 37v262h92v-564h-92v230c-27 -18 -61 -33 -101 -39v-94z" />
    <glyph glyph-name="shha-cy.sc" horiz-adv-x="566" 
d="M105 564h92v-233c37 24 87 43 146 43c132 0 188 -66 188 -191v-183h-92v180c0 86 -27 120 -116 120c-62 0 -101 -21 -126 -39v-261h-92v564z" />
    <glyph glyph-name="palochka-cy.sc" horiz-adv-x="302" 
d="M197 0h-92v564h92v-564z" />
    <glyph glyph-name="chekhakassian-cy.sc" horiz-adv-x="567" 
d="M466 564v-490h71v-214h-72l-14 140h-77v230c-34 -23 -80 -41 -136 -41c-134 0 -198 67 -198 192v183h92v-180c0 -86 31 -120 116 -120c61 0 101 20 126 38v262h92z" />
    <glyph glyph-name="schwa-cy.sc" horiz-adv-x="616" 
d="M57 272c0 11 1 30 2 45h400c-6 139 -64 185 -162 185c-63 0 -120 -27 -158 -56l-49 56c49 40 125 72 211 72c164 0 253 -95 253 -285c0 -187 -98 -299 -250 -299s-247 97 -247 282zM305 62c91 0 145 56 154 187h-313c8 -136 58 -187 159 -187z" />
    <glyph glyph-name="imacron-cy.sc" horiz-adv-x="637" 
d="M220 0h-115v564h90v-275c0 -86 -8 -170 -15 -202h4l235 477h113v-564h-90v276c0 90 8 154 13 189h-4zM459 753v-69h-273v69h273z" />
    <glyph glyph-name="obarred-cy.sc" horiz-adv-x="635" 
d="M573 282c0 -188 -105 -292 -256 -292c-149 0 -255 100 -255 292c0 187 106 292 255 292c151 0 256 -101 256 -292zM317 62c91 0 151 54 158 192h-316c8 -138 70 -192 158 -192zM317 502c-87 0 -145 -51 -156 -176h313c-11 125 -70 176 -157 176z" />
    <glyph glyph-name="umacron-cy.sc" horiz-adv-x="515" 
d="M510 564l-177 -411c-43 -99 -94 -150 -230 -165l-14 67c103 15 131 46 155 98h-26l-203 411h95l163 -350h4l141 350h92zM398 753v-69h-273v69h273z" />
    <glyph glyph-name="Alpha" unicode="&#x391;" horiz-adv-x="579" 
d="M473 0l-53 173h-265l-53 -173h-96l224 689h120l223 -689h-100zM286 603l-108 -353h219l-107 353h-4z" />
    <glyph glyph-name="Beta" unicode="&#x392;" horiz-adv-x="626" 
d="M468 195c0 101 -65 129 -144 129h-124v-248h120c67 0 148 20 148 119zM441 509c0 76 -50 105 -132 105h-109v-217h117c80 0 124 34 124 112zM568 197c0 -151 -132 -197 -261 -197h-202v689h187c123 0 246 -39 246 -174c0 -88 -62 -134 -120 -147v-4
c69 -13 150 -53 150 -167z" />
    <glyph glyph-name="Gamma" unicode="&#x393;" horiz-adv-x="503" 
d="M105 689h390l-10 -82h-285v-607h-95v689z" />
    <glyph glyph-name="Delta" unicode="&#x394;" horiz-adv-x="579" 
d="M6 0l224 689h120l223 -689h-567zM286 603l-160 -525h323l-159 525h-4z" />
    <glyph glyph-name="Epsilon" unicode="&#x395;" horiz-adv-x="540" 
d="M467 613h-267v-225h232v-76h-232v-236h286v-76h-381v689h373z" />
    <glyph glyph-name="Zeta" unicode="&#x396;" horiz-adv-x="521" 
d="M478 612l-341 -531h341l-11 -81h-436v76l344 533h-308v80h411v-77z" />
    <glyph glyph-name="Eta" unicode="&#x397;" horiz-adv-x="680" 
d="M575 0h-95v323h-280v-323h-95v689h95v-288h280v288h95v-689z" />
    <glyph glyph-name="Theta" unicode="&#x398;" horiz-adv-x="696" 
d="M467 384v-74h-239v74h239zM634 344c0 -230 -117 -356 -286 -356s-286 121 -286 355c0 230 117 358 286 358s286 -123 286 -357zM533 344c0 202 -73 279 -185 279s-185 -78 -185 -280s76 -277 185 -277c112 0 185 76 185 278z" />
    <glyph glyph-name="Iota" unicode="&#x399;" horiz-adv-x="306" 
d="M201 0h-96v689h96v-689z" />
    <glyph glyph-name="Kappa" unicode="&#x39a;" horiz-adv-x="594" 
d="M200 689v-689h-95v689h95zM477 0l-272 368l262 321h108l-261 -315l280 -374h-117z" />
    <glyph glyph-name="Lambda" unicode="&#x39b;" horiz-adv-x="569" 
d="M281 597l-179 -597h-96l219 689h120l218 -689h-100l-178 597h-4z" />
    <glyph glyph-name="Mu" unicode="&#x39c;" horiz-adv-x="796" 
d="M734 0h-92l-30 353c-8 97 -11 207 -11 229h-4l-154 -509h-91l-160 509h-4c0 -23 -2 -140 -9 -229l-27 -353h-90l57 689h128l151 -503h4l146 503h129z" />
    <glyph glyph-name="Nu" unicode="&#x39d;" horiz-adv-x="689" 
d="M584 0h-129l-270 583h-4c2 -16 13 -139 13 -247v-336h-89v689h126l273 -586h4c-2 16 -13 126 -13 250v336h89v-689z" />
    <glyph glyph-name="Xi" unicode="&#x39e;" horiz-adv-x="526" 
d="M115 307v85h291v-85h-291zM54 602v87h413l-13 -87h-400zM54 0v89h421v-89h-421z" />
    <glyph glyph-name="Omicron" unicode="&#x39f;" horiz-adv-x="696" 
d="M634 344c0 -230 -117 -356 -286 -356s-286 121 -286 355c0 230 117 358 286 358s286 -123 286 -357zM533 344c0 202 -73 279 -185 279s-185 -78 -185 -280s76 -277 185 -277c112 0 185 76 185 278z" />
    <glyph glyph-name="Pi" unicode="&#x3a0;" horiz-adv-x="680" 
d="M575 0h-95v608h-280v-608h-95v689h470v-689z" />
    <glyph glyph-name="Rho" unicode="&#x3a1;" horiz-adv-x="586" 
d="M453 475c0 103 -66 140 -158 140h-95v-287h95c91 0 158 29 158 147zM554 476c0 -161 -111 -223 -267 -223h-87v-253h-95v689h180c167 0 269 -68 269 -213z" />
    <glyph glyph-name="Sigma" unicode="&#x3a3;" horiz-adv-x="505" 
d="M351 377v-62l-200 -237h316v-78h-423v78l222 266l-222 267v78h423v-78h-316z" />
    <glyph glyph-name="Tau" unicode="&#x3a4;" horiz-adv-x="517" 
d="M499 608h-190v-608h-95v608h-198v81h493z" />
    <glyph glyph-name="Upsilon" unicode="&#x3a5;" horiz-adv-x="550" 
d="M545 689l-222 -424v-265h-96v264l-222 425h105l166 -337h4l166 337h99z" />
    <glyph glyph-name="Phi" unicode="&#x3a6;" horiz-adv-x="810" 
d="M451 0h-92v71c-163 4 -324 66 -324 276c0 204 150 267 324 273v69h92v-69c174 -6 324 -69 324 -273c0 -210 -161 -272 -324 -276v-71zM677 347c0 181 -123 201 -228 202v-407c109 6 228 34 228 205zM133 347c0 -172 118 -199 228 -205v407c-106 -1 -228 -22 -228 -202z
" />
    <glyph glyph-name="Chi" unicode="&#x3a7;" horiz-adv-x="555" 
d="M217 367l-194 322h108l142 -256h4l148 256h102l-197 -317l220 -372h-108l-167 302h-4l-164 -302h-102z" />
    <glyph glyph-name="Psi" unicode="&#x3a8;" horiz-adv-x="704" 
d="M398 0h-93v202c-192 14 -270 117 -270 247v240h93v-236c0 -98 36 -163 179 -174v410h89v-410c142 11 180 76 180 174v236h93v-240c0 -130 -79 -233 -271 -247v-202z" />
    <glyph glyph-name="Omega" unicode="&#x3a9;" horiz-adv-x="708" 
d="M354 623c-113 0 -185 -77 -185 -271c0 -158 52 -241 132 -281v-71h-222v76h122v4c-83 40 -133 127 -133 272c0 221 119 349 286 349s286 -128 286 -349c0 -145 -50 -231 -134 -272v-4h123v-76h-221v71c80 40 131 123 131 281c0 194 -73 271 -185 271z" />
    <glyph glyph-name="Alphatonos" unicode="&#x386;" horiz-adv-x="579" 
d="M473 0l-53 173h-265l-53 -173h-96l224 689h120l223 -689h-100zM286 603l-108 -353h219l-107 353h-4zM106 500l-70 12l48 189l100 -16z" />
    <glyph glyph-name="Epsilontonos" unicode="&#x388;" horiz-adv-x="588" 
d="M515 613h-267v-225h232v-76h-232v-236h286v-76h-381v689h373zM45 500l-70 12l48 189l100 -16z" />
    <glyph glyph-name="Etatonos" unicode="&#x389;" horiz-adv-x="728" 
d="M623 0h-95v323h-280v-323h-95v689h95v-288h280v288h95v-689zM45 500l-70 12l48 189l100 -16z" />
    <glyph glyph-name="Iotatonos" unicode="&#x38a;" horiz-adv-x="353" 
d="M248 0h-96v689h96v-689zM45 500l-70 12l48 189l100 -16z" />
    <glyph glyph-name="Omicrontonos" unicode="&#x38c;" horiz-adv-x="719" 
d="M657 344c0 -230 -117 -356 -286 -356s-286 121 -286 355c0 230 117 358 286 358s286 -123 286 -357zM556 344c0 202 -73 279 -185 279s-185 -78 -185 -280s76 -277 185 -277c112 0 185 76 185 278zM55 500l-70 12l48 189l100 -16z" />
    <glyph glyph-name="Upsilontonos" unicode="&#x38e;" horiz-adv-x="663" 
d="M658 689l-222 -424v-265h-96v264l-222 425h105l166 -337h4l166 337h99zM30 500l-70 12l48 189l100 -16z" />
    <glyph glyph-name="Omegatonos" unicode="&#x38f;" horiz-adv-x="731" 
d="M377 623c-113 0 -185 -77 -185 -271c0 -158 52 -241 132 -281v-71h-222v76h122v4c-83 40 -133 127 -133 272c0 221 119 349 286 349s286 -128 286 -349c0 -145 -50 -231 -134 -272v-4h123v-76h-221v71c80 40 131 123 131 281c0 194 -73 271 -185 271zM60 500l-70 12
l48 189l100 -16z" />
    <glyph glyph-name="Iotadieresis" unicode="&#x3aa;" horiz-adv-x="306" 
d="M201 0h-96v689h96v-689zM47 764c-32 0 -57 24 -57 57c0 32 25 56 57 56c33 0 58 -24 58 -56c0 -33 -25 -57 -58 -57zM257 764c-33 0 -58 24 -58 57c0 32 25 56 58 56c32 0 58 -24 58 -56c0 -33 -26 -57 -58 -57z" />
    <glyph glyph-name="Upsilondieresis" unicode="&#x3ab;" horiz-adv-x="550" 
d="M545 689l-222 -424v-265h-96v264l-222 425h105l166 -337h4l166 337h99zM169 764c-32 0 -57 24 -57 57c0 32 25 56 57 56c33 0 58 -24 58 -56c0 -33 -25 -57 -58 -57zM379 764c-33 0 -58 24 -58 57c0 32 25 56 58 56c32 0 58 -24 58 -56c0 -33 -26 -57 -58 -57z" />
    <glyph glyph-name="Delta.001" horiz-adv-x="579" 
d="M6 0l224 689h120l223 -689h-567zM286 603l-160 -525h323l-159 525h-4z" />
    <glyph glyph-name="Omega.001" horiz-adv-x="708" 
d="M354 623c-113 0 -185 -77 -185 -271c0 -158 52 -241 132 -281v-71h-222v76h122v4c-83 40 -133 127 -133 272c0 221 119 349 286 349s286 -128 286 -349c0 -145 -50 -231 -134 -272v-4h123v-76h-221v71c80 40 131 123 131 281c0 194 -73 271 -185 271z" />
    <glyph glyph-name="alpha" unicode="&#x3b1;" horiz-adv-x="607" 
d="M565 67l-34 -80c-40 7 -80 34 -90 91l-17 72h-4c-25 -85 -81 -162 -174 -162c-130 0 -189 110 -189 275c0 159 76 276 201 276c108 0 155 -65 172 -145h4l38 134l84 -24l-83 -227l48 -161c8 -27 18 -40 44 -49zM258 61c47 0 102 33 135 209c-21 134 -60 196 -122 196
c-74 0 -116 -72 -116 -203c0 -136 41 -202 103 -202z" />
    <glyph glyph-name="beta" unicode="&#x3b2;" horiz-adv-x="578" 
d="M68 356c0 272 123 394 260 394c118 0 160 -68 160 -142c0 -71 -54 -128 -149 -166v-4c134 -4 191 -95 191 -219c0 -120 -84 -231 -233 -231c-169 0 -229 138 -229 368zM296 62c83 0 133 60 133 153c0 103 -29 173 -133 173c-36 0 -74 -18 -129 -45
c1 -173 26 -281 129 -281zM325 680c-76 0 -145 -59 -157 -263c136 55 226 92 226 194c0 42 -24 69 -69 69z" />
    <glyph glyph-name="gamma" unicode="&#x3b3;" horiz-adv-x="500" 
d="M201 19c-45 189 -119 405 -201 486l93 33c67 -81 121 -237 158 -417h4l147 418l93 -21l-203 -500c-28 -69 -28 -133 -12 -220l-74 -11c-33 65 -34 155 -5 232z" />
    <glyph glyph-name="delta" unicode="&#x3b4;" horiz-adv-x="577" 
d="M52 243c0 119 69 201 159 237c-72 37 -97 75 -97 130c0 89 80 140 191 140c72 0 122 -22 168 -60l-46 -54c-44 34 -81 44 -126 44c-57 0 -92 -25 -92 -67c0 -45 30 -60 116 -95c137 -56 203 -123 203 -274c0 -137 -89 -256 -238 -256c-150 0 -238 114 -238 255zM429 244
c0 117 -36 158 -152 207c-92 -44 -126 -110 -126 -208c0 -113 51 -181 139 -181s139 63 139 182z" />
    <glyph glyph-name="epsilon" unicode="&#x3b5;" horiz-adv-x="516" 
d="M338 311l-11 -72h-56c-80 0 -113 -26 -113 -83s40 -94 117 -94c68 0 125 24 168 61l48 -60c-49 -40 -117 -75 -215 -75c-125 0 -219 55 -219 164c0 78 56 118 118 128v4c-53 14 -97 57 -97 114c0 93 90 141 201 141c56 0 133 -18 182 -59l-45 -56c-43 32 -96 43 -137 43
c-69 0 -106 -25 -106 -79c0 -47 40 -77 104 -77h61z" />
    <glyph glyph-name="zeta" unicode="&#x3b6;" horiz-adv-x="403" 
d="M415 -43c0 -76 -55 -133 -160 -180l-37 64c52 29 98 56 98 109c0 34 -24 52 -78 71c-124 44 -190 100 -190 231c0 116 80 257 227 361l-2 3c-10 -4 -22 -6 -36 -6c-64 0 -135 30 -169 105l64 35c29 -48 63 -76 123 -76c48 0 80 22 125 58l48 -51
c-201 -184 -282 -310 -282 -426c0 -97 43 -128 135 -162c80 -29 134 -58 134 -136z" />
    <glyph glyph-name="eta" unicode="&#x3b7;" horiz-adv-x="597" 
d="M503 383v-585l-92 -11v536c0 103 -5 144 -82 144c-57 0 -103 -44 -131 -85v-382h-92v357c0 69 -14 128 -26 170l86 12c10 -18 21 -61 24 -87c46 58 108 87 170 87c102 0 143 -58 143 -156z" />
    <glyph glyph-name="theta" unicode="&#x3b8;" horiz-adv-x="574" 
d="M57 371c0 234 81 379 231 379s229 -140 229 -378c0 -234 -81 -384 -230 -384c-150 0 -230 145 -230 383zM288 675c-89 0 -132 -78 -136 -274h270c-4 196 -46 274 -134 274zM287 62c87 0 129 80 134 269h-269c5 -189 48 -269 135 -269z" />
    <glyph glyph-name="iota" unicode="&#x3b9;" horiz-adv-x="281" 
d="M92 130v397h92v-386c0 -42 17 -64 49 -79l-32 -74c-57 15 -109 58 -109 142z" />
    <glyph glyph-name="kappa" unicode="&#x3ba;" horiz-adv-x="528" 
d="M71 738l90 12c29 -73 29 -151 29 -253v-497h-92v512c0 108 -9 166 -27 226zM194 288l215 251l77 -38l-184 -210l124 -159c31 -40 50 -53 92 -69l-32 -75c-61 15 -92 45 -121 82z" />
    <glyph glyph-name="lambda" unicode="&#x3bb;" horiz-adv-x="528" 
d="M30 7l182 532h36c-28 80 -65 125 -169 142l14 71c155 -23 218 -91 252 -232c59 -244 100 -417 183 -499l-96 -33c-74 93 -118 260 -158 473h-4l-151 -474z" />
    <glyph glyph-name="nu" unicode="&#x3bd;" horiz-adv-x="510" 
d="M302 0h-111c-44 191 -108 430 -191 505l91 33c73 -85 123 -273 160 -453h4l148 454l92 -21z" />
    </font>
</defs>
</svg>
